# Wavefront OBJ exported by RE2MV
#
# object Object_0 to come ...
#
v  5.800000 1.780000 1.340000
v  5.800000 1.420000 -1.460000
v  10.740000 1.760000 1.340000
v  10.740000 1.420000 -1.460000
v  -6.900000 1.060000 1.160000
v  -6.180000 1.100000 1.020000
v  6.080000 1.060000 1.160000
v  5.360000 1.100000 1.020000
v  -6.900000 2.380000 1.620000
v  -6.180000 2.440000 1.480000
v  6.080000 2.380000 1.620000
v  5.360000 2.420000 1.480000
v  1.640000 1.740000 3.520000
v  1.300000 1.560000 4.000000
v  1.280000 0.240000 3.540000
v  1.640000 0.400000 3.080000
v  6.000000 0.640000 2.400000
v  6.860000 1.800000 3.320000
v  6.860000 0.460000 2.880000
v  6.000000 1.960000 2.840000
v  -7.600000 2.260000 -0.200000
v  6.780000 2.260000 -0.180000
v  -7.600000 4.320000 0.480000
v  -0.400000 4.300000 0.480000
v  6.780000 4.300000 0.500000
v  -7.600000 2.680000 1.900000
v  -0.400000 2.680000 1.900000
v  6.780000 2.680000 1.920000
v  -7.600000 0.640000 1.200000
v  -0.400000 0.640000 1.200000
v  6.780000 0.640000 1.220000
v  -7.600000 0.220000 -0.900000
v  -0.400000 0.220000 -0.900000
v  6.780000 0.220000 -0.880000
v  -7.600000 1.840000 -2.320000
v  -0.400000 1.840000 -2.320000
v  6.780000 1.840000 -2.300000
v  -7.600000 3.900000 -1.620000
v  -0.400000 3.900000 -1.620000
v  6.780000 3.880000 -1.600000
# 40 vertices

vt  0.976563 0.819608
vt  0.976563 0.866667
vt  0.976563 0.890196
vt  0.304688 0.819608
vt  0.304688 0.866667
vt  0.304688 0.800000
vt  0.976563 0.890196
vt  0.976563 0.866667
vt  0.976563 0.933333
vt  0.304688 0.933333
vt  0.304688 0.866667
vt  0.304688 0.890196
vt  0.976563 0.933333
vt  0.976563 0.866667
vt  0.976563 0.909804
vt  0.304688 0.913725
vt  0.304688 0.866667
vt  0.304688 0.933333
vt  0.976563 0.909804
vt  0.976563 0.866667
vt  0.976563 0.843137
vt  0.304688 0.890196
vt  0.304688 0.866667
vt  0.304688 0.819608
vt  0.304688 0.843137
vt  0.304688 0.866667
vt  0.304688 0.913725
vt  0.976563 0.843137
vt  0.976563 0.866667
vt  0.976563 0.800000
vt  0.304688 0.800000
vt  0.304688 0.866667
vt  0.304688 0.843137
vt  0.976563 0.800000
vt  0.976563 0.866667
vt  0.976563 0.819608
vt  0.000000 1.000000
vt  0.195313 1.000000
vt  0.000000 0.843137
vt  0.195313 0.843137
vt  0.640625 0.819608
vt  0.640625 0.890196
vt  0.976563 0.819608
vt  0.976563 0.890196
vt  0.335938 0.964706
vt  0.335938 0.949020
vt  0.375000 0.921569
vt  0.375000 0.905882
vt  0.335938 0.964706
vt  0.375000 0.921569
vt  0.296875 0.980392
vt  0.335938 0.925490
vt  0.296875 0.980392
vt  0.335938 0.925490
vt  0.296875 0.964706
vt  0.335938 0.909804
vt  0.937500 0.909804
vt  0.906250 0.905882
vt  0.937500 0.925490
vt  0.906250 0.921569
vt  0.375000 0.905882
vt  0.335938 0.909804
vt  0.375000 0.921569
vt  0.335938 0.925490
vt  0.906250 0.921569
vt  0.539063 0.984314
vt  0.937500 0.925490
vt  0.562500 1.000000
vt  0.562500 0.988235
vt  0.937500 0.909804
vt  0.562500 1.000000
vt  0.937500 0.925490
vt  0.539063 0.984314
vt  0.906250 0.921569
vt  0.539063 0.972549
vt  0.906250 0.905882
vt  0.539063 0.984314
vt  0.335938 0.964706
vt  0.562500 1.000000
vt  0.296875 0.980392
vt  0.562500 1.000000
vt  0.296875 0.980392
vt  0.562500 0.988235
vt  0.296875 0.964706
vt  0.335938 0.964706
vt  0.539063 0.984314
vt  0.335938 0.949020
vt  0.539063 0.972549
vt  0.640625 0.890196
vt  0.640625 0.933333
vt  0.976563 0.890196
vt  0.976563 0.933333
vt  0.640625 0.933333
vt  0.640625 0.890196
vt  0.304688 0.933333
vt  0.304688 0.890196
vt  0.976563 1.000000
vt  0.976563 0.933333
vt  0.640625 1.000000
vt  0.640625 0.933333
vt  0.640625 1.000000
vt  0.640625 0.933333
vt  0.312500 1.000000
vt  0.312500 0.933333
vt  0.640625 0.890196
vt  0.640625 0.819608
vt  0.304688 0.890196
vt  0.304688 0.819608
vt  0.976563 0.800000
vt  0.976563 0.843137
vt  0.640625 0.800000
vt  0.640625 0.843137
vt  0.640625 0.800000
vt  0.640625 0.843137
vt  0.304688 0.800000
vt  0.304688 0.843137
vt  0.976563 0.819608
vt  0.976563 0.800000
vt  0.640625 0.819608
vt  0.640625 0.800000
vt  0.304688 0.800000
vt  0.304688 0.819608
vt  0.640625 0.800000
vt  0.640625 0.819608
# 102 texture coordinates

vn  0.000000 0.949798 -0.121121
vn  0.000468 0.721117 -0.630159
vn  0.000000 0.906072 0.309351
vn  0.000000 0.906072 0.309351
vn  -0.327355 0.291580 -0.851591
vn  -0.874272 -0.124395 0.370613
vn  0.000000 0.906072 0.309351
vn  0.260247 -0.298595 0.871700
vn  0.334136 0.289476 -0.849487
vn  -0.733042 0.199219 -0.583394
vn  -0.187060 0.303505 -0.888769
vn  0.334136 0.289476 -0.849487
vn  0.188229 0.303271 -0.888536
vn  0.000000 0.906072 0.309351
vn  -0.281759 -0.295789 0.866088
vn  -0.733042 0.199219 -0.583394
vn  -0.957748 0.000000 -0.000701
vn  0.255103 0.298127 -0.873571
vn  0.000000 0.906072 0.309351
vn  0.260247 -0.298595 0.871700
vn  0.121589 -0.307480 0.898590
vn  0.957514 -0.000234 0.000468
vn  -0.327355 0.291580 -0.851591
vn  -0.155260 0.305609 -0.894147
vn  -0.957748 0.000000 -0.000701
vn  0.000000 0.906072 0.309351
vn  -0.000468 0.629925 0.721117
vn  0.000000 0.906072 0.309351
vn  0.000000 0.906072 0.309351
vn  -0.000468 0.629925 0.721117
vn  0.000000 0.906072 0.309351
vn  0.957514 -0.000234 0.000468
vn  -0.957748 0.000000 -0.000701
vn  -0.000701 -0.309584 0.906072
vn  -0.000701 -0.309584 0.906072
vn  0.957514 -0.000234 0.000468
vn  -0.957748 0.000000 -0.000701
vn  0.957514 -0.000234 0.000468
vn  0.000468 0.721117 -0.630159
vn  0.000000 0.906072 0.309351
vn  0.000000 0.906072 0.309351
vn  0.957514 -0.000234 0.000468
vn  -0.957748 0.000000 -0.000701
vn  0.000234 -0.630159 -0.721351
vn  0.000234 -0.630159 -0.721351
vn  0.957514 -0.000234 0.000468
vn  -0.957748 0.000000 -0.000701
vn  0.000468 0.309351 -0.906306
vn  0.000468 0.721117 -0.630159
vn  0.000468 0.309351 -0.906306
vn  0.000468 0.721117 -0.630159
# 51 vertex normals

g Object_0
s 1
f 38/1/17 21/2/17 23/3/17
f 40/4/22 22/5/22 37/6/22
f 23/7/25 21/8/25 26/9/25
f 28/10/32 22/11/32 25/12/32
f 26/13/33 21/14/33 29/15/33
f 31/16/36 22/17/36 28/18/36
f 29/19/37 21/20/37 32/21/37
f 25/22/38 22/23/38 40/24/38
f 34/25/42 22/26/42 31/27/42
f 32/28/43 21/29/43 35/30/43
f 37/31/46 22/32/46 34/33/46
f 35/34/47 21/35/47 38/36/47
f 3/38/1 4/37/1 2/39/1 1/40/1
f 24/42/4 39/41/2 38/43/2 23/44/3
f 17/46/5 20/45/5 12/47/6 8/48/6
f 12/50/7 20/49/7 18/51/7 11/52/7
f 11/54/9 18/53/8 19/55/8 7/56/9
f 6/58/11 5/57/10 9/59/10 10/60/11
f 7/62/12 8/61/13 12/63/13 11/64/12
f 13/66/14 10/65/14 9/67/14 14/68/14
f 5/70/16 15/69/15 14/71/15 9/72/16
f 10/74/18 13/73/18 16/75/18 6/76/18
f 20/78/19 13/77/19 14/79/19 18/80/19
f 18/82/20 14/81/21 15/83/21 19/84/20
f 13/86/24 20/85/23 17/87/23 16/88/24
f 27/90/27 24/89/29 23/91/26 26/92/27
f 24/94/29 27/93/30 28/95/30 25/96/32
f 26/98/34 29/97/34 30/99/34 27/100/34
f 27/102/35 30/101/35 31/103/35 28/104/35
f 39/106/39 24/105/40 25/107/41 40/108/39
f 32/110/44 35/109/44 36/111/44 33/112/44
f 33/114/45 36/113/45 37/115/45 34/116/45
f 35/118/48 38/117/49 39/119/49 36/120/48
f 40/122/51 37/121/50 36/123/50 39/124/51
# 34 faces

g
