# Wavefront OBJ exported by RE2MV
#
# object Object_0 to come ...
#
v  5.380000 -10.800000 0.000000
v  5.380000 10.780000 0.000000
v  -5.400000 10.780000 0.000000
v  -5.400000 -10.800000 0.000000
v  -2.880000 -9.720000 0.000000
v  -2.160000 -10.440000 0.000000
v  -1.440000 -9.000000 0.000000
v  -0.360000 -10.800000 0.000000
v  1.780000 -10.080000 0.000000
v  3.220000 -10.800000 0.000000
v  3.940000 -10.080000 0.000000
v  5.380000 -10.800000 -1.080000
v  5.380000 10.780000 -1.080000
v  -5.400000 10.780000 -1.080000
v  -5.400000 -10.800000 -1.080000
v  -2.880000 -9.720000 -1.080000
v  -2.160000 -10.440000 -1.080000
v  -1.440000 -9.000000 -1.080000
v  -0.360000 -10.800000 -1.080000
v  1.780000 -10.080000 -1.080000
v  3.220000 -10.800000 -1.080000
v  3.940000 -10.080000 -1.080000
# 22 vertices

vt  0.507813 0.498039
vt  0.484375 0.474510
vt  0.000000 0.498039
vt  0.507813 0.498039
vt  0.000000 0.498039
vt  0.484375 0.474510
vt  0.507813 0.388235
vt  0.492188 0.403922
vt  0.000000 0.388235
vt  0.507813 0.447059
vt  0.000000 0.388235
vt  0.492188 0.427451
vt  0.507813 0.388235
vt  0.000000 0.388235
vt  0.492188 0.403922
vt  0.507813 0.447059
vt  0.492188 0.427451
vt  0.000000 0.388235
vt  0.507813 0.388235
vt  0.492188 0.403922
vt  0.507813 0.388235
vt  0.492188 0.403922
vt  0.000000 0.360784
vt  0.492188 0.360784
vt  0.000000 0.376471
vt  0.492188 0.376471
vt  0.000000 0.498039
vt  0.000000 0.388235
vt  0.000000 0.498039
vt  0.000000 0.388235
vt  0.492188 0.360784
vt  0.000000 0.360784
vt  0.492188 0.380392
vt  0.000000 0.380392
vt  0.484375 0.474510
vt  0.507813 0.498039
vt  0.484375 0.474510
vt  0.507813 0.498039
vt  0.507813 0.466667
vt  0.484375 0.474510
vt  0.500000 0.466667
vt  0.484375 0.474510
vt  0.468750 0.458824
vt  0.507813 0.466667
vt  0.468750 0.458824
vt  0.500000 0.466667
vt  0.507813 0.447059
vt  0.468750 0.458824
vt  0.507813 0.447059
vt  0.468750 0.458824
vt  0.492188 0.427451
vt  0.507813 0.447059
vt  0.492188 0.427451
vt  0.507813 0.447059
vt  0.507813 0.411765
vt  0.492188 0.427451
vt  0.507813 0.411765
vt  0.492188 0.427451
vt  0.492188 0.403922
vt  0.507813 0.411765
vt  0.492188 0.403922
vt  0.507813 0.411765
vt  0.507813 0.466667
vt  0.468750 0.458824
vt  0.484375 0.474510
vt  0.000000 0.498039
vt  0.468750 0.458824
vt  0.507813 0.447059
vt  0.000000 0.498039
vt  0.000000 0.388235
vt  0.507813 0.411765
vt  0.492188 0.403922
vt  0.492188 0.427451
vt  0.000000 0.388235
vt  0.484375 0.474510
vt  0.000000 0.498039
vt  0.500000 0.466667
vt  0.468750 0.458824
vt  0.000000 0.498039
vt  0.000000 0.388235
vt  0.468750 0.458824
vt  0.507813 0.447059
vt  0.492188 0.427451
vt  0.000000 0.388235
vt  0.507813 0.411765
vt  0.492188 0.403922
# 69 texture coordinates

vn  -0.428368 -0.856735 0.000000
vn  0.957514 0.000000 0.000000
vn  0.000000 0.957514 0.000000
vn  -0.957748 0.000000 0.000000
vn  0.376926 -0.880352 0.000000
vn  -0.677158 -0.677158 0.000000
vn  0.856502 -0.428368 0.000000
vn  -0.821194 -0.492670 0.000000
vn  0.302570 -0.908645 0.000000
vn  -0.067809 -0.955410 0.000000
vn  -0.067809 -0.955410 0.000000
vn  -0.428368 -0.856735 0.000000
vn  0.676924 -0.677158 0.000000
vn  0.000000 0.000000 0.957514
vn  0.000000 0.000000 -0.957748
vn  0.000000 0.000000 -0.957748
vn  0.000000 0.000000 -0.957748
vn  0.000000 0.000000 -0.957748
vn  0.000000 0.000000 -0.957748
vn  0.000000 0.000000 -0.957748
vn  0.000000 0.000000 0.957514
vn  0.000000 0.000000 0.957514
vn  0.000000 0.000000 0.957514
vn  0.000000 0.000000 0.957514
vn  0.000000 0.000000 0.957514
# 25 vertex normals

g Object_0
s 1
f 4/1/14 5/2/14 3/3/14
f 15/4/15 14/5/15 16/6/15
f 12/7/16 22/8/16 13/9/16
f 19/10/19 13/11/19 20/12/19
f 1/13/21 2/14/21 11/15/21
f 8/16/24 9/17/24 2/18/24
f 22/20/1 12/19/1 1/21/1 11/22/1
f 12/24/2 13/23/2 2/25/2 1/26/2
f 13/28/3 14/27/3 3/29/3 2/30/3
f 14/32/4 15/31/4 4/33/4 3/34/4
f 15/36/5 16/35/5 5/37/5 4/38/5
f 16/40/6 17/39/6 6/41/6 5/42/6
f 17/44/7 18/43/7 7/45/7 6/46/7
f 18/48/8 19/47/8 8/49/8 7/50/8
f 19/52/9 20/51/10 9/53/10 8/54/9
f 20/56/11 21/55/12 10/57/12 9/58/11
f 21/60/13 22/59/13 11/61/13 10/62/13
f 18/64/17 17/63/17 16/65/17 14/66/17
f 19/68/18 18/67/18 14/69/18 13/70/18
f 22/72/20 21/71/20 20/73/20 13/74/20
f 3/76/22 5/75/22 6/77/22 7/78/22
f 2/80/23 3/79/23 7/81/23 8/82/23
f 2/84/25 9/83/25 10/85/25 11/86/25
# 23 faces

g
