# Wavefront OBJ exported by RE2MV
#
# object Object_0 to come ...
#
v  5.380000 10.780000 0.000000
v  5.380000 -10.800000 0.000000
v  -5.400000 -10.800000 0.000000
v  -5.400000 10.780000 0.000000
v  -2.880000 11.860000 0.000000
v  -2.160000 11.140000 0.000000
v  -1.440000 12.580000 0.000000
v  -0.360000 10.780000 0.000000
v  1.780000 11.500000 0.000000
v  3.220000 10.780000 0.000000
v  3.940000 11.500000 0.000000
v  5.380000 10.780000 -1.080000
v  5.380000 -10.800000 -1.080000
v  -5.400000 -10.800000 -1.080000
v  -5.400000 10.780000 -1.080000
v  -2.880000 11.860000 -1.080000
v  -2.160000 11.140000 -1.080000
v  -1.440000 12.580000 -1.080000
v  -0.360000 10.780000 -1.080000
v  1.780000 11.500000 -1.080000
v  3.220000 10.780000 -1.080000
v  3.940000 11.500000 -1.080000
# 22 vertices

vt  0.515625 0.498039
vt  0.921875 0.498039
vt  0.492188 0.470588
vt  0.507813 0.498039
vt  0.492188 0.470588
vt  0.929688 0.498039
vt  0.507813 0.447059
vt  0.500000 0.427451
vt  0.929688 0.388235
vt  0.500000 0.427451
vt  0.507813 0.411765
vt  0.929688 0.388235
vt  0.515625 0.388235
vt  0.500000 0.403922
vt  0.507813 0.388235
vt  0.500000 0.403922
vt  0.914063 0.372549
vt  0.523438 0.372549
vt  0.914063 0.364706
vt  0.523438 0.364706
vt  0.921875 0.498039
vt  0.921875 0.388235
vt  0.929688 0.498039
vt  0.929688 0.388235
vt  0.500000 0.376471
vt  0.929688 0.376471
vt  0.500000 0.360784
vt  0.929688 0.360784
vt  0.492188 0.470588
vt  0.515625 0.498039
vt  0.492188 0.470588
vt  0.507813 0.498039
vt  0.507813 0.466667
vt  0.492188 0.470588
vt  0.507813 0.466667
vt  0.492188 0.470588
vt  0.476563 0.458824
vt  0.507813 0.466667
vt  0.476563 0.458824
vt  0.507813 0.466667
vt  0.515625 0.447059
vt  0.476563 0.458824
vt  0.507813 0.447059
vt  0.476563 0.458824
vt  0.500000 0.427451
vt  0.515625 0.447059
vt  0.500000 0.427451
vt  0.507813 0.447059
vt  0.515625 0.411765
vt  0.500000 0.427451
vt  0.507813 0.411765
vt  0.500000 0.427451
vt  0.500000 0.403922
vt  0.515625 0.411765
vt  0.500000 0.403922
vt  0.507813 0.411765
vt  0.515625 0.388235
vt  0.921875 0.388235
vt  0.500000 0.403922
vt  0.515625 0.411765
vt  0.492188 0.470588
vt  0.507813 0.466667
vt  0.921875 0.498039
vt  0.921875 0.388235
vt  0.476563 0.458824
vt  0.515625 0.447059
vt  0.507813 0.466667
vt  0.921875 0.388235
vt  0.500000 0.427451
vt  0.515625 0.411765
vt  0.515625 0.447059
vt  0.921875 0.388235
vt  0.507813 0.411765
vt  0.929688 0.388235
vt  0.500000 0.403922
vt  0.507813 0.388235
vt  0.929688 0.388235
vt  0.507813 0.466667
vt  0.929688 0.498039
vt  0.492188 0.470588
vt  0.929688 0.388235
vt  0.507813 0.447059
vt  0.507813 0.466667
vt  0.476563 0.458824
# 66 texture coordinates

vn  0.428134 0.856502 0.000000
vn  0.957514 0.000000 0.000000
vn  0.000000 -0.957748 0.000000
vn  -0.957748 0.000000 0.000000
vn  -0.377160 0.880118 0.000000
vn  0.676924 0.676924 0.000000
vn  -0.856735 0.428134 0.000000
vn  0.820960 0.492436 0.000000
vn  -0.302804 0.908411 0.000000
vn  0.067575 0.955176 0.000000
vn  0.067575 0.955176 0.000000
vn  0.428134 0.856502 0.000000
vn  -0.677158 0.676924 0.000000
vn  0.000000 0.000000 0.957514
vn  0.000000 0.000000 -0.957748
vn  0.000000 0.000000 0.957514
vn  0.000000 0.000000 0.957514
vn  0.000000 0.000000 0.957514
vn  0.000000 0.000000 0.957514
vn  0.000000 0.000000 -0.957748
vn  0.000000 0.000000 -0.957748
vn  0.000000 0.000000 -0.957748
vn  0.000000 0.000000 -0.957748
vn  0.000000 0.000000 -0.957748
# 24 vertex normals

g Object_0
s 1
f 4/1/14 3/2/14 5/3/14
f 15/4/15 16/5/15 14/6/15
f 19/7/23 20/8/23 13/9/23
f 20/10/24 21/11/24 13/12/24
f 11/14/1 1/13/1 12/15/1 22/16/1
f 1/18/2 2/17/2 13/19/2 12/20/2
f 2/22/3 3/21/3 14/23/3 13/24/3
f 3/26/4 4/25/4 15/27/4 14/28/4
f 4/30/5 5/29/5 16/31/5 15/32/5
f 5/34/6 6/33/6 17/35/6 16/36/6
f 6/38/7 7/37/7 18/39/7 17/40/7
f 7/42/8 8/41/8 19/43/8 18/44/8
f 8/46/9 9/45/10 20/47/10 19/48/9
f 9/50/11 10/49/12 21/51/12 20/52/11
f 10/54/13 11/53/13 22/55/13 21/56/13
f 2/58/16 1/57/16 11/59/16 10/60/16
f 6/62/17 5/61/17 3/63/17 2/64/17
f 8/66/18 7/65/18 6/67/18 2/68/18
f 10/70/19 9/69/19 8/71/19 2/72/19
f 13/74/20 21/73/20 22/75/20 12/76/20
f 17/78/21 13/77/21 14/79/21 16/80/21
f 19/82/22 13/81/22 17/83/22 18/84/22
# 22 faces

g
