# Wavefront OBJ exported by RE2MV
#
# object Object_0 to come ...
#
v  0.000000 14.360000 -6.340000
v  0.000000 14.360000 7.120000
v  -5.500000 13.260000 -6.340000
v  -5.500000 13.260000 7.120000
v  -10.160000 10.140000 -6.340000
v  -10.160000 10.140000 7.120000
v  -13.280000 5.480000 -6.340000
v  -13.280000 5.480000 7.120000
v  -14.380000 0.000000 -6.340000
v  -14.380000 0.000000 7.120000
v  -13.280000 -5.500000 -6.340000
v  -13.280000 -5.500000 7.120000
v  -10.160000 -10.160000 -6.340000
v  -10.160000 -10.160000 7.120000
v  -5.500000 -13.280000 -6.340000
v  -5.500000 -13.280000 7.120000
v  0.000000 -14.380000 -6.340000
v  0.000000 -14.380000 7.120000
v  5.480000 -13.280000 -6.340000
v  5.480000 -13.280000 7.120000
v  10.140000 -10.160000 -6.340000
v  10.140000 -10.160000 7.120000
v  13.260000 -5.500000 -6.340000
v  13.260000 -5.500000 7.120000
v  14.360000 0.000000 -6.340000
v  14.360000 0.000000 7.120000
v  13.260000 5.480000 -6.340000
v  13.260000 5.480000 7.120000
v  10.140000 10.140000 -6.340000
v  10.140000 10.140000 7.120000
v  5.480000 13.260000 -6.340000
v  5.480000 13.260000 7.120000
v  12.520000 5.180000 8.060000
v  9.580000 9.580000 8.060000
v  13.540000 0.000000 8.060000
v  12.520000 -5.200000 8.060000
v  9.580000 -9.600000 8.060000
v  5.180000 -12.540000 8.060000
v  0.000000 -13.560000 8.060000
v  -5.200000 -12.540000 8.060000
v  -9.600000 -9.600000 8.060000
v  -12.540000 -5.200000 8.060000
v  -13.560000 0.000000 8.060000
v  -12.540000 5.180000 8.060000
v  -9.600000 9.580000 8.060000
v  -5.200000 12.520000 8.060000
v  5.180000 12.520000 8.060000
v  0.000000 13.540000 8.060000
v  8.720000 3.600000 8.140000
v  6.660000 6.660000 8.140000
v  9.440000 0.000000 8.140000
v  8.720000 -3.620000 8.140000
v  6.660000 -6.680000 8.140000
v  3.600000 -8.740000 8.140000
v  0.000000 -9.460000 8.140000
v  -3.620000 -8.740000 8.140000
v  -6.680000 -6.680000 8.140000
v  -8.740000 -3.620000 8.140000
v  -9.460000 0.000000 8.140000
v  -8.740000 3.600000 8.140000
v  -6.680000 6.660000 8.140000
v  -3.620000 8.720000 8.140000
v  3.600000 8.720000 8.140000
v  0.000000 9.440000 8.140000
v  7.940000 3.280000 5.240000
v  6.060000 6.060000 5.240000
v  8.600000 0.000000 5.240000
v  7.940000 -3.300000 5.240000
v  6.060000 -6.080000 5.240000
v  3.280000 -7.960000 5.240000
v  0.000000 -8.620000 5.240000
v  -3.300000 -7.960000 5.240000
v  -6.080000 -6.080000 5.240000
v  -7.960000 -3.300000 5.240000
v  -8.620000 0.000000 5.240000
v  -7.960000 3.280000 5.240000
v  -6.080000 6.060000 5.240000
v  -3.300000 7.940000 5.240000
v  3.280000 7.940000 5.240000
v  0.000000 8.600000 5.240000
v  0.000000 0.000000 5.240000
# 81 vertices

vt  0.957031 0.011765
vt  0.957031 0.023529
vt  0.929688 0.011765
vt  0.929688 0.023529
vt  0.867188 0.023529
vt  0.898438 0.023529
vt  0.867188 0.011765
vt  0.898438 0.011765
vt  0.468750 0.129412
vt  0.546875 0.129412
vt  0.476563 0.098039
vt  0.492188 0.074510
vt  0.898438 0.023529
vt  0.929688 0.023529
vt  0.898438 0.011765
vt  0.929688 0.011765
vt  0.839844 0.023529
vt  0.867188 0.023529
vt  0.839844 0.011765
vt  0.867188 0.011765
vt  0.976563 0.023529
vt  0.957031 0.023529
vt  0.976563 0.011765
vt  0.957031 0.011765
vt  0.929688 0.023529
vt  0.957031 0.023529
vt  0.929688 0.011765
vt  0.957031 0.011765
vt  0.820313 0.023529
vt  0.839844 0.023529
vt  0.820313 0.011765
vt  0.839844 0.011765
vt  0.867188 0.023529
vt  0.839844 0.023529
vt  0.867188 0.011765
vt  0.839844 0.011765
vt  0.980469 0.023529
vt  0.976563 0.023529
vt  0.980469 0.011765
vt  0.976563 0.011765
vt  0.816406 0.023529
vt  0.820313 0.023529
vt  0.816406 0.011765
vt  0.820313 0.011765
vt  0.957031 0.023529
vt  0.976563 0.023529
vt  0.957031 0.011765
vt  0.976563 0.011765
vt  0.929688 0.023529
vt  0.898438 0.023529
vt  0.929688 0.011765
vt  0.898438 0.011765
vt  0.820313 0.023529
vt  0.816406 0.023529
vt  0.820313 0.011765
vt  0.816406 0.011765
vt  0.898438 0.023529
vt  0.867188 0.023529
vt  0.898438 0.011765
vt  0.867188 0.011765
vt  0.976563 0.023529
vt  0.980469 0.023529
vt  0.976563 0.011765
vt  0.980469 0.011765
vt  0.839844 0.023529
vt  0.820313 0.023529
vt  0.839844 0.011765
vt  0.820313 0.011765
vt  0.398438 0.058824
vt  0.417969 0.058824
vt  0.398438 0.058824
vt  0.417969 0.058824
vt  0.378906 0.058824
vt  0.398438 0.058824
vt  0.378906 0.058824
vt  0.398438 0.058824
vt  0.359375 0.062745
vt  0.378906 0.058824
vt  0.355469 0.058824
vt  0.378906 0.058824
vt  0.339844 0.062745
vt  0.359375 0.062745
vt  0.339844 0.058824
vt  0.355469 0.058824
vt  0.328125 0.062745
vt  0.339844 0.062745
vt  0.328125 0.058824
vt  0.339844 0.058824
vt  0.328125 0.062745
vt  0.328125 0.062745
vt  0.324219 0.058824
vt  0.328125 0.058824
vt  0.328125 0.062745
vt  0.328125 0.062745
vt  0.328125 0.058824
vt  0.324219 0.058824
vt  0.339844 0.062745
vt  0.328125 0.062745
vt  0.339844 0.058824
vt  0.328125 0.058824
vt  0.359375 0.062745
vt  0.339844 0.062745
vt  0.355469 0.058824
vt  0.339844 0.058824
vt  0.378906 0.058824
vt  0.359375 0.062745
vt  0.378906 0.058824
vt  0.355469 0.058824
vt  0.398438 0.058824
vt  0.378906 0.058824
vt  0.398438 0.058824
vt  0.378906 0.058824
vt  0.417969 0.058824
vt  0.398438 0.058824
vt  0.417969 0.058824
vt  0.398438 0.058824
vt  0.429688 0.058824
vt  0.417969 0.058824
vt  0.429688 0.054902
vt  0.417969 0.058824
vt  0.429688 0.058824
vt  0.429688 0.058824
vt  0.429688 0.054902
vt  0.433594 0.054902
vt  0.417969 0.058824
vt  0.429688 0.058824
vt  0.417969 0.058824
vt  0.429688 0.054902
vt  0.429688 0.058824
vt  0.429688 0.058824
vt  0.433594 0.054902
vt  0.429688 0.054902
vt  0.785156 0.023529
vt  0.777344 0.023529
vt  0.796875 0.023529
vt  0.781250 0.027451
vt  0.777344 0.023529
vt  0.769531 0.023529
vt  0.781250 0.027451
vt  0.769531 0.027451
vt  0.769531 0.023529
vt  0.757813 0.023529
vt  0.769531 0.027451
vt  0.753906 0.027451
vt  0.757813 0.023529
vt  0.750000 0.023529
vt  0.753906 0.027451
vt  0.742188 0.023529
vt  0.750000 0.023529
vt  0.746094 0.019608
vt  0.742188 0.023529
vt  0.734375 0.019608
vt  0.746094 0.019608
vt  0.742188 0.019608
vt  0.734375 0.019608
vt  0.730469 0.019608
vt  0.742188 0.019608
vt  0.746094 0.015686
vt  0.730469 0.019608
vt  0.734375 0.015686
vt  0.746094 0.015686
vt  0.750000 0.015686
vt  0.734375 0.015686
vt  0.742188 0.011765
vt  0.750000 0.015686
vt  0.757813 0.011765
vt  0.742188 0.011765
vt  0.753906 0.011765
vt  0.757813 0.011765
vt  0.769531 0.011765
vt  0.753906 0.011765
vt  0.769531 0.011765
vt  0.769531 0.011765
vt  0.777344 0.011765
vt  0.769531 0.011765
vt  0.781250 0.011765
vt  0.777344 0.011765
vt  0.785156 0.015686
vt  0.781250 0.011765
vt  0.796875 0.011765
vt  0.785156 0.015686
vt  0.792969 0.015686
vt  0.796875 0.011765
vt  0.800781 0.015686
vt  0.792969 0.015686
vt  0.792969 0.019608
vt  0.800781 0.015686
vt  0.804688 0.019608
vt  0.792969 0.019608
vt  0.792969 0.019608
vt  0.804688 0.019608
vt  0.800781 0.019608
vt  0.792969 0.019608
vt  0.785156 0.023529
vt  0.800781 0.019608
vt  0.796875 0.023529
vt  0.773438 0.074510
vt  0.765625 0.078431
vt  0.777344 0.074510
vt  0.765625 0.078431
vt  0.765625 0.078431
vt  0.753906 0.078431
vt  0.765625 0.078431
vt  0.753906 0.078431
vt  0.753906 0.078431
vt  0.742188 0.078431
vt  0.753906 0.078431
vt  0.738281 0.078431
vt  0.742188 0.078431
vt  0.730469 0.074510
vt  0.738281 0.078431
vt  0.726563 0.074510
vt  0.730469 0.074510
vt  0.722656 0.070588
vt  0.726563 0.074510
vt  0.722656 0.074510
vt  0.722656 0.070588
vt  0.722656 0.070588
vt  0.722656 0.074510
vt  0.718750 0.070588
vt  0.722656 0.070588
vt  0.722656 0.066667
vt  0.718750 0.070588
vt  0.722656 0.066667
vt  0.722656 0.066667
vt  0.730469 0.062745
vt  0.722656 0.066667
vt  0.726563 0.062745
vt  0.730469 0.062745
vt  0.742188 0.058824
vt  0.726563 0.062745
vt  0.738281 0.058824
vt  0.742188 0.058824
vt  0.753906 0.058824
vt  0.738281 0.058824
vt  0.753906 0.058824
vt  0.753906 0.058824
vt  0.765625 0.058824
vt  0.753906 0.058824
vt  0.765625 0.058824
vt  0.765625 0.058824
vt  0.773438 0.062745
vt  0.765625 0.058824
vt  0.777344 0.062745
vt  0.773438 0.062745
vt  0.781250 0.066667
vt  0.777344 0.062745
vt  0.785156 0.066667
vt  0.781250 0.066667
vt  0.785156 0.070588
vt  0.785156 0.066667
vt  0.789063 0.070588
vt  0.785156 0.070588
vt  0.781250 0.070588
vt  0.789063 0.070588
vt  0.785156 0.074510
vt  0.781250 0.070588
vt  0.773438 0.074510
vt  0.785156 0.074510
vt  0.777344 0.074510
vt  0.601563 0.188235
vt  0.617188 0.160784
vt  0.546875 0.129412
vt  0.625000 0.129412
vt  0.617188 0.098039
vt  0.601563 0.074510
vt  0.625000 0.129412
vt  0.546875 0.129412
vt  0.476563 0.160784
vt  0.492188 0.188235
vt  0.468750 0.129412
vt  0.546875 0.129412
vt  0.601563 0.188235
vt  0.546875 0.129412
vt  0.574219 0.207843
vt  0.546875 0.211765
vt  0.546875 0.211765
vt  0.546875 0.129412
vt  0.515625 0.207843
vt  0.492188 0.188235
vt  0.574219 0.054902
vt  0.546875 0.047059
vt  0.601563 0.074510
vt  0.546875 0.129412
vt  0.492188 0.074510
vt  0.546875 0.129412
vt  0.515625 0.054902
vt  0.546875 0.047059
# 216 texture coordinates

vn  0.366170 -0.884794 0.000000
vn  0.343021 -0.828676 0.335773
vn  0.676924 -0.677158 0.000000
vn  0.633900 -0.634134 0.335773
vn  0.000000 0.957514 0.000000
vn  0.000000 0.896719 0.335773
vn  -0.366404 0.884561 0.000000
vn  -0.343255 0.828442 0.335773
vn  0.000000 0.000000 0.957514
vn  0.402647 0.402647 0.769519
vn  0.569598 0.000000 0.769519
vn  0.683705 0.283162 0.607478
vn  0.366170 0.884561 0.000000
vn  0.343021 0.828442 0.335773
vn  -0.677158 0.676924 0.000000
vn  -0.634134 0.633900 0.335773
vn  0.884561 -0.366404 0.000000
vn  0.828442 -0.343255 0.335773
vn  0.676924 0.676924 0.000000
vn  0.633900 0.633900 0.335773
vn  -0.884794 0.366170 0.000000
vn  -0.828676 0.343021 0.335773
vn  -0.677158 -0.677158 0.000000
vn  -0.634134 -0.634134 0.335773
vn  -0.366404 -0.884794 0.000000
vn  -0.343255 -0.828676 0.335773
vn  0.957514 0.000000 0.000000
vn  0.896719 0.000000 0.335773
vn  -0.957748 0.000000 0.000000
vn  -0.896953 0.000000 0.335773
vn  0.884561 0.366170 0.000000
vn  0.828442 0.343021 0.335773
vn  0.000000 -0.957748 0.000000
vn  0.000000 -0.896953 0.335773
vn  -0.884794 -0.366404 0.000000
vn  -0.828676 -0.343255 0.335773
vn  0.373419 0.154558 0.867959
vn  0.285734 0.285734 0.867959
vn  0.404284 0.000000 0.867959
vn  0.373419 -0.154792 0.867959
vn  0.285734 -0.285968 0.867959
vn  0.154558 -0.373653 0.867959
vn  0.000000 -0.404517 0.867959
vn  -0.154792 -0.373653 0.867959
vn  -0.285968 -0.285968 0.867959
vn  -0.373653 -0.154792 0.867959
vn  -0.404517 0.000000 0.867959
vn  -0.373653 0.154558 0.867959
vn  -0.285968 0.285734 0.867959
vn  -0.154792 0.373419 0.867959
vn  0.154558 0.373419 0.867959
vn  0.000000 0.404284 0.867959
vn  -0.397503 -0.397503 0.775130
vn  -0.215119 -0.519326 0.775364
vn  0.000000 -0.562116 0.775130
vn  0.214885 -0.519326 0.775364
vn  0.397269 -0.397503 0.775130
vn  0.519092 -0.215119 0.775130
vn  0.561882 0.000000 0.775130
vn  0.519092 0.214885 0.775364
vn  0.397269 0.397269 0.775130
vn  0.214885 0.519092 0.775364
vn  0.000000 0.561882 0.775130
vn  -0.215119 0.519092 0.775364
vn  -0.397503 0.397269 0.775364
vn  -0.519326 0.214885 0.775364
vn  -0.562116 0.000000 0.775130
vn  -0.519326 -0.215119 0.775364
vn  -0.402881 -0.402881 0.769519
vn  -0.283396 -0.683939 0.607478
vn  0.000000 -0.569832 0.769519
vn  0.283162 -0.683939 0.607478
vn  0.402647 -0.402881 0.769519
vn  0.683705 -0.283396 0.607478
vn  0.283162 0.683705 0.607478
vn  0.000000 0.569598 0.769519
vn  -0.283396 0.683705 0.607478
vn  -0.402881 0.402647 0.769519
vn  -0.683939 0.283162 0.607478
vn  -0.569832 0.000000 0.769519
vn  -0.683939 -0.283396 0.607478
# 81 vertex normals

g Object_0
s 1
f 21/2/3 22/1/4 20/3/2 19/4/1
f 1/6/5 3/5/7 4/7/8 2/8/6
f 81/10/9 75/9/11 74/11/12 73/12/10
f 31/14/13 1/13/5 2/15/6 32/16/14
f 3/18/7 5/17/15 6/19/16 4/20/8
f 21/22/3 23/21/17 24/23/18 22/24/4
f 29/26/19 31/25/13 32/27/14 30/28/20
f 5/30/15 7/29/21 8/31/22 6/32/16
f 13/34/23 15/33/25 16/35/26 14/36/24
f 23/38/17 25/37/27 26/39/28 24/40/18
f 7/42/21 9/41/29 10/43/30 8/44/22
f 27/46/31 29/45/19 30/47/20 28/48/32
f 17/50/33 19/49/1 20/51/2 18/52/34
f 9/54/29 11/53/35 12/55/36 10/56/30
f 15/58/25 17/57/33 18/59/34 16/60/26
f 25/62/27 27/61/31 28/63/32 26/64/28
f 11/66/35 13/65/23 14/67/24 12/68/36
f 34/70/38 33/69/37 28/71/32 30/72/20
f 33/74/37 35/73/39 26/75/28 28/76/32
f 35/78/39 36/77/40 24/79/18 26/80/28
f 36/82/40 37/81/41 22/83/4 24/84/18
f 37/86/41 38/85/42 20/87/2 22/88/4
f 38/90/42 39/89/43 18/91/34 20/92/2
f 39/94/43 40/93/44 16/95/26 18/96/34
f 40/98/44 41/97/45 14/99/24 16/100/26
f 41/102/45 42/101/46 12/103/36 14/104/24
f 42/106/46 43/105/47 10/107/30 12/108/36
f 43/110/47 44/109/48 8/111/22 10/112/30
f 44/114/48 45/113/49 6/115/16 8/116/22
f 45/118/49 46/117/50 4/119/8 6/120/16
f 48/122/52 47/121/51 32/123/14 2/124/6
f 47/126/51 34/125/38 30/127/20 32/128/14
f 46/130/50 48/129/52 2/131/6 4/132/8
f 63/134/54 50/133/53 34/135/38 47/136/51
f 64/138/55 63/137/54 47/139/51 48/140/52
f 62/142/56 64/141/55 48/143/52 46/144/50
f 61/146/57 62/145/56 46/147/50 45/148/49
f 60/150/58 61/149/57 45/151/49 44/152/48
f 59/154/59 60/153/58 44/155/48 43/156/47
f 58/158/60 59/157/59 43/159/47 42/160/46
f 57/162/61 58/161/60 42/163/46 41/164/45
f 56/166/62 57/165/61 41/167/45 40/168/44
f 55/170/63 56/169/62 40/171/44 39/172/43
f 54/174/64 55/173/63 39/175/43 38/176/42
f 53/178/65 54/177/64 38/179/42 37/180/41
f 52/182/66 53/181/65 37/183/41 36/184/40
f 51/186/67 52/185/66 36/187/40 35/188/39
f 49/190/68 51/189/67 35/191/39 33/192/37
f 50/194/53 49/193/68 33/195/37 34/196/38
f 79/198/70 66/197/69 50/199/53 63/200/54
f 80/202/71 79/201/70 63/203/54 64/204/55
f 78/206/72 80/205/71 64/207/55 62/208/56
f 77/210/73 78/209/72 62/211/56 61/212/57
f 76/214/74 77/213/73 61/215/57 60/216/58
f 75/218/11 76/217/74 60/219/58 59/220/59
f 74/222/12 75/221/11 59/223/59 58/224/60
f 73/226/10 74/225/12 58/227/60 57/228/61
f 72/230/75 73/229/10 57/231/61 56/232/62
f 71/234/76 72/233/75 56/235/62 55/236/63
f 70/238/77 71/237/76 55/239/63 54/240/64
f 69/242/78 70/241/77 54/243/64 53/244/65
f 68/246/79 69/245/78 53/247/65 52/248/66
f 67/250/80 68/249/79 52/251/66 51/252/67
f 65/254/81 67/253/80 51/255/67 49/256/68
f 66/258/69 65/257/81 49/259/68 50/260/53
f 65/262/81 66/261/69 81/263/9 67/264/80
f 69/266/78 68/265/79 67/267/80 81/268/9
f 77/270/73 76/269/74 75/271/11 81/272/9
f 81/274/9 66/273/69 79/275/70 80/276/71
f 81/278/9 80/277/71 78/279/72 77/280/73
f 71/282/76 70/281/77 69/283/78 81/284/9
f 81/286/9 73/285/10 72/287/75 71/288/76
# 72 faces

g
