# Wavefront OBJ exported by RE2MV
#
# object Object_0 to come ...
#
v  -30.920000 0.000000 39.520000
v  -8.760000 0.000000 39.520000
v  34.419998 0.000000 39.520000
v  62.320000 0.000000 39.520000
v  88.320000 0.000000 39.900002
v  102.440002 0.000000 38.380001
v  -30.920000 0.000000 20.180000
v  -8.760000 0.000000 20.180000
v  34.419998 0.000000 20.180000
v  62.320000 0.000000 20.180000
v  90.220001 0.000000 20.180000
v  102.839996 0.000000 21.340000
v  90.220001 0.000000 8.880000
v  102.839996 0.000000 8.880000
v  90.220001 0.000000 -2.780000
v  102.839996 0.000000 -2.780000
v  90.220001 0.000000 -14.480000
v  102.839996 0.000000 -14.480000
v  90.220001 0.000000 -35.720001
v  102.839996 0.000000 -35.720001
v  100.779999 52.900002 39.580002
v  100.779999 91.959999 39.580002
v  36.240002 93.580002 0.000000
v  97.959999 93.580002 0.000000
v  100.779999 22.420000 39.580002
v  100.779999 22.420000 -39.599998
v  102.099998 18.820000 0.000000
v  100.779999 18.820000 0.000000
v  96.080002 14.380000 39.580002
v  96.080002 22.420000 -39.599998
v  96.080002 22.420000 39.580002
v  102.099998 14.380000 40.500000
v  102.099998 22.420000 40.500000
v  102.099998 22.420000 -40.520000
v  96.080002 14.380000 40.500000
v  96.080002 22.420000 -40.520000
v  96.080002 22.420000 40.500000
v  103.639999 14.380000 39.580002
v  103.639999 22.420000 39.580002
v  103.639999 22.420000 -39.599998
v  103.639999 18.820000 14.380000
v  103.639999 18.820000 -14.400000
v  100.779999 22.420000 17.980000
v  100.779999 22.420000 -18.000000
v  102.099998 22.420000 -18.000000
v  103.639999 22.420000 -14.400000
v  103.639999 22.420000 14.380000
v  102.099998 22.420000 17.980000
v  100.779999 18.820000 17.980000
v  100.779999 18.820000 -18.000000
v  97.959999 93.580002 36.619999
v  97.959999 93.580002 -36.639999
v  102.099998 18.820000 17.980000
v  102.099998 18.820000 -18.000000
v  -28.719999 52.900002 39.580002
v  -28.719999 91.959999 39.580002
v  103.639999 18.820000 0.000000
v  -28.719999 30.580000 39.580002
v  36.240002 52.900002 39.580002
v  15.260000 14.380000 39.580002
v  36.240002 30.580000 39.580002
v  100.779999 30.580000 39.580002
v  63.240002 30.580000 39.580002
v  48.840000 30.580000 39.580002
v  39.840000 14.380000 39.580002
v  72.239998 14.380000 39.580002
v  39.840000 21.580000 39.580002
v  72.239998 21.580000 39.580002
v  63.240002 30.580000 19.620001
v  48.840000 30.580000 19.620001
v  39.840000 14.380000 19.620001
v  72.239998 14.380000 19.620001
v  39.840000 21.580000 19.620001
v  72.239998 21.580000 19.620001
v  11.420000 9.360000 39.580002
v  -28.740000 9.360000 39.580002
v  36.240002 93.580002 -36.320000
v  36.240002 93.580002 36.299999
v  36.240002 91.959999 39.580002
v  -28.719999 93.580002 -36.320000
v  -28.719999 93.580002 36.299999
v  100.779999 91.959999 -39.599998
v  103.639999 14.340000 -39.580002
v  103.639999 14.360000 0.000000
v  100.779999 57.200001 -39.599998
v  -30.920000 0.000000 -35.619999
v  102.839996 0.000000 -25.100000
v  90.220001 0.000000 -25.100000
v  -30.920000 0.000000 -7.700000
v  -30.920000 0.000000 -21.660000
v  -30.920000 0.000000 6.240000
v  -30.920000 0.000000 -28.639999
v  34.619999 0.000000 7.560000
v  62.220001 0.000000 8.220000
v  -8.660000 0.000000 6.900000
v  34.619999 0.000000 -5.240000
v  -8.660000 0.000000 -6.480000
v  62.220001 0.000000 -4.020000
v  34.619999 0.000000 -18.059999
v  62.220001 0.000000 -16.260000
v  -8.660000 0.000000 -19.860001
v  34.619999 0.000000 -26.860001
v  -8.660000 0.000000 -27.760000
v  62.220001 0.000000 -25.980000
v  34.619999 0.000000 -35.660000
v  62.220001 0.000000 -35.700001
v  -8.660000 0.000000 -35.639999
# 107 vertices

vt  0.988281 0.043137
vt  0.980469 0.043137
vt  0.988281 0.039216
vt  0.980469 0.039216
vt  0.988281 0.039216
vt  0.980469 0.043137
vt  0.906250 0.815686
vt  0.453125 0.815686
vt  0.906250 0.462745
vt  0.000000 0.847059
vt  0.453125 0.917647
vt  0.000000 0.988235
vt  0.453125 0.988235
vt  0.000000 0.988235
vt  0.453125 0.917647
vt  0.703125 0.192157
vt  0.875000 0.200000
vt  0.640625 0.270588
vt  0.402344 0.278431
vt  0.007813 0.278431
vt  0.273438 0.125490
vt  0.281250 0.270588
vt  0.183594 0.270588
vt  0.210938 0.188235
vt  0.000000 0.462745
vt  0.000000 0.270588
vt  0.453125 0.462745
vt  0.453125 0.462745
vt  0.453125 0.815686
vt  0.000000 0.462745
vt  0.906250 0.270588
vt  0.906250 0.462745
vt  0.640625 0.270588
vt  0.453125 0.270588
vt  0.542969 0.270588
vt  0.453125 0.462745
vt  0.890625 0.992157
vt  0.453125 0.988235
vt  0.890625 0.917647
vt  0.453125 0.917647
vt  0.453125 0.847059
vt  0.890625 0.917647
vt  0.453125 0.917647
vt  0.890625 0.917647
vt  0.453125 0.988235
vt  0.453125 0.847059
vt  0.453125 0.917647
vt  0.000000 0.847059
vt  0.890625 0.847059
vt  0.890625 0.917647
vt  0.453125 0.847059
vt  0.250000 0.074510
vt  0.273438 0.125490
vt  0.007813 0.074510
vt  0.453125 0.462745
vt  0.906250 0.462745
vt  0.453125 0.815686
vt  0.000000 0.815686
vt  0.000000 0.462745
vt  0.453125 0.815686
vt  0.453125 0.270588
vt  0.453125 0.462745
vt  0.000000 0.270588
vt  0.007813 0.278431
vt  0.007813 0.074510
vt  0.273438 0.125490
vt  0.914063 0.996078
vt  0.890625 0.992157
vt  0.890625 0.917647
vt  0.257813 0.160784
vt  0.179688 0.160784
vt  0.257813 0.192157
vt  0.347656 0.192157
vt  0.257813 0.192157
vt  0.347656 0.266667
vt  0.347656 0.815686
vt  0.347656 0.466667
vt  0.011719 0.815686
vt  0.011719 0.815686
vt  0.347656 0.466667
vt  0.011719 0.498039
vt  0.257813 0.192157
vt  0.105469 0.192157
vt  0.347656 0.266667
vt  0.105469 0.160784
vt  0.105469 0.192157
vt  0.179688 0.160784
vt  0.257813 0.192157
vt  0.179688 0.160784
vt  0.105469 0.192157
vt  0.011719 0.192157
vt  0.011719 0.498039
vt  0.347656 0.466667
vt  0.910156 0.039216
vt  0.910156 0.043137
vt  0.921875 0.039216
vt  0.921875 0.043137
vt  0.949219 0.039216
vt  0.921875 0.039216
vt  0.949219 0.043137
vt  0.921875 0.043137
vt  0.964844 0.039216
vt  0.949219 0.039216
vt  0.964844 0.043137
vt  0.949219 0.043137
vt  0.980469 0.039216
vt  0.964844 0.039216
vt  0.980469 0.043137
vt  0.964844 0.043137
vt  0.988281 0.054902
vt  0.988281 0.054902
vt  0.980469 0.054902
vt  0.980469 0.054902
vt  0.988281 0.047059
vt  0.980469 0.047059
vt  0.988281 0.050980
vt  0.980469 0.050980
vt  0.988281 0.047059
vt  0.980469 0.047059
vt  0.988281 0.047059
vt  0.980469 0.047059
vt  0.988281 0.043137
vt  0.980469 0.043137
vt  0.988281 0.047059
vt  0.980469 0.047059
vt  0.464844 0.839216
vt  0.464844 0.847059
vt  0.921875 0.839216
vt  0.902344 0.847059
vt  0.453125 0.843137
vt  0.000000 0.843137
vt  0.453125 0.847059
vt  0.000000 0.847059
vt  0.800781 0.011765
vt  0.773438 0.011765
vt  0.804688 0.015686
vt  0.773438 0.015686
vt  0.140625 0.003922
vt  0.140625 0.003922
vt  0.140625 0.003922
vt  0.140625 0.003922
vt  0.125000 0.003922
vt  0.125000 0.003922
vt  0.125000 0.003922
vt  0.125000 0.003922
vt  0.691406 0.007843
vt  0.691406 0.000000
vt  0.691406 0.007843
vt  0.691406 0.000000
vt  0.613281 0.000000
vt  0.613281 0.007843
vt  0.613281 0.000000
vt  0.613281 0.007843
vt  0.773438 0.011765
vt  0.757813 0.011765
vt  0.773438 0.011765
vt  0.757813 0.011765
vt  0.613281 0.007843
vt  0.636719 0.019608
vt  0.613281 0.007843
vt  0.636719 0.019608
vt  0.636719 0.019608
vt  0.671875 0.019608
vt  0.636719 0.019608
vt  0.671875 0.019608
vt  0.671875 0.019608
vt  0.691406 0.007843
vt  0.671875 0.019608
vt  0.691406 0.007843
vt  0.757813 0.015686
vt  0.773438 0.015686
vt  0.757813 0.011765
vt  0.773438 0.011765
vt  0.773438 0.019608
vt  0.804688 0.019608
vt  0.773438 0.015686
vt  0.804688 0.015686
vt  0.906250 0.200000
vt  0.875000 0.200000
vt  0.906250 0.270588
vt  0.640625 0.270588
vt  0.640625 0.270588
vt  0.542969 0.270588
vt  0.906250 0.462745
vt  0.453125 0.462745
vt  0.929688 0.117647
vt  0.851563 0.117647
vt  0.929688 0.203922
vt  0.851563 0.203922
vt  0.703125 0.125490
vt  0.703125 0.192157
vt  0.875000 0.125490
vt  0.875000 0.200000
vt  0.386719 0.125490
vt  0.156250 0.125490
vt  0.386719 0.192157
vt  0.351563 0.278431
vt  0.929688 0.203922
vt  0.945313 0.203922
vt  0.929688 0.117647
vt  0.945313 0.117647
vt  0.746094 0.015686
vt  0.773438 0.015686
vt  0.750000 0.011765
vt  0.773438 0.011765
vt  0.718750 0.011765
vt  0.734375 0.011765
vt  0.718750 0.011765
vt  0.738281 0.011765
vt  0.773438 0.015686
vt  0.773438 0.015686
vt  0.773438 0.011765
vt  0.773438 0.015686
vt  0.718750 0.015686
vt  0.718750 0.015686
vt  0.718750 0.015686
vt  0.718750 0.011765
vt  0.875000 0.125490
vt  0.875000 0.200000
vt  0.875000 0.125490
vt  0.875000 0.200000
vt  0.746094 0.019608
vt  0.773438 0.019608
vt  0.746094 0.015686
vt  0.773438 0.015686
vt  0.125000 0.003922
vt  0.125000 0.003922
vt  0.125000 0.003922
vt  0.125000 0.003922
vt  0.140625 0.003922
vt  0.140625 0.003922
vt  0.140625 0.003922
vt  0.140625 0.003922
vt  0.902344 0.858824
vt  0.902344 0.929412
vt  0.917969 0.854902
vt  0.917969 1.000000
vt  0.718750 0.015686
vt  0.734375 0.015686
vt  0.718750 0.011765
vt  0.734375 0.011765
vt  0.636719 0.019608
vt  0.671875 0.019608
vt  0.613281 0.007843
vt  0.691406 0.007843
vt  0.613281 0.000000
vt  0.613281 0.007843
vt  0.691406 0.000000
vt  0.691406 0.007843
vt  0.347656 0.266667
vt  0.347656 0.466667
vt  0.105469 0.192157
vt  0.011719 0.192157
vt  0.691406 0.066667
vt  0.691406 0.086275
vt  0.781250 0.074510
vt  0.781250 0.086275
vt  0.835938 0.066667
vt  0.691406 0.066667
vt  0.839844 0.074510
vt  0.781250 0.074510
vt  0.984375 0.066667
vt  0.890625 0.074510
vt  0.984375 0.086275
vt  0.890625 0.086275
vt  0.839844 0.074510
vt  0.890625 0.074510
vt  0.835938 0.066667
vt  0.984375 0.066667
vt  0.921875 0.054902
vt  0.910156 0.054902
vt  0.921875 0.054902
vt  0.910156 0.054902
vt  0.980469 0.050980
vt  0.980469 0.054902
vt  0.988281 0.050980
vt  0.988281 0.054902
vt  0.964844 0.043137
vt  0.964844 0.047059
vt  0.980469 0.043137
vt  0.980469 0.047059
vt  0.921875 0.054902
vt  0.921875 0.050980
vt  0.910156 0.054902
vt  0.910156 0.054902
vt  0.921875 0.050980
vt  0.921875 0.050980
vt  0.910156 0.054902
vt  0.910156 0.050980
vt  0.921875 0.050980
vt  0.921875 0.047059
vt  0.910156 0.050980
vt  0.910156 0.047059
vt  0.964844 0.054902
vt  0.964844 0.054902
vt  0.980469 0.054902
vt  0.980469 0.054902
vt  0.964844 0.050980
vt  0.964844 0.054902
vt  0.980469 0.050980
vt  0.980469 0.054902
vt  0.964844 0.047059
vt  0.964844 0.050980
vt  0.980469 0.047059
vt  0.980469 0.050980
vt  0.964844 0.047059
vt  0.964844 0.047059
vt  0.980469 0.047059
vt  0.980469 0.047059
vt  0.921875 0.047059
vt  0.921875 0.043137
vt  0.910156 0.047059
vt  0.910156 0.043137
vt  0.964844 0.043137
vt  0.949219 0.043137
vt  0.964844 0.047059
vt  0.949219 0.047059
vt  0.949219 0.047059
vt  0.949219 0.047059
vt  0.964844 0.047059
vt  0.964844 0.047059
vt  0.964844 0.047059
vt  0.949219 0.047059
vt  0.964844 0.050980
vt  0.949219 0.050980
vt  0.964844 0.050980
vt  0.949219 0.050980
vt  0.964844 0.054902
vt  0.949219 0.054902
vt  0.964844 0.054902
vt  0.949219 0.054902
vt  0.964844 0.054902
vt  0.949219 0.054902
vt  0.949219 0.054902
vt  0.921875 0.054902
vt  0.949219 0.054902
vt  0.921875 0.054902
vt  0.921875 0.050980
vt  0.921875 0.054902
vt  0.949219 0.050980
vt  0.949219 0.054902
vt  0.949219 0.047059
vt  0.921875 0.050980
vt  0.949219 0.050980
vt  0.921875 0.050980
vt  0.949219 0.047059
vt  0.921875 0.047059
vt  0.949219 0.047059
vt  0.921875 0.050980
vt  0.949219 0.043137
vt  0.921875 0.043137
vt  0.949219 0.047059
vt  0.921875 0.047059
# 288 texture coordinates

vn  0.000000 0.957514 0.000000
vn  0.000000 0.957514 0.000000
vn  0.000000 0.957514 0.000000
vn  0.000000 0.957514 0.000000
vn  0.000000 0.957514 0.000000
vn  0.000000 0.957514 0.000000
vn  0.000000 0.957514 0.000000
vn  0.000000 0.957514 0.000000
vn  0.000000 0.957514 0.000000
vn  0.000000 0.957514 0.000000
vn  0.000000 0.957514 0.000000
vn  0.000000 0.957514 0.000000
vn  0.000000 0.957514 0.000000
vn  0.000000 0.957514 0.000000
vn  0.000000 0.957514 0.000000
vn  0.000000 0.957514 0.000000
vn  0.000000 0.957514 0.000000
vn  0.000000 0.957514 0.000000
vn  0.000000 0.957514 0.000000
vn  0.000000 0.957514 0.000000
vn  0.000000 0.957514 0.000000
vn  0.000000 0.957514 0.000000
vn  0.000000 0.329693 0.898824
vn  0.000000 0.941614 0.173732
vn  0.204363 0.723923 0.592279
vn  0.167653 0.930858 0.148947
vn  0.000000 0.505296 0.813244
vn  0.000000 0.946524 0.144504
vn  0.000000 0.957514 0.000000
vn  0.000000 0.957514 0.000000
vn  0.000000 0.957514 0.000000
vn  0.000000 0.957514 0.000000
vn  -0.527743 0.000000 0.798980
vn  -0.527743 0.000000 0.798980
vn  -0.880585 0.000000 0.376225
vn  -0.880585 0.000000 0.376225
vn  0.000000 0.000000 0.957514
vn  0.000000 0.957514 0.000000
vn  0.000000 0.957514 0.000000
vn  0.000000 0.957514 0.000000
vn  -0.527743 0.000000 -0.799214
vn  -0.527743 0.000000 -0.799214
vn  0.000000 0.000000 -0.957748
vn  0.000000 0.000000 -0.957748
vn  0.000000 0.000000 0.957514
vn  0.000000 0.000000 0.957514
vn  0.000000 0.000000 0.957514
vn  0.000000 0.000000 0.957514
vn  0.000000 0.000000 0.957514
vn  0.000000 0.000000 0.957514
vn  -0.957748 0.000000 0.000000
vn  -0.957748 0.000000 0.000000
vn  -0.884794 -0.366404 0.000000
vn  -0.884794 -0.366404 0.000000
vn  0.000000 0.000000 0.957514
vn  0.000000 0.000000 0.957514
vn  0.884561 -0.366404 0.000000
vn  0.884561 -0.366404 0.000000
vn  0.957514 0.000000 0.000000
vn  0.957514 0.000000 0.000000
vn  0.000000 0.957514 0.000000
vn  0.000000 0.957514 0.000000
vn  0.000000 0.957514 0.000000
vn  0.000000 0.957514 0.000000
vn  0.366170 -0.884794 0.000000
vn  0.366170 -0.884794 0.000000
vn  -0.366404 -0.884794 0.000000
vn  -0.366404 -0.884794 0.000000
vn  0.000000 0.000000 0.957514
vn  0.000000 0.000000 0.957514
vn  0.000000 0.000000 0.957514
vn  0.000000 0.957514 0.000000
vn  0.000000 0.957514 0.000000
vn  0.000000 0.957514 0.000000
vn  0.000000 0.957514 0.000000
vn  0.000000 0.000000 0.957514
vn  0.000000 0.000000 0.957514
vn  0.000000 0.000000 0.957514
vn  0.255103 0.000000 0.922908
vn  0.255103 0.000000 0.922908
vn  0.163678 0.943251 0.000000
vn  0.246686 0.925012 0.000000
vn  0.000000 0.000000 0.957514
vn  0.000000 0.000000 0.957514
vn  0.000000 0.000000 0.957514
vn  0.833119 0.000000 0.471859
vn  0.906072 0.000000 0.309117
vn  0.000000 0.957514 0.000000
vn  0.000000 0.957514 0.000000
vn  0.000000 0.957514 0.000000
vn  0.000000 0.957514 0.000000
vn  0.000000 0.957514 0.000000
vn  0.000000 0.957514 0.000000
vn  0.000000 0.957514 0.000000
vn  0.000000 0.957514 0.000000
vn  0.000000 0.957514 0.000000
vn  -0.677158 0.676924 0.000000
vn  -0.677158 0.676924 0.000000
vn  -0.957748 0.000000 0.000000
vn  -0.957748 0.000000 0.000000
vn  0.000000 0.957514 0.000000
vn  -0.880585 0.000000 -0.376458
vn  -0.880585 0.000000 -0.376458
vn  0.000000 0.000000 0.957514
vn  0.000000 0.000000 0.957514
vn  0.828676 0.479342 0.000000
vn  0.000000 0.957514 0.000000
vn  0.000000 0.000000 0.957514
vn  0.000000 0.000000 0.957514
vn  0.000000 0.000000 0.957514
vn  0.000000 0.000000 0.957514
vn  0.000000 0.000000 0.957514
vn  0.000000 0.000000 0.957514
vn  0.000000 0.000000 0.957514
vn  0.000000 0.000000 0.957514
vn  0.957514 0.000000 0.000000
vn  0.957514 0.000000 0.000000
vn  0.957514 0.000000 0.000000
vn  0.957514 0.000000 0.000000
vn  0.957514 0.000000 0.000000
vn  0.957514 0.000000 0.000000
vn  0.957514 0.000000 0.000000
vn  0.957514 0.000000 0.000000
vn  0.957514 0.000000 0.000000
vn  0.957514 0.000000 0.000000
vn  0.957514 0.000000 0.000000
vn  0.957514 0.000000 0.000000
vn  0.957514 0.000000 0.000000
vn  0.957514 0.000000 0.000000
vn  0.957514 0.000000 0.000000
vn  0.957514 0.000000 0.000000
vn  0.957514 0.000000 0.000000
vn  0.957514 0.000000 0.000000
vn  0.957514 0.000000 0.000000
vn  0.000000 0.957514 0.000000
vn  0.000000 0.957514 0.000000
vn  0.000000 0.957514 0.000000
vn  0.000000 0.957514 0.000000
vn  0.000000 0.957514 0.000000
vn  0.000000 0.957514 0.000000
vn  0.000000 0.957514 0.000000
vn  0.000000 0.957514 0.000000
vn  0.000000 0.957514 0.000000
vn  0.000000 0.957514 0.000000
vn  0.000000 0.957514 0.000000
vn  0.000000 0.957514 0.000000
vn  0.000000 0.957514 0.000000
vn  0.000000 0.957514 0.000000
vn  0.000000 0.957514 0.000000
vn  0.000000 0.957514 0.000000
vn  0.000000 0.957514 0.000000
vn  0.000000 0.957514 0.000000
vn  0.000000 0.957514 0.000000
vn  0.000000 0.957514 0.000000
# 154 vertex normals

g Object_0
s 1
f 12/1/12 11/2/10 6/3/11
f 5/4/9 6/5/11 11/6/10
f 22/7/25 79/8/23 21/9/37
f 81/10/28 23/11/39 80/12/38
f 77/13/40 80/14/38 23/15/39
f 68/16/47 31/17/46 63/18/45
f 61/19/50 58/20/49 60/21/48
f 64/22/56 61/23/50 67/24/55
f 55/25/70 58/26/49 59/27/69
f 59/28/69 79/29/23 55/30/70
f 62/31/71 21/32/37 63/33/45
f 61/34/50 64/35/56 59/36/69
f 52/37/82 77/38/40 24/39/81
f 23/40/39 78/41/24 24/42/81
f 23/43/39 24/44/81 77/45/40
f 78/46/24 23/47/39 81/48/28
f 51/49/26 24/50/81 78/51/24
f 75/52/115 60/53/48 76/54/114
f 59/55/69 21/56/37 79/57/23
f 56/58/27 55/59/70 79/60/23
f 61/61/50 59/62/69 58/63/49
f 58/64/49 76/65/114 60/66/48
f 82/67/106 52/68/82 24/69/81
f 49/70/118 28/71/117 43/72/116
f 25/73/120 43/74/116 62/75/119
f 22/76/122 21/77/121 82/78/106
f 82/79/106 21/80/121 85/81/123
f 43/82/116 44/83/124 62/84/119
f 50/85/134 44/86/124 28/87/117
f 43/88/116 28/89/117 44/90/124
f 26/91/125 85/92/123 21/93/121
f 7/95/1 1/94/3 2/96/4 8/97/2
f 2/99/4 3/98/5 9/100/6 8/101/2
f 3/103/5 4/102/7 10/104/8 9/105/6
f 4/107/7 5/106/9 11/108/10 10/109/8
f 87/111/13 20/110/15 19/112/16 88/113/14
f 15/115/17 16/114/19 18/116/20 17/117/18
f 13/119/21 14/118/22 16/120/19 15/121/17
f 11/123/10 12/122/12 14/124/22 13/125/21
f 78/127/24 79/126/23 22/128/25 51/129/26
f 56/131/27 79/130/23 78/132/24 81/133/28
f 57/135/29 42/134/31 54/136/32 27/137/30
f 54/139/33 42/138/35 46/140/36 45/141/34
f 53/143/41 49/142/43 43/144/44 48/145/42
f 66/147/51 68/146/53 74/148/54 72/149/52
f 67/151/57 65/150/59 71/152/60 73/153/58
f 46/155/61 40/154/63 34/156/64 45/157/62
f 64/159/65 67/158/57 73/160/58 70/161/66
f 63/163/67 64/162/65 70/164/66 69/165/68
f 68/167/53 63/166/67 69/168/68 74/169/54
f 26/171/73 44/170/72 45/172/62 34/173/64
f 50/175/75 28/174/74 27/176/30 54/177/32
f 31/179/46 25/178/76 62/180/71 63/181/45
f 64/183/56 63/182/45 21/184/37 59/185/69
f 35/187/77 32/186/79 33/188/80 37/189/78
f 68/191/47 66/190/83 29/192/84 31/193/46
f 60/195/48 65/194/85 67/196/55 61/197/50
f 39/199/86 33/198/80 32/200/79 38/201/87
f 27/203/30 53/202/88 41/204/89 57/205/29
f 48/207/90 33/206/92 39/208/93 47/209/91
f 30/211/94 26/210/73 34/212/64 36/213/95
f 25/215/96 31/214/97 37/216/98 33/217/92
f 31/219/97 29/218/99 35/220/100 37/221/98
f 28/223/74 49/222/101 53/224/88 27/225/30
f 48/227/42 47/226/102 41/228/103 53/229/41
f 45/231/34 44/230/104 50/232/105 54/233/33
f 24/235/81 51/234/26 22/236/25 82/237/106
f 43/239/107 25/238/96 33/240/92 48/241/90
f 69/243/109 70/242/108 73/244/110 74/245/111
f 73/247/110 71/246/112 72/248/113 74/249/111
f 21/251/121 62/250/119 44/252/124 26/253/125
f 39/255/86 38/254/87 41/256/127 47/257/126
f 38/259/87 84/258/129 57/260/128 41/261/127
f 42/263/131 83/262/130 40/264/132 46/265/133
f 42/267/131 57/266/128 84/268/129 83/269/130
f 92/271/138 103/270/136 107/272/135 86/273/137
f 88/275/14 17/274/18 18/276/20 87/277/13
f 94/279/139 10/278/8 11/280/10 13/281/21
f 101/283/140 103/282/136 92/284/138 90/285/141
f 97/287/142 101/286/140 90/288/141 89/289/143
f 95/291/144 97/290/142 89/292/143 91/293/145
f 106/295/147 104/294/146 88/296/14 19/297/16
f 104/299/146 100/298/148 17/300/18 88/301/14
f 100/303/148 98/302/149 15/304/17 17/305/18
f 98/307/149 94/306/139 13/308/21 15/309/17
f 8/311/2 95/310/144 91/312/145 7/313/1
f 9/315/6 10/314/8 94/316/139 93/317/150
f 96/319/151 93/318/150 94/320/139 98/321/149
f 96/323/151 98/322/149 100/324/148 99/325/152
f 99/327/152 100/326/148 104/328/146 102/329/153
f 102/331/153 104/330/146 106/332/147 105/333/154
f 103/335/136 102/334/153 105/336/154 107/337/135
f 103/339/136 101/338/140 99/340/152 102/341/153
f 97/343/142 96/342/151 99/344/152 101/345/140
f 95/347/144 93/346/150 96/348/151 97/349/142
f 8/351/2 9/350/6 93/352/150 95/353/144
# 96 faces

g
