# Wavefront OBJ exported by RE2MV
#
# object Object_0 to come ...
#
v  -3.780000 -0.260000 2.720000
v  3.760000 -0.260000 2.720000
v  -3.780000 0.240000 2.720000
v  3.760000 0.240000 2.720000
v  -3.780000 -0.260000 -2.740000
v  3.760000 -0.260000 -2.740000
v  -3.780000 0.240000 -2.740000
v  3.760000 0.240000 -2.740000
# 8 vertices

vt  0.070313 0.776471
vt  0.070313 1.000000
vt  0.070313 0.776471
vt  0.070313 1.000000
vt  0.437500 0.752941
vt  0.023438 0.752941
vt  0.437500 0.780392
vt  0.023438 0.780392
vt  0.593750 1.000000
vt  0.593750 0.776471
vt  0.460938 1.000000
vt  0.460938 0.776471
vt  0.437500 0.752941
vt  0.023438 0.752941
vt  0.437500 0.780392
vt  0.023438 0.780392
vt  0.570313 0.776471
vt  0.570313 1.000000
vt  0.984375 0.776471
vt  0.984375 1.000000
vt  0.070313 0.776471
vt  0.070313 1.000000
vt  0.484375 0.776471
vt  0.484375 1.000000
# 18 texture coordinates

vn  0.000000 0.000000 0.957514
vn  0.957514 0.000000 0.000000
vn  0.000000 0.000000 -0.957748
vn  -0.957748 0.000000 0.000000
vn  0.000000 -0.957748 0.000000
vn  0.000000 0.957514 0.000000
# 6 vertex normals

g Object_0
s 1
f 1/2/1 2/1/1 4/3/1 3/4/1
f 2/6/2 6/5/2 8/7/2 4/8/2
f 6/10/3 5/9/3 7/11/3 8/12/3
f 5/14/4 1/13/4 3/15/4 7/16/4
f 5/18/5 6/17/5 2/19/5 1/20/5
f 3/22/6 4/21/6 8/23/6 7/24/6
# 6 faces

g
