# Wavefront OBJ exported by RE2MV
#
# object Object_0 to come ...
#
v  -68.400002 41.380001 46.020000
v  -68.400002 41.380001 57.580002
v  -62.459999 0.000000 57.580002
v  -62.459999 0.000000 46.020000
v  -70.199997 0.000000 57.580002
v  -70.199997 0.000000 46.020000
v  -62.459999 36.340000 57.580002
v  -62.459999 36.340000 46.020000
v  -70.199997 41.380001 57.580002
v  -70.199997 41.380001 46.020000
v  -72.000000 -21.600000 61.180000
v  0.000000 -21.600000 61.180000
v  -72.000000 0.000000 61.180000
v  0.000000 0.000000 61.180000
v  -72.000000 -7.200000 0.000000
v  0.000000 -7.200000 0.000000
v  -72.000000 0.000000 0.000000
v  0.000000 0.000000 0.000000
v  -54.000000 0.000000 61.180000
v  -36.000000 0.000000 61.180000
v  -18.000000 -7.200000 0.000000
v  -36.000000 -7.200000 0.000000
v  -18.000000 0.000000 0.000000
v  -54.000000 0.000000 0.000000
v  -36.000000 0.000000 0.000000
v  -18.000000 -21.600000 61.180000
v  -36.000000 -21.600000 61.180000
v  -54.000000 -21.600000 61.180000
v  -18.000000 0.000000 61.180000
v  -54.000000 -7.200000 0.000000
v  -72.000000 -7.200000 30.580000
v  -72.000000 -21.600000 45.880001
v  -72.000000 -7.200000 15.280000
v  -54.000000 0.000000 30.580000
v  -72.000000 0.000000 30.580000
v  -72.000000 0.000000 45.880001
v  -72.000000 0.000000 15.280000
v  -54.000000 0.000000 15.280000
v  -54.000000 0.000000 45.880001
v  -36.000000 0.000000 30.580000
v  -36.000000 0.000000 45.880001
v  -36.000000 0.000000 15.280000
v  -18.000000 0.000000 30.580000
v  -18.000000 0.000000 45.880001
v  -18.000000 0.000000 15.280000
v  0.000000 0.000000 30.580000
v  0.000000 0.000000 45.880001
v  0.000000 0.000000 15.280000
v  0.000000 -7.200000 30.580000
v  0.000000 -21.600000 45.880001
v  0.000000 -7.200000 15.280000
v  -18.000000 -7.200000 30.580000
v  -18.000000 -21.600000 45.880001
v  -18.000000 -7.200000 15.280000
v  -54.000000 -7.200000 30.580000
v  -54.000000 -21.600000 45.880001
v  -54.000000 -7.200000 15.280000
v  -36.000000 -7.200000 30.580000
v  -36.000000 -21.600000 45.880001
v  -36.000000 -7.200000 15.280000
v  -62.459999 34.360001 46.020000
v  -70.199997 34.360001 46.020000
v  -62.459999 34.360001 57.580002
v  -70.199997 34.360001 57.580002
# 64 vertices

vt  0.023438 0.066667
vt  0.054688 0.066667
vt  0.023438 0.000000
vt  0.023438 0.066667
vt  0.023438 0.000000
vt  0.054688 0.066667
vt  0.812500 0.207843
vt  0.320313 0.207843
vt  0.812500 0.282353
vt  0.320313 0.282353
vt  0.445313 0.000000
vt  0.296875 0.000000
vt  0.445313 0.117647
vt  0.296875 0.117647
vt  0.812500 0.282353
vt  0.320313 0.282353
vt  0.812500 0.207843
vt  0.320313 0.207843
vt  0.453125 0.117647
vt  0.492188 0.117647
vt  0.453125 0.003922
vt  0.492188 0.003922
vt  0.226563 0.117647
vt  0.250000 0.117647
vt  0.226563 0.000000
vt  0.250000 0.000000
vt  0.992188 0.003922
vt  0.500000 0.003922
vt  0.992188 0.113725
vt  0.500000 0.113725
vt  0.812500 0.423529
vt  0.601563 0.423529
vt  0.812500 0.482353
vt  0.601563 0.482353
vt  0.992188 0.419608
vt  0.742188 0.419608
vt  0.992188 0.478431
vt  0.742188 0.478431
vt  0.148438 0.478431
vt  0.351563 0.478431
vt  0.148438 0.419608
vt  0.351563 0.419608
vt  0.937500 0.290196
vt  0.937500 0.211765
vt  0.710938 0.290196
vt  0.710938 0.211765
vt  0.992188 1.000000
vt  0.992188 0.878431
vt  0.742188 1.000000
vt  0.742188 0.878431
vt  0.000000 0.478431
vt  0.250000 0.478431
vt  0.000000 0.419608
vt  0.250000 0.419608
vt  0.000000 0.513725
vt  0.000000 0.639216
vt  0.250000 0.513725
vt  0.250000 0.639216
vt  0.070313 0.145098
vt  0.070313 0.223529
vt  0.296875 0.145098
vt  0.296875 0.223529
vt  0.250000 0.478431
vt  0.492188 0.478431
vt  0.250000 0.419608
vt  0.492188 0.419608
vt  0.250000 0.513725
vt  0.250000 0.639216
vt  0.492188 0.513725
vt  0.492188 0.639216
vt  0.296875 0.145098
vt  0.296875 0.223529
vt  0.515625 0.145098
vt  0.515625 0.223529
vt  0.492188 0.478431
vt  0.742188 0.478431
vt  0.492188 0.419608
vt  0.742188 0.419608
vt  0.492188 0.513725
vt  0.492188 0.639216
vt  0.742188 0.513725
vt  0.742188 0.639216
vt  0.515625 0.145098
vt  0.515625 0.223529
vt  0.742188 0.145098
vt  0.742188 0.223529
vt  0.992188 0.305882
vt  0.781250 0.305882
vt  0.992188 0.478431
vt  0.781250 0.478431
vt  0.742188 0.513725
vt  0.742188 0.639216
vt  0.992188 0.513725
vt  0.992188 0.639216
vt  0.742188 1.000000
vt  0.742188 0.878431
vt  0.492188 1.000000
vt  0.492188 0.878431
vt  0.492188 1.000000
vt  0.492188 0.878431
vt  0.250000 1.000000
vt  0.250000 0.878431
vt  0.250000 1.000000
vt  0.250000 0.878431
vt  0.000000 1.000000
vt  0.000000 0.878431
vt  0.000000 0.482353
vt  0.203125 0.482353
vt  0.000000 0.317647
vt  0.203125 0.317647
vt  0.273438 0.290196
vt  0.273438 0.211765
vt  0.046875 0.290196
vt  0.046875 0.211765
vt  0.484375 0.290196
vt  0.484375 0.211765
vt  0.273438 0.290196
vt  0.273438 0.211765
vt  0.710938 0.290196
vt  0.710938 0.211765
vt  0.484375 0.290196
vt  0.484375 0.211765
vt  0.742188 0.145098
vt  0.742188 0.223529
vt  0.968750 0.145098
vt  0.968750 0.223529
vt  0.703125 0.309804
vt  0.703125 0.419608
vt  0.906250 0.309804
vt  0.906250 0.419608
vt  0.492188 0.309804
vt  0.492188 0.419608
vt  0.703125 0.309804
vt  0.703125 0.419608
vt  0.273438 0.309804
vt  0.273438 0.419608
vt  0.492188 0.309804
vt  0.492188 0.419608
vt  0.062500 0.309804
vt  0.062500 0.419608
vt  0.273438 0.309804
vt  0.273438 0.419608
vt  0.203125 0.482353
vt  0.398438 0.482353
vt  0.203125 0.317647
vt  0.398438 0.423529
vt  0.250000 0.878431
vt  0.250000 0.760784
vt  0.000000 0.878431
vt  0.000000 0.760784
vt  0.492188 0.878431
vt  0.492188 0.760784
vt  0.250000 0.878431
vt  0.250000 0.760784
vt  0.742188 0.878431
vt  0.742188 0.760784
vt  0.492188 0.878431
vt  0.492188 0.760784
vt  0.992188 0.878431
vt  0.992188 0.760784
vt  0.742188 0.878431
vt  0.742188 0.760784
vt  0.781250 0.305882
vt  0.562500 0.419608
vt  0.781250 0.478431
vt  0.562500 0.478431
vt  0.562500 0.419608
vt  0.351563 0.419608
vt  0.562500 0.478431
vt  0.351563 0.478431
vt  0.992188 0.760784
vt  0.992188 0.639216
vt  0.742188 0.760784
vt  0.742188 0.639216
vt  0.742188 0.760784
vt  0.742188 0.639216
vt  0.492188 0.760784
vt  0.492188 0.639216
vt  0.492188 0.760784
vt  0.492188 0.639216
vt  0.250000 0.760784
vt  0.250000 0.639216
vt  0.250000 0.760784
vt  0.250000 0.639216
vt  0.000000 0.760784
vt  0.000000 0.639216
vt  0.398438 0.482353
vt  0.601563 0.482353
vt  0.398438 0.423529
vt  0.601563 0.423529
vt  0.046875 0.129412
vt  0.046875 0.211765
vt  0.273438 0.129412
vt  0.273438 0.211765
vt  0.273438 0.129412
vt  0.273438 0.211765
vt  0.484375 0.129412
vt  0.484375 0.211765
vt  0.484375 0.129412
vt  0.484375 0.211765
vt  0.710938 0.129412
vt  0.710938 0.211765
vt  0.710938 0.129412
vt  0.710938 0.211765
vt  0.937500 0.129412
vt  0.937500 0.211765
vt  0.992188 0.003922
vt  0.500000 0.003922
vt  0.992188 0.117647
vt  0.500000 0.117647
vt  0.210938 0.117647
vt  0.343750 0.117647
vt  0.210938 0.003922
vt  0.343750 0.003922
vt  0.164063 0.019608
vt  0.054688 0.066667
vt  0.164063 0.000000
vt  0.023438 0.000000
vt  0.164063 0.000000
vt  0.023438 0.000000
vt  0.164063 0.019608
vt  0.054688 0.066667
# 168 texture coordinates

vn  -0.531251 0.000000 0.796642
vn  0.676924 0.000000 0.676924
vn  -0.677158 0.000000 0.676924
vn  0.676924 0.000000 0.676924
vn  0.225641 0.615194 0.697968
vn  0.225641 0.615194 -0.698202
vn  0.761101 0.352141 0.462038
vn  0.761101 0.352141 -0.462272
vn  0.676924 0.000000 -0.677158
vn  -0.531251 0.000000 -0.796876
vn  0.676924 0.000000 -0.677158
vn  -0.677158 0.000000 -0.677158
vn  -0.552996 0.552763 -0.552996
vn  -0.552996 0.552763 0.552763
vn  0.676924 -0.677158 0.000000
vn  0.676924 0.676924 0.000000
vn  0.552763 -0.552996 -0.552996
vn  0.552763 0.552763 -0.552996
vn  0.000000 -0.677158 -0.677158
vn  0.000000 0.676924 -0.677158
vn  -0.552996 -0.552996 -0.552996
vn  -0.552996 0.552763 -0.552996
vn  -0.677158 0.676924 0.000000
vn  -0.677158 -0.677158 0.000000
vn  0.000000 -0.957748 0.000000
vn  -0.677158 0.676924 0.000000
vn  0.000000 0.957514 0.000000
vn  -0.677158 0.676924 0.000000
vn  0.000000 0.957514 0.000000
vn  0.000000 0.676924 -0.677158
vn  0.000000 -0.677158 -0.677158
vn  0.000000 0.957514 0.000000
vn  0.701242 -0.606075 -0.240372
vn  0.000000 -0.890406 -0.353076
vn  0.676924 -0.677158 0.000000
vn  0.000000 -0.957748 0.000000
vn  0.000000 0.676924 -0.677158
vn  0.000000 -0.677158 -0.677158
vn  0.000000 0.957514 0.000000
vn  0.000000 -0.890406 -0.353076
vn  0.000000 -0.957748 0.000000
vn  0.000000 0.957514 0.000000
vn  0.000000 -0.890406 -0.353076
vn  0.000000 -0.957748 0.000000
vn  -0.701475 -0.606075 -0.240372
vn  -0.677158 -0.677158 0.000000
vn  0.000000 0.957514 0.000000
vn  0.000000 0.957514 0.000000
vn  0.000000 0.957514 0.000000
vn  0.000000 0.957514 0.000000
vn  0.676924 0.676924 0.000000
vn  0.676924 0.676924 0.000000
vn  0.000000 -0.957748 0.000000
vn  0.000000 -0.957748 0.000000
vn  0.000000 -0.890406 -0.353076
vn  -0.701475 -0.606075 -0.240372
vn  0.000000 -0.890406 -0.353076
vn  0.000000 -0.890406 -0.353076
vn  0.701242 -0.606075 -0.240372
vn  0.676924 0.676924 0.000000
vn  0.000000 0.957514 0.000000
vn  0.000000 0.957514 0.000000
vn  0.000000 0.957514 0.000000
vn  -0.677158 0.676924 0.000000
# 64 vertex normals

g Object_0
s 1
f 10/1/13 1/2/6 62/3/10
f 9/4/14 64/5/1 2/6/5
f 64/8/1 5/7/3 3/9/4 63/10/2
f 2/12/5 7/11/7 8/13/8 1/14/6
f 61/16/9 4/15/11 6/17/12 62/18/10
f 61/20/9 8/19/8 7/21/7 63/22/2
f 1/24/6 10/23/13 9/25/14 2/26/5
f 62/28/10 6/27/12 5/29/3 64/30/1
f 51/32/15 16/31/17 18/33/18 48/34/16
f 30/36/19 15/35/21 17/37/22 24/38/20
f 37/40/23 17/39/22 15/41/21 33/42/24
f 33/44/24 15/43/21 30/45/19 57/46/25
f 36/48/26 13/47/28 19/49/29 39/50/27
f 23/52/30 18/51/18 16/53/17 21/54/31
f 48/56/16 18/55/18 23/57/30 45/58/32
f 50/60/33 12/59/35 26/61/36 53/62/34
f 25/64/37 23/63/30 21/65/31 22/66/38
f 45/68/32 23/67/30 25/69/37 42/70/39
f 53/72/34 26/71/36 27/73/41 59/74/40
f 24/76/20 25/75/37 22/77/38 30/78/19
f 42/80/39 25/79/37 24/81/20 38/82/42
f 59/84/40 27/83/41 28/85/44 56/86/43
f 32/88/45 11/87/46 13/89/28 36/90/26
f 38/92/42 24/91/20 17/93/22 37/94/23
f 39/96/27 19/95/29 20/97/48 41/98/47
f 41/100/47 20/99/48 29/101/50 44/102/49
f 44/104/49 29/103/50 14/105/52 47/106/51
f 47/108/51 14/107/52 12/109/35 50/110/33
f 54/112/53 21/111/31 16/113/17 51/114/15
f 60/116/54 22/115/38 21/117/31 54/118/53
f 57/120/25 30/119/19 22/121/38 60/122/54
f 56/124/43 28/123/44 11/125/46 32/126/45
f 55/128/55 56/127/43 32/129/45 31/130/56
f 58/132/57 59/131/40 56/133/43 55/134/55
f 52/136/58 53/135/34 59/137/40 58/138/57
f 49/140/59 50/139/33 53/141/34 52/142/58
f 46/144/60 47/143/51 50/145/33 49/146/59
f 43/148/61 44/147/49 47/149/51 46/150/60
f 40/152/62 41/151/47 44/153/49 43/154/61
f 34/156/63 39/155/27 41/157/47 40/158/62
f 35/160/64 36/159/26 39/161/27 34/162/63
f 31/164/56 32/163/45 36/165/26 35/166/64
f 33/168/24 31/167/56 35/169/64 37/170/23
f 37/172/23 35/171/64 34/173/63 38/174/42
f 38/176/42 34/175/63 40/177/62 42/178/39
f 42/180/39 40/179/62 43/181/61 45/182/32
f 45/184/32 43/183/61 46/185/60 48/186/16
f 48/188/16 46/187/60 49/189/59 51/190/15
f 51/192/15 49/191/59 52/193/58 54/194/53
f 54/196/53 52/195/58 58/197/57 60/198/54
f 60/200/54 58/199/57 55/201/55 57/202/25
f 57/204/25 55/203/55 31/205/56 33/206/24
f 63/208/2 3/207/4 4/209/11 61/210/9
f 64/212/1 9/211/14 10/213/13 62/214/10
f 1/216/6 8/215/8 61/217/9 62/218/10
f 64/220/1 63/219/2 7/221/7 2/222/5
# 56 faces

g
