# Wavefront OBJ exported by RE2MV
#
# object Object_0 to come ...
#
v  1.520000 -0.060000 -1.260000
v  1.520000 0.040000 -1.260000
v  0.860000 -0.060000 -1.260000
v  0.860000 0.040000 -1.260000
v  0.280000 -0.060000 -0.920000
v  0.280000 0.040000 -0.920000
v  -0.040000 -0.060000 -0.340000
v  -0.040000 0.040000 -0.340000
v  -0.040000 -0.060000 0.320000
v  -0.040000 0.040000 0.320000
v  0.280000 -0.060000 0.900000
v  0.280000 0.040000 0.900000
v  0.860000 -0.060000 1.220000
v  0.860000 0.040000 1.220000
v  1.540000 -0.060000 1.220000
v  1.540000 0.040000 1.220000
v  2.120000 -0.060000 0.880000
v  2.120000 0.040000 0.880000
v  2.440000 -0.060000 0.300000
v  2.440000 0.040000 0.300000
v  2.440000 -0.060000 -0.340000
v  2.440000 0.040000 -0.340000
v  2.100000 -0.060000 -0.920000
v  2.100000 0.040000 -0.920000
v  2.240000 0.040000 -0.300000
v  2.240000 0.040000 0.240000
v  0.140000 0.040000 0.260000
v  0.140000 0.040000 -0.280000
v  0.440000 0.040000 0.740000
v  1.960000 0.040000 0.740000
v  0.420000 0.040000 -0.780000
v  1.960000 0.040000 -0.780000
v  1.480000 0.040000 1.020000
v  0.920000 0.040000 1.020000
v  0.920000 0.040000 -1.060000
v  1.480000 0.040000 -1.060000
# 36 vertices

vt  0.953125 0.580392
vt  0.953125 0.549020
vt  0.953125 0.580392
vt  0.953125 0.549020
vt  0.953125 0.549020
vt  0.828125 0.521569
vt  0.953125 0.549020
vt  0.828125 0.521569
vt  0.828125 0.607843
vt  0.953125 0.580392
vt  0.828125 0.607843
vt  0.953125 0.580392
vt  0.132813 0.521569
vt  0.000000 0.549020
vt  0.132813 0.521569
vt  0.000000 0.549020
vt  0.828125 0.521569
vt  0.601563 0.505882
vt  0.828125 0.521569
vt  0.601563 0.505882
vt  0.601563 0.619608
vt  0.828125 0.607843
vt  0.601563 0.619608
vt  0.828125 0.607843
vt  0.343750 0.505882
vt  0.132813 0.521569
vt  0.343750 0.505882
vt  0.132813 0.521569
vt  0.000000 0.580392
vt  0.132813 0.607843
vt  0.000000 0.580392
vt  0.132813 0.607843
vt  0.343750 0.619608
vt  0.601563 0.619608
vt  0.343750 0.619608
vt  0.601563 0.619608
vt  0.601563 0.505882
vt  0.343750 0.505882
vt  0.601563 0.505882
vt  0.343750 0.505882
vt  0.000000 0.549020
vt  0.000000 0.580392
vt  0.000000 0.549020
vt  0.000000 0.580392
vt  0.132813 0.607843
vt  0.343750 0.619608
vt  0.132813 0.607843
vt  0.343750 0.619608
vt  0.593750 1.000000
vt  0.804688 0.952941
vt  0.343750 1.000000
vt  0.125000 0.952941
vt  0.000000 0.549020
vt  0.132813 0.521569
vt  0.000000 0.580392
vt  0.132813 0.607843
vt  0.351563 0.623529
vt  0.125000 0.674510
vt  0.593750 0.623529
vt  0.812500 0.674510
vt  0.953125 0.580392
vt  0.828125 0.607843
vt  0.953125 0.549020
vt  0.828125 0.521569
vt  0.804688 0.952941
vt  0.929688 0.862745
vt  0.125000 0.952941
vt  0.000000 0.862745
vt  0.828125 0.607843
vt  0.601563 0.619608
vt  0.828125 0.521569
vt  0.601563 0.505882
vt  0.929688 0.862745
vt  0.929688 0.764706
vt  0.000000 0.862745
vt  0.000000 0.764706
vt  0.343750 0.505882
vt  0.601563 0.505882
vt  0.343750 0.619608
vt  0.601563 0.619608
vt  0.125000 0.674510
vt  0.000000 0.764706
vt  0.812500 0.674510
vt  0.929688 0.764706
vt  0.132813 0.521569
vt  0.343750 0.505882
vt  0.132813 0.607843
vt  0.343750 0.619608
vt  0.375000 0.517647
vt  0.585938 0.517647
vt  0.343750 0.505882
vt  0.601563 0.505882
vt  0.585938 0.611765
vt  0.375000 0.611765
vt  0.601563 0.619608
vt  0.343750 0.619608
vt  0.375000 0.611765
vt  0.179688 0.600000
vt  0.343750 0.619608
vt  0.132813 0.607843
vt  0.179688 0.529412
vt  0.375000 0.517647
vt  0.132813 0.521569
vt  0.343750 0.505882
vt  0.765625 0.600000
vt  0.585938 0.611765
vt  0.828125 0.607843
vt  0.601563 0.619608
vt  0.585938 0.517647
vt  0.765625 0.529412
vt  0.601563 0.505882
vt  0.828125 0.521569
vt  0.070313 0.576471
vt  0.070313 0.552941
vt  0.000000 0.580392
vt  0.000000 0.549020
vt  0.179688 0.600000
vt  0.070313 0.576471
vt  0.132813 0.607843
vt  0.000000 0.580392
vt  0.070313 0.552941
vt  0.179688 0.529412
vt  0.000000 0.549020
vt  0.132813 0.521569
vt  0.875000 0.576471
vt  0.765625 0.600000
vt  0.953125 0.580392
vt  0.828125 0.607843
vt  0.765625 0.529412
vt  0.875000 0.552941
vt  0.828125 0.521569
vt  0.953125 0.549020
vt  0.875000 0.552941
vt  0.875000 0.576471
vt  0.953125 0.549020
vt  0.953125 0.580392
# 102 texture coordinates

vn  0.243880 0.000000 -0.926181
vn  -0.251596 0.000000 -0.924077
vn  0.674352 0.000000 -0.679964
vn  0.243880 0.000000 -0.926181
vn  -0.251596 0.000000 -0.924077
vn  -0.679964 0.000000 -0.674586
vn  0.251362 0.000000 0.923843
vn  0.679730 0.000000 0.674352
vn  0.923843 0.000000 -0.251596
vn  0.674352 0.000000 -0.679964
vn  -0.679964 0.000000 -0.674586
vn  -0.926181 0.000000 -0.244113
vn  0.679730 0.000000 0.674352
vn  0.925948 0.000000 0.243880
vn  -0.674586 0.000000 0.679730
vn  -0.244113 0.000000 0.925948
vn  -0.926181 0.000000 -0.244113
vn  -0.924077 0.000000 0.251362
vn  0.925948 0.000000 0.243880
vn  0.923843 0.000000 -0.251596
vn  -0.244113 0.000000 0.925948
vn  0.251362 0.000000 0.923843
vn  -0.924077 0.000000 0.251362
vn  -0.674586 0.000000 0.679730
vn  0.000000 0.957514 0.000000
vn  0.000000 -0.957748 0.000000
vn  0.000000 0.957514 0.000000
vn  0.000000 -0.957748 0.000000
vn  0.000000 0.957514 0.000000
vn  0.000000 -0.957748 0.000000
vn  0.000000 0.957514 0.000000
vn  0.000000 -0.957748 0.000000
vn  0.000000 0.957514 0.000000
vn  0.000000 -0.957748 0.000000
vn  0.000000 0.957514 0.000000
vn  0.000000 0.957514 0.000000
vn  0.000000 0.957514 0.000000
vn  0.000000 0.957514 0.000000
vn  0.000000 0.957514 0.000000
vn  0.000000 0.957514 0.000000
vn  0.000000 0.957514 0.000000
vn  0.000000 0.957514 0.000000
vn  0.000000 0.957514 0.000000
vn  0.000000 0.957514 0.000000
vn  0.000000 0.957514 0.000000
vn  0.000000 0.957514 0.000000
# 46 vertex normals

g Object_0
s 1
f 1/2/1 3/1/2 4/3/2 2/4/1
f 23/6/3 1/5/4 2/7/4 24/8/3
f 3/10/5 5/9/6 6/11/6 4/12/5
f 15/14/7 17/13/8 18/15/8 16/16/7
f 21/18/9 23/17/10 24/19/10 22/20/9
f 5/22/11 7/21/12 8/23/12 6/24/11
f 17/26/13 19/25/14 20/27/14 18/28/13
f 11/30/15 13/29/16 14/31/16 12/32/15
f 7/34/17 9/33/18 10/35/18 8/36/17
f 19/38/19 21/37/20 22/39/20 20/40/19
f 13/42/21 15/41/22 16/43/22 14/44/21
f 9/46/23 11/45/24 12/47/24 10/48/23
f 32/50/25 36/49/25 35/51/25 31/52/25
f 17/54/26 15/53/26 13/55/26 11/56/26
f 29/58/27 34/57/27 33/59/27 30/60/27
f 5/62/28 3/61/28 1/63/28 23/64/28
f 25/66/29 32/65/29 31/67/29 28/68/29
f 7/70/30 5/69/30 23/71/30 21/72/30
f 26/74/31 25/73/31 28/75/31 27/76/31
f 21/78/32 19/77/32 9/79/32 7/80/32
f 27/82/33 29/81/33 30/83/33 26/84/33
f 19/86/34 17/85/34 11/87/34 9/88/34
f 25/90/35 26/89/35 20/91/35 22/92/35
f 27/94/36 28/93/36 8/95/36 10/96/36
f 29/98/37 27/97/37 10/99/37 12/100/37
f 26/102/38 30/101/38 18/103/38 20/104/38
f 28/106/39 31/105/39 6/107/39 8/108/39
f 32/110/40 25/109/40 22/111/40 24/112/40
f 33/114/41 34/113/41 14/115/41 16/116/41
f 34/118/42 29/117/42 12/119/42 14/120/42
f 30/122/43 33/121/43 16/123/43 18/124/43
f 31/126/44 35/125/44 4/127/44 6/128/44
f 36/130/45 32/129/45 24/131/45 2/132/45
f 35/134/46 36/133/46 2/135/46 4/136/46
# 34 faces

g
