# Wavefront OBJ exported by RE2MV
#
# object Object_0 to come ...
#
v  -5.440000 0.000000 12.580000
v  5.420000 0.000000 12.580000
v  -5.440000 4.660000 12.580000
v  5.420000 4.660000 12.580000
v  -5.440000 0.000000 -12.600000
v  5.420000 0.000000 -12.600000
v  -5.440000 4.660000 -12.600000
v  5.420000 4.660000 -12.600000
v  -5.440000 4.660000 0.000000
v  -5.440000 0.000000 0.000000
v  5.420000 4.660000 0.000000
v  5.420000 0.000000 0.000000
v  0.000000 4.660000 12.580000
v  0.000000 0.000000 12.580000
v  0.000000 4.660000 0.000000
v  0.000000 4.660000 -12.600000
v  0.000000 0.000000 -12.600000
# 17 vertices

vt  0.984375 0.568627
vt  0.984375 0.509804
vt  0.710938 0.568627
vt  0.710938 0.509804
vt  0.992188 0.509804
vt  0.492188 0.509804
vt  0.992188 0.568627
vt  0.492188 0.568627
vt  0.000000 0.509804
vt  0.273438 0.509804
vt  0.000000 0.568627
vt  0.281250 0.568627
vt  0.000000 0.509804
vt  0.484375 0.509804
vt  0.000000 0.568627
vt  0.484375 0.568627
vt  0.492188 0.749020
vt  0.492188 0.662745
vt  0.000000 0.749020
vt  0.000000 0.662745
vt  0.992188 0.749020
vt  0.992188 0.662745
vt  0.492188 0.749020
vt  0.492188 0.662745
vt  0.992188 0.568627
vt  0.484375 0.568627
vt  0.992188 0.509804
vt  0.484375 0.509804
vt  0.000000 0.568627
vt  0.492188 0.568627
vt  0.000000 0.509804
vt  0.492188 0.509804
vt  0.000000 0.576471
vt  0.000000 0.662745
vt  0.492188 0.576471
vt  0.492188 0.662745
vt  0.492188 0.576471
vt  0.492188 0.662745
vt  0.992188 0.576471
vt  0.992188 0.662745
vt  0.000000 0.568627
vt  0.281250 0.568627
vt  0.000000 0.509804
vt  0.281250 0.509804
vt  0.984375 0.568627
vt  0.710938 0.568627
vt  0.984375 0.509804
vt  0.703125 0.509804
# 36 texture coordinates

vn  0.000000 0.000000 0.957514
vn  0.957514 0.000000 0.000000
vn  0.000000 0.000000 -0.957748
vn  -0.957748 0.000000 0.000000
vn  0.000000 0.957514 0.000000
vn  0.000000 0.957514 0.000000
vn  -0.957748 0.000000 0.000000
vn  0.957514 0.000000 0.000000
vn  0.000000 0.957514 0.000000
vn  0.000000 0.957514 0.000000
vn  0.000000 0.000000 0.957514
vn  0.000000 0.000000 -0.957748
# 12 vertex normals

g Object_0
s 1
f 2/2/1 4/1/1 13/3/1 14/4/1
f 12/6/2 6/5/2 8/7/2 11/8/2
f 17/10/3 5/9/3 7/11/3 16/12/3
f 10/14/4 1/13/4 3/15/4 9/16/4
f 15/18/5 9/17/5 3/19/5 13/20/5
f 16/22/6 7/21/6 9/23/6 15/24/6
f 9/26/7 7/25/7 5/27/7 10/28/7
f 11/30/8 4/29/8 2/31/8 12/32/8
f 13/34/9 4/33/9 11/35/9 15/36/9
f 15/38/10 11/37/10 8/39/10 16/40/10
f 13/42/11 3/41/11 1/43/11 14/44/11
f 16/46/12 8/45/12 6/47/12 17/48/12
# 12 faces

g
