# Wavefront OBJ exported by RE2MV
#
# object Object_0 to come ...
#
v  0.440000 -2.900000 -0.460000
v  0.440000 2.880000 -0.460000
v  0.000000 -2.900000 -0.640000
v  0.000000 2.880000 -0.640000
v  -0.460000 -2.900000 -0.460000
v  -0.460000 2.880000 -0.460000
v  -0.640000 -2.900000 0.000000
v  -0.640000 2.880000 0.000000
v  -0.460000 -2.900000 0.440000
v  -0.460000 2.880000 0.440000
v  0.000000 -2.900000 0.620000
v  0.000000 2.880000 0.620000
v  0.440000 -2.900000 0.440000
v  0.440000 2.880000 0.440000
v  0.620000 -2.900000 0.000000
v  0.620000 2.880000 0.000000
# 16 vertices

vt  0.234375 0.435294
vt  0.234375 0.388235
vt  0.234375 0.368627
vt  0.234375 0.478431
vt  0.234375 0.498039
vt  0.234375 0.435294
vt  0.234375 0.368627
vt  0.234375 0.388235
vt  0.992188 0.368627
vt  0.992188 0.388235
vt  0.234375 0.388235
vt  0.234375 0.368627
vt  0.992188 0.388235
vt  0.992188 0.368627
vt  0.234375 0.435294
vt  0.234375 0.478431
vt  0.992188 0.431373
vt  0.992188 0.478431
vt  0.234375 0.478431
vt  0.234375 0.498039
vt  0.992188 0.478431
vt  0.992188 0.498039
vt  0.234375 0.435294
vt  0.234375 0.388235
vt  0.992188 0.431373
vt  0.992188 0.388235
vt  0.234375 0.388235
vt  0.234375 0.435294
vt  0.992188 0.388235
vt  0.992188 0.431373
vt  0.234375 0.498039
vt  0.234375 0.478431
vt  0.992188 0.498039
vt  0.992188 0.478431
vt  0.234375 0.478431
vt  0.234375 0.435294
vt  0.992188 0.478431
vt  0.992188 0.431373
vt  0.992188 0.368627
vt  0.992188 0.388235
vt  0.992188 0.388235
vt  0.992188 0.431373
vt  0.992188 0.388235
vt  0.992188 0.431373
vt  0.992188 0.431373
vt  0.992188 0.478431
vt  0.992188 0.498039
vt  0.992188 0.478431
vt  0.992188 0.478431
vt  0.992188 0.431373
vt  0.234375 0.368627
vt  0.234375 0.435294
vt  0.234375 0.388235
vt  0.234375 0.478431
vt  0.234375 0.435294
vt  0.234375 0.388235
vt  0.234375 0.498039
vt  0.234375 0.478431
# 45 texture coordinates

vn  0.676924 0.000000 -0.677158
vn  0.000000 0.000000 -0.957748
vn  0.000000 0.000000 -0.957748
vn  -0.677158 0.000000 -0.677158
vn  0.676924 0.000000 0.676924
vn  0.957514 0.000000 0.000000
vn  0.000000 0.000000 0.957514
vn  0.676924 0.000000 0.676924
vn  -0.677158 0.000000 -0.677158
vn  -0.957748 0.000000 0.000000
vn  0.957514 0.000000 0.000000
vn  0.676924 0.000000 -0.677158
vn  -0.677158 0.000000 0.676924
vn  0.000000 0.000000 0.957514
vn  -0.957748 0.000000 0.000000
vn  -0.677158 0.000000 0.676924
vn  0.000000 0.957514 0.000000
vn  0.000000 0.957514 0.000000
vn  0.000000 0.957514 0.000000
vn  0.000000 -0.957748 0.000000
vn  0.000000 -0.957748 0.000000
vn  0.000000 -0.957748 0.000000
vn  0.000000 -0.957748 0.000000
# 23 vertex normals

g Object_0
s 1
f 7/1/20 5/2/20 3/3/20
f 13/4/23 11/5/23 15/6/23
f 1/8/1 3/7/2 4/9/2 2/10/1
f 3/12/3 5/11/4 6/13/4 4/14/3
f 13/16/5 15/15/6 16/17/6 14/18/5
f 11/20/7 13/19/8 14/21/8 12/22/7
f 5/24/9 7/23/10 8/25/10 6/26/9
f 15/28/11 1/27/12 2/29/12 16/30/11
f 9/32/13 11/31/14 12/33/14 10/34/13
f 7/36/15 9/35/16 10/37/16 8/38/15
f 2/40/17 4/39/17 6/41/17 16/42/17
f 16/44/18 6/43/18 8/45/18 14/46/18
f 10/48/19 12/47/19 14/49/19 8/50/19
f 7/52/21 3/51/21 1/53/21 9/54/21
f 1/56/22 15/55/22 11/57/22 9/58/22
# 15 faces

g
