# Wavefront OBJ exported by RE2MV
#
# object Object_0 to come ...
#
v  0.000000 0.340000 0.000000
v  0.000000 0.000000 -1.000000
v  0.000000 0.340000 -1.000000
v  -0.700000 0.000000 -0.700000
v  -0.700000 0.340000 -0.700000
v  -1.000000 0.000000 0.000000
v  -1.000000 0.340000 0.000000
v  -0.700000 0.000000 0.680000
v  -0.700000 0.340000 0.680000
v  0.000000 0.000000 0.980000
v  0.000000 0.340000 0.980000
v  0.680000 0.000000 0.680000
v  0.680000 0.340000 0.680000
v  0.980000 0.000000 0.000000
v  0.980000 0.340000 0.000000
v  0.680000 0.000000 -0.700000
v  0.680000 0.340000 -0.700000
# 17 vertices

vt  0.484375 0.627451
vt  0.242188 0.627451
vt  0.414063 0.545098
vt  0.914063 0.521569
vt  0.914063 0.745098
vt  0.984375 0.521569
vt  0.914063 0.745098
vt  0.984375 0.745098
vt  0.984375 0.521569
vt  0.414063 0.717647
vt  0.242188 0.627451
vt  0.484375 0.627451
vt  0.984375 0.521569
vt  0.984375 0.745098
vt  0.914063 0.521569
vt  0.984375 0.745098
vt  0.914063 0.745098
vt  0.914063 0.521569
vt  0.742188 0.521569
vt  0.742188 0.745098
vt  0.914063 0.521569
vt  0.742188 0.745098
vt  0.914063 0.745098
vt  0.914063 0.521569
vt  0.242188 0.749020
vt  0.242188 0.627451
vt  0.414063 0.717647
vt  0.414063 0.545098
vt  0.242188 0.627451
vt  0.242188 0.509804
vt  0.562500 0.521569
vt  0.562500 0.745098
vt  0.742188 0.521569
vt  0.562500 0.745098
vt  0.742188 0.745098
vt  0.742188 0.521569
vt  0.070313 0.717647
vt  0.242188 0.627451
vt  0.242188 0.749020
vt  0.914063 0.521569
vt  0.914063 0.745098
vt  0.742188 0.521569
vt  0.914063 0.745098
vt  0.742188 0.745098
vt  0.742188 0.521569
vt  0.500000 0.521569
vt  0.500000 0.745098
vt  0.562500 0.521569
vt  0.500000 0.745098
vt  0.562500 0.745098
vt  0.562500 0.521569
vt  0.000000 0.627451
vt  0.242188 0.627451
vt  0.070313 0.717647
vt  0.242188 0.509804
vt  0.242188 0.627451
vt  0.070313 0.545098
vt  0.562500 0.521569
vt  0.562500 0.745098
vt  0.500000 0.521569
vt  0.562500 0.745098
vt  0.500000 0.745098
vt  0.500000 0.521569
vt  0.070313 0.545098
vt  0.242188 0.627451
vt  0.000000 0.627451
vt  0.742188 0.521569
vt  0.742188 0.745098
vt  0.562500 0.521569
vt  0.742188 0.745098
vt  0.562500 0.745098
vt  0.562500 0.521569
# 72 texture coordinates

vn  0.000000 0.957514 0.000000
vn  -0.130942 0.000000 -0.948862
vn  -0.763439 0.000000 -0.578250
vn  -0.578250 0.000000 -0.763439
vn  -0.130942 0.000000 -0.948862
vn  -0.578250 0.000000 -0.763439
vn  0.130708 0.000000 -0.948862
vn  0.000000 0.957514 0.000000
vn  0.578016 0.000000 -0.763439
vn  -0.130942 0.000000 -0.948862
vn  0.130708 0.000000 -0.948862
vn  0.578016 0.000000 -0.763439
vn  0.130708 0.000000 -0.948862
vn  0.763205 0.000000 -0.578250
vn  -0.763439 0.000000 -0.578250
vn  -0.948862 0.000000 0.130708
vn  -0.948862 0.000000 -0.130942
vn  -0.763439 0.000000 -0.578250
vn  -0.948862 0.000000 -0.130942
vn  -0.578250 0.000000 -0.763439
vn  0.000000 0.957514 0.000000
vn  0.000000 0.957514 0.000000
vn  -0.948862 0.000000 0.130708
vn  -0.578250 0.000000 0.763205
vn  -0.763439 0.000000 0.578016
vn  -0.948862 0.000000 0.130708
vn  -0.763439 0.000000 0.578016
vn  -0.948862 0.000000 -0.130942
vn  0.000000 0.957514 0.000000
vn  0.948629 0.000000 -0.130942
vn  0.578016 0.000000 -0.763439
vn  0.763205 0.000000 -0.578250
vn  0.948629 0.000000 -0.130942
vn  0.763205 0.000000 -0.578250
vn  0.948629 0.000000 0.130708
vn  -0.578250 0.000000 0.763205
vn  0.130708 0.000000 0.948629
vn  -0.130942 0.000000 0.948629
vn  -0.578250 0.000000 0.763205
vn  -0.130942 0.000000 0.948629
vn  -0.763439 0.000000 0.578016
vn  0.000000 0.957514 0.000000
vn  0.000000 0.957514 0.000000
vn  0.130708 0.000000 0.948629
vn  0.763205 0.000000 0.578016
vn  0.578016 0.000000 0.763205
vn  0.130708 0.000000 0.948629
vn  0.578016 0.000000 0.763205
vn  -0.130942 0.000000 0.948629
vn  0.000000 0.957514 0.000000
vn  0.763205 0.000000 0.578016
vn  0.948629 0.000000 -0.130942
vn  0.948629 0.000000 0.130708
vn  0.763205 0.000000 0.578016
vn  0.948629 0.000000 0.130708
vn  0.578016 0.000000 0.763205
# 56 vertex normals

g Object_0
s 1
f 3/1/1 1/2/1 17/3/1
f 4/4/3 5/5/4 2/6/2
f 5/7/6 3/8/7 2/9/5
f 5/10/8 1/11/8 3/12/8
f 2/13/10 3/14/11 16/15/9
f 3/16/13 17/17/14 16/18/12
f 6/19/16 7/20/17 4/21/15
f 7/22/19 5/23/20 4/24/18
f 7/25/21 1/26/21 5/27/21
f 17/28/22 1/29/22 15/30/22
f 8/31/24 9/32/25 6/33/23
f 9/34/27 7/35/28 6/36/26
f 9/37/29 1/38/29 7/39/29
f 16/40/31 17/41/32 14/42/30
f 17/43/34 15/44/35 14/45/33
f 10/46/37 11/47/38 8/48/36
f 11/49/40 9/50/41 8/51/39
f 11/52/42 1/53/42 9/54/42
f 15/55/43 1/56/43 13/57/43
f 12/58/45 13/59/46 10/60/44
f 13/61/48 11/62/49 10/63/47
f 13/64/50 1/65/50 11/66/50
f 14/67/52 15/68/53 12/69/51
f 15/70/55 13/71/56 12/72/54
# 24 faces

g
