# Wavefront OBJ exported by RE2MV
#
# object Object_0 to come ...
#
v  -7.220000 -0.700000 1.780000
v  6.860000 -0.700000 1.780000
v  6.860000 0.680000 1.780000
v  -7.220000 0.680000 1.780000
v  6.860000 -0.700000 -1.800000
v  -7.220000 -0.700000 -1.800000
v  -7.220000 0.680000 -1.800000
v  6.860000 0.680000 -1.800000
v  -7.220000 -0.900000 -1.660000
v  6.860000 -0.900000 -1.660000
v  6.860000 -0.900000 1.640000
v  -7.220000 -0.900000 1.640000
v  -7.220000 0.880000 1.640000
v  6.860000 0.880000 1.640000
v  6.860000 0.880000 -1.660000
v  -7.220000 0.880000 -1.660000
# 16 vertices

vt  0.195313 0.250980
vt  0.164063 0.250980
vt  0.195313 0.498039
vt  0.164063 0.498039
vt  0.125000 0.498039
vt  0.125000 0.250980
vt  0.117188 0.498039
vt  0.117188 0.250980
vt  0.187500 0.498039
vt  0.187500 0.250980
vt  0.156250 0.498039
vt  0.156250 0.250980
vt  0.117188 0.250980
vt  0.117188 0.498039
vt  0.125000 0.250980
vt  0.125000 0.498039
vt  0.000000 0.250980
vt  0.000000 0.498039
vt  0.101563 0.250980
vt  0.101563 0.498039
vt  0.000000 0.250980
vt  0.000000 0.498039
vt  0.101563 0.250980
vt  0.101563 0.498039
vt  0.125000 0.498039
vt  0.125000 0.250980
vt  0.117188 0.498039
vt  0.117188 0.250980
vt  0.117188 0.250980
vt  0.117188 0.498039
vt  0.125000 0.250980
vt  0.125000 0.498039
vt  0.156250 0.435294
vt  0.156250 0.474510
vt  0.156250 0.431373
vt  0.156250 0.482353
vt  0.234375 0.474510
vt  0.234375 0.435294
vt  0.234375 0.482353
vt  0.234375 0.431373
vt  0.156250 0.482353
vt  0.234375 0.482353
vt  0.156250 0.431373
vt  0.234375 0.431373
vt  0.226563 0.407843
vt  0.218750 0.400000
vt  0.226563 0.462745
vt  0.218750 0.470588
vt  0.218750 0.470588
vt  0.218750 0.400000
vt  0.148438 0.470588
vt  0.148438 0.400000
vt  0.140625 0.407843
vt  0.140625 0.462745
vt  0.148438 0.400000
vt  0.148438 0.470588
# 42 texture coordinates

vn  -0.446138 -0.264456 0.805060
vn  -0.446138 0.264222 0.805060
vn  0.445905 -0.264456 0.805060
vn  0.445905 0.264222 0.805060
vn  0.714336 -0.569130 -0.287839
vn  0.445905 -0.264456 -0.805294
vn  -0.714570 -0.569130 -0.287839
vn  -0.446138 -0.264456 -0.805294
vn  0.445905 0.264222 -0.805294
vn  -0.446138 0.264222 -0.805294
vn  -0.714570 0.568897 -0.287839
vn  0.714336 0.568897 -0.287839
vn  -0.714570 -0.569130 0.287605
vn  0.714336 -0.569130 0.287605
vn  -0.714570 0.568897 0.287605
vn  0.714336 0.568897 0.287605
# 16 vertex normals

g Object_0
s 1
f 2/2/3 3/1/4 4/3/2 1/4/1
f 10/6/5 9/5/7 6/7/8 5/8/6
f 5/10/6 6/9/8 7/11/10 8/12/9
f 16/14/11 15/13/12 8/15/9 7/16/10
f 9/18/7 10/17/5 11/19/14 12/20/13
f 13/22/15 14/21/16 15/23/12 16/24/11
f 14/26/16 13/25/15 4/27/2 3/28/4
f 12/30/13 11/29/14 2/31/3 1/32/1
f 7/34/10 6/33/8 9/35/7 16/36/11
f 1/38/1 4/37/2 13/39/15 12/40/13
f 13/42/15 16/41/11 9/43/7 12/44/13
f 14/46/16 3/45/4 2/47/3 11/48/14
f 14/50/16 11/49/14 10/51/5 15/52/12
f 5/54/6 8/53/9 15/55/12 10/56/5
# 14 faces

g
