# Wavefront OBJ exported by RE2MV
#
# object Object_0 to come ...
#
v  -6.300000 0.000000 6.280000
v  -3.660000 0.000000 6.280000
v  -6.300000 1.540000 6.280000
v  -3.660000 1.540000 6.280000
v  -6.300000 0.000000 -5.300000
v  1.600000 0.000000 -6.740000
v  -6.300000 1.540000 -5.300000
v  1.600000 1.540000 -6.740000
v  -2.160000 1.540000 0.000000
v  -2.160000 0.000000 0.000000
v  1.600000 1.540000 -3.160000
v  1.600000 0.000000 -3.160000
v  -3.660000 1.540000 -0.020000
v  -3.660000 0.000000 -0.020000
v  -2.160000 1.540000 -2.580000
v  -2.160000 0.000000 -2.580000
v  -3.780000 1.540000 -7.300000
v  -3.780000 0.000000 -7.300000
v  -3.400000 1.540000 -5.520000
v  -3.400000 0.000000 -5.520000
# 20 vertices

vt  0.781250 0.647059
vt  0.671875 0.713725
vt  0.679688 0.639216
vt  0.375000 0.603922
vt  0.515625 0.603922
vt  0.375000 0.643137
vt  0.187500 0.592157
vt  0.031250 0.592157
vt  0.187500 0.639216
vt  0.031250 0.639216
vt  0.507813 0.552941
vt  0.390625 0.552941
vt  0.507813 0.584314
vt  0.390625 0.584314
vt  0.921875 0.737255
vt  0.921875 0.674510
vt  0.781250 0.737255
vt  0.789063 0.674510
vt  0.023438 0.749020
vt  0.687500 0.749020
vt  0.023438 0.721569
vt  0.687500 0.721569
vt  0.515625 0.603922
vt  0.375000 0.643137
vt  0.679688 0.639216
vt  0.671875 0.713725
vt  0.515625 0.603922
vt  0.679688 0.639216
vt  0.546875 0.505882
vt  0.750000 0.505882
vt  0.015625 0.588235
vt  0.390625 0.588235
vt  0.015625 0.541176
vt  0.390625 0.541176
vt  0.343750 0.584314
vt  0.398438 0.584314
vt  0.343750 0.552941
vt  0.398438 0.552941
vt  0.289063 0.584314
vt  0.375000 0.584314
vt  0.289063 0.552941
vt  0.375000 0.552941
vt  0.398438 0.584314
vt  0.515625 0.584314
vt  0.398438 0.552941
vt  0.515625 0.552941
vt  0.820313 0.501961
vt  0.820313 0.623529
vt  0.960938 0.501961
vt  0.960938 0.623529
vt  0.781250 0.647059
vt  0.679688 0.639216
vt  0.781250 0.647059
vt  0.679688 0.639216
vt  0.015625 0.713725
vt  0.671875 0.713725
vt  0.015625 0.643137
vt  0.375000 0.643137
# 45 texture coordinates

vn  0.000000 0.000000 0.957514
vn  0.957514 0.000000 0.000000
vn  -0.596956 0.000000 -0.748942
vn  -0.862815 0.000000 -0.415507
vn  -0.862815 0.000000 -0.415507
vn  -0.957748 0.000000 0.000000
vn  0.000000 0.957514 0.000000
vn  0.000000 0.957514 0.000000
vn  0.957514 0.000000 0.000000
vn  -0.014965 0.000000 0.957514
vn  0.957514 0.000000 0.000000
vn  0.143101 0.000000 0.946758
vn  -0.227278 0.000000 -0.930390
vn  0.934833 0.000000 -0.206935
vn  0.000000 0.957514 0.000000
vn  0.000000 0.957514 0.000000
vn  0.000000 0.957514 0.000000
# 17 vertex normals

g Object_0
s 1
f 17/1/16 7/2/16 19/3/16
f 9/4/17 15/5/17 13/6/17
f 1/8/1 2/7/1 4/9/1 3/10/1
f 12/12/2 6/11/2 8/13/2 11/14/2
f 18/16/3 5/15/4 7/17/4 17/18/3
f 5/20/5 1/19/6 3/21/6 7/22/5
f 13/24/7 15/23/7 19/25/7 7/26/7
f 19/28/8 15/27/8 11/29/8 8/30/8
f 13/32/9 4/31/9 2/33/9 14/34/9
f 9/36/10 13/35/10 14/37/10 10/38/10
f 15/40/11 9/39/11 10/41/11 16/42/11
f 11/44/12 15/43/12 16/45/12 12/46/12
f 19/48/13 8/47/13 6/49/13 20/50/13
f 20/52/14 18/51/14 17/53/14 19/54/14
f 7/56/15 3/55/15 4/57/15 13/58/15
# 15 faces

g
