# Wavefront OBJ exported by RE2MV
#
# object Object_0 to come ...
#
v  -1.080000 0.000000 3.320000
v  1.160000 0.000000 3.320000
v  -1.080000 0.700000 3.320000
v  1.160000 0.700000 3.320000
v  -1.080000 0.000000 3.260000
v  1.060000 0.000000 3.260000
v  -1.080000 0.700000 3.260000
v  1.060000 0.700000 3.260000
v  -1.080000 0.000000 -3.280000
v  1.060000 0.000000 -3.280000
v  -1.080000 0.700000 -3.280000
v  1.060000 0.700000 -3.280000
v  1.060000 0.340000 -3.620000
v  -1.080000 0.340000 -3.620000
# 14 vertices

vt  0.710938 0.854902
vt  0.031250 0.854902
vt  0.710938 0.823529
vt  0.710938 0.854902
vt  0.710938 0.819608
vt  0.031250 0.854902
vt  0.750000 0.823529
vt  0.757813 0.984314
vt  0.851563 0.823529
vt  0.851563 0.984314
vt  0.976563 0.831373
vt  0.929688 0.827451
vt  0.976563 0.976471
vt  0.929688 0.980392
vt  0.031250 0.819608
vt  0.710938 0.819608
vt  0.000000 0.839216
vt  0.031250 0.854902
vt  0.890625 0.976471
vt  0.929688 0.980392
vt  0.890625 0.831373
vt  0.929688 0.827451
vt  0.710938 0.901961
vt  0.710938 0.992157
vt  0.070313 0.901961
vt  0.070313 0.992157
vt  0.000000 0.839216
vt  0.031250 0.854902
vt  0.031250 0.823529
vt  0.710938 0.823529
# 24 texture coordinates

vn  0.000000 0.000000 0.957514
vn  0.000000 -0.642551 -0.710361
vn  0.957514 0.000000 0.000000
vn  0.000000 0.642318 -0.710361
vn  0.000000 0.886431 -0.362195
vn  -0.957748 0.000000 0.000000
vn  0.000000 0.957514 0.000000
vn  0.000000 0.886431 -0.362195
vn  0.957514 0.000000 0.000000
vn  -0.957748 0.000000 0.000000
# 10 vertex normals

g Object_0
s 1
f 7/1/6 11/2/6 5/3/6
f 8/4/9 6/5/9 12/6/9
f 1/8/1 2/7/1 4/9/1 3/10/1
f 13/12/2 10/11/2 9/13/2 14/14/2
f 6/16/3 10/15/3 13/17/3 12/18/3
f 14/20/4 11/19/5 12/21/5 13/22/4
f 7/24/7 8/23/7 12/25/9 11/26/9
f 11/28/10 14/27/10 9/29/10 5/30/10
# 8 faces

g
