# Wavefront OBJ exported by RE2MV
#
# object Object_0 to come ...
#
v  6.220000 -0.040000 -0.540000
v  6.040000 2.940000 -0.540000
v  6.220000 -0.040000 -3.540000
v  6.040000 2.940000 -3.540000
v  -1.920000 1.620000 2.660000
v  -0.860000 1.680000 -2.660000
v  8.760000 2.240000 -2.660000
v  -1.860000 0.500000 2.660000
v  -0.800000 0.560000 -2.660000
v  8.820000 1.120000 -2.660000
v  8.820000 1.120000 -1.580000
v  8.760000 2.240000 -1.580000
v  -0.860000 1.680000 1.540000
v  -0.780000 0.560000 1.540000
v  -0.780000 0.560000 -1.580000
v  -0.860000 1.680000 -1.580000
v  -1.860000 0.500000 1.540000
v  -1.920000 1.620000 1.540000
v  -9.340000 -0.080000 2.800000
v  -9.340000 -0.080000 1.380000
v  -9.420000 1.320000 2.800000
v  -9.420000 1.320000 1.380000
v  -1.860000 0.500000 -1.560000
v  -1.920000 1.620000 -1.560000
v  -5.660000 1.400000 1.540000
v  -5.600000 0.280000 1.540000
v  -5.660000 1.400000 2.640000
v  -5.600000 0.280000 2.640000
# 28 vertices

vt  0.382813 0.133333
vt  0.554688 0.133333
vt  0.554688 0.019608
vt  0.382813 0.019608
vt  0.382813 0.133333
vt  0.554688 0.019608
vt  0.289063 0.180392
vt  0.289063 0.039216
vt  0.984375 0.180392
vt  0.296875 0.054902
vt  0.289063 0.039216
vt  0.296875 0.180392
vt  0.289063 0.039216
vt  0.289063 0.180392
vt  0.296875 0.180392
vt  0.718750 0.137255
vt  0.609375 0.137255
vt  0.656250 0.078431
vt  0.046875 0.141176
vt  0.054688 0.078431
vt  0.031250 0.129412
vt  0.054688 0.078431
vt  0.031250 0.058824
vt  0.031250 0.129412
vt  0.718750 0.137255
vt  0.710938 0.098039
vt  0.609375 0.137255
vt  0.710938 0.098039
vt  0.601563 0.109804
vt  0.609375 0.137255
vt  0.351563 0.090196
vt  0.984375 0.094118
vt  0.351563 0.141176
vt  0.984375 0.094118
vt  0.984375 0.145098
vt  0.351563 0.141176
vt  0.046875 0.141176
vt  0.031250 0.129412
vt  0.234375 0.121569
vt  0.031250 0.129412
vt  0.218750 0.113725
vt  0.234375 0.121569
vt  0.375000 0.133333
vt  0.796875 0.031373
vt  0.796875 0.133333
vt  0.289063 0.180392
vt  0.984375 0.180392
vt  0.296875 0.180392
vt  0.984375 0.180392
vt  0.976563 0.180392
vt  0.296875 0.180392
vt  0.375000 0.133333
vt  0.796875 0.133333
vt  0.375000 0.145098
vt  0.796875 0.133333
vt  0.781250 0.145098
vt  0.375000 0.145098
vt  0.031250 0.129412
vt  0.031250 0.058824
vt  0.218750 0.113725
vt  0.031250 0.058824
vt  0.218750 0.058824
vt  0.218750 0.113725
vt  0.289063 0.039216
vt  0.984375 0.054902
vt  0.984375 0.180392
vt  0.054688 0.078431
vt  0.046875 0.141176
vt  0.234375 0.078431
vt  0.046875 0.141176
vt  0.234375 0.121569
vt  0.234375 0.078431
vt  0.867188 0.133333
vt  0.757813 0.133333
vt  0.804688 0.066667
vt  0.695313 0.152941
vt  0.687500 0.203922
vt  0.515625 0.145098
vt  0.687500 0.203922
vt  0.515625 0.196078
vt  0.515625 0.145098
vt  0.796875 0.031373
vt  0.375000 0.133333
vt  0.375000 0.031373
vt  0.734375 0.137255
vt  0.734375 0.047059
vt  0.984375 0.137255
vt  0.734375 0.047059
vt  0.984375 0.047059
vt  0.984375 0.137255
vt  0.687500 0.203922
vt  0.695313 0.152941
vt  0.851563 0.196078
vt  0.695313 0.152941
vt  0.851563 0.141176
vt  0.851563 0.196078
vt  0.484375 0.133333
vt  0.484375 0.082353
vt  0.750000 0.141176
vt  0.484375 0.082353
vt  0.750000 0.082353
vt  0.750000 0.141176
vt  0.406250 0.196078
vt  0.406250 0.145098
vt  0.507813 0.196078
vt  0.406250 0.145098
vt  0.515625 0.145098
vt  0.507813 0.196078
vt  0.554688 0.133333
vt  0.382813 0.133333
vt  0.554688 0.019608
vt  0.382813 0.133333
vt  0.382813 0.019608
vt  0.554688 0.019608
# 114 texture coordinates

vn  0.955877 0.055183 0.000000
vn  0.955877 0.055183 0.000000
vn  0.123694 0.882690 0.349569
vn  0.519793 0.583861 0.552763
vn  0.519793 0.583861 -0.552996
vn  0.675755 0.039049 0.676924
vn  0.675755 0.039049 -0.677158
vn  0.519793 0.583861 -0.552996
vn  0.675755 0.039049 0.676924
vn  0.519793 0.583861 -0.552996
vn  0.519793 0.583861 0.552763
vn  -0.399841 0.852293 -0.174901
vn  0.168588 0.569130 0.751046
vn  0.755021 0.498515 0.313092
vn  -0.654944 0.617298 0.326888
vn  -0.374120 0.377160 -0.796876
vn  -0.851825 -0.049571 -0.435149
vn  -0.654944 0.617298 0.326888
vn  -0.851825 -0.049571 -0.435149
vn  -0.399607 -0.023149 0.869830
vn  0.755021 0.498515 0.313092
vn  0.168588 0.569130 0.751046
vn  0.496411 0.028527 0.818154
vn  0.755021 0.498515 0.313092
vn  0.496411 0.028527 0.818154
vn  0.887366 0.051208 0.355648
vn  -0.373185 -0.021746 -0.881755
vn  -0.293451 0.688381 -0.597189
vn  0.519793 0.583861 -0.552996
vn  -0.373185 -0.021746 -0.881755
vn  0.519793 0.583861 -0.552996
vn  0.675755 0.039049 -0.677158
vn  -0.013562 0.677158 -0.676924
vn  -0.374120 0.377160 -0.796876
vn  -0.654944 0.617298 0.326888
vn  -0.013562 0.677158 -0.676924
vn  -0.654944 0.617298 0.326888
vn  -0.013094 0.677158 0.676690
vn  0.755021 0.498515 0.313092
vn  0.123694 0.882690 0.349569
vn  -0.399841 0.852293 -0.174901
vn  0.675755 0.039049 0.676924
vn  0.519793 0.583861 0.552763
vn  0.123694 0.882690 0.349569
vn  0.675755 0.039049 0.676924
vn  0.123694 0.882690 0.349569
vn  0.854865 0.049337 0.428134
vn  0.854865 0.049337 0.428134
vn  0.123694 0.882690 0.349569
vn  0.755021 0.498515 0.313092
vn  0.854865 0.049337 0.428134
vn  0.755021 0.498515 0.313092
vn  0.887366 0.051208 0.355648
vn  -0.013094 0.677158 0.676690
vn  -0.654944 0.617298 0.326888
vn  -0.399607 -0.023149 0.869830
vn  -0.013094 0.677158 0.676690
vn  -0.399607 -0.023149 0.869830
vn  0.012159 0.000468 0.957514
vn  0.123694 0.882690 0.349569
vn  0.519793 0.583861 -0.552996
vn  -0.293451 0.688381 -0.597189
vn  0.025955 0.001403 -0.957280
vn  -0.851825 -0.049571 -0.435149
vn  -0.374120 0.377160 -0.796876
vn  0.025955 0.001403 -0.957280
vn  -0.374120 0.377160 -0.796876
vn  -0.013562 0.677158 -0.676924
vn  0.123694 0.882690 0.349569
vn  -0.293451 0.688381 -0.597189
vn  -0.708490 0.515351 -0.386513
vn  -0.926415 -0.053780 -0.237333
vn  -0.427432 -0.024785 -0.856735
vn  -0.399841 0.852293 -0.174901
vn  -0.926415 -0.053780 -0.237333
vn  -0.399841 0.852293 -0.174901
vn  -0.708490 0.515351 -0.386513
vn  -0.708490 0.515351 -0.386513
vn  -0.399841 0.852293 -0.174901
vn  0.123694 0.882690 0.349569
vn  -0.013094 0.677158 0.676690
vn  0.168588 0.569130 0.751046
vn  -0.399841 0.852293 -0.174901
vn  -0.013094 0.677158 0.676690
vn  -0.399841 0.852293 -0.174901
vn  -0.013562 0.677158 -0.676924
vn  -0.013562 0.677158 -0.676924
vn  -0.399841 0.852293 -0.174901
vn  -0.427432 -0.024785 -0.856735
vn  -0.013562 0.677158 -0.676924
vn  -0.427432 -0.024785 -0.856735
vn  0.025955 0.001403 -0.957280
vn  0.012159 0.000468 0.957514
vn  0.496411 0.028527 0.818154
vn  0.168588 0.569130 0.751046
vn  0.012159 0.000468 0.957514
vn  0.168588 0.569130 0.751046
vn  -0.013094 0.677158 0.676690
vn  -0.708490 0.515351 -0.386513
vn  -0.293451 0.688381 -0.597189
vn  -0.373185 -0.021746 -0.881755
vn  -0.708490 0.515351 -0.386513
vn  -0.373185 -0.021746 -0.881755
vn  -0.926415 -0.053780 -0.237333
# 104 vertex normals

g Object_0
s 1
f 4/1/1 3/2/1 1/3/1
f 2/4/2 4/5/2 1/6/2
f 12/7/4 7/8/5 16/9/3
f 10/10/7 7/11/8 11/12/6
f 7/13/10 12/14/11 11/15/9
f 5/16/13 13/17/14 18/18/12
f 22/19/16 20/20/17 21/21/15
f 20/22/19 19/23/20 21/24/18
f 5/25/22 8/26/23 13/27/21
f 8/28/25 14/29/26 13/30/24
f 6/31/28 7/32/29 9/33/27
f 7/34/31 10/35/32 9/36/30
f 22/37/34 21/38/35 25/39/33
f 21/40/37 27/41/38 25/42/36
f 16/43/40 18/44/41 13/45/39
f 12/46/43 16/47/44 11/48/42
f 16/49/46 15/50/47 11/51/45
f 16/52/49 13/53/50 15/54/48
f 13/55/52 14/56/53 15/57/51
f 21/58/55 19/59/56 27/60/54
f 19/61/58 28/62/59 27/63/57
f 7/64/61 6/65/62 16/66/60
f 20/67/64 22/68/65 26/69/63
f 22/70/67 25/71/68 26/72/66
f 6/73/70 24/74/71 16/75/69
f 17/76/73 18/77/74 23/78/72
f 18/79/76 24/80/77 23/81/75
f 18/82/79 16/83/80 24/84/78
f 5/85/82 18/86/83 27/87/81
f 18/88/85 25/89/86 27/90/84
f 18/91/88 17/92/89 25/93/87
f 17/94/91 26/95/92 25/96/90
f 8/97/94 5/98/95 28/99/93
f 5/100/97 27/101/98 28/102/96
f 6/103/100 9/104/101 24/105/99
f 9/106/103 23/107/104 24/108/102
f 3/109/1 4/110/1 1/111/1
f 4/112/2 2/113/2 1/114/2
# 38 faces

g
