# Wavefront OBJ exported by RE2MV
#
# object Object_0 to come ...
#
v  -10.800000 1.680000 7.180000
v  10.780000 1.680000 7.180000
v  -10.800000 1.680000 -7.200000
v  10.780000 1.680000 -7.200000
v  0.000000 1.680000 0.000000
# 5 vertices

vt  0.984375 0.670588
vt  0.484375 0.835294
vt  0.000000 0.670588
vt  0.000000 1.000000
vt  0.484375 0.835294
vt  0.984375 1.000000
vt  0.984375 0.670588
vt  0.984375 1.000000
vt  0.484375 0.835294
vt  0.000000 1.000000
vt  0.000000 0.670588
vt  0.484375 0.835294
# 12 texture coordinates

vn  0.000000 0.957514 0.000000
vn  0.000000 0.957514 0.000000
vn  0.000000 0.957514 0.000000
vn  0.000000 0.957514 0.000000
# 4 vertex normals

g Object_0
s 1
f 3/1/1 5/2/1 4/3/1
f 2/4/2 5/5/2 1/6/2
f 3/7/3 1/8/3 5/9/3
f 2/10/4 4/11/4 5/12/4
# 4 faces

g
