# Wavefront OBJ exported by RE2MV
#
# object Object_0 to come ...
#
v  0.000000 0.000000 -12.600000
v  0.000000 3.580000 -12.600000
v  0.000000 3.580000 0.000000
v  0.000000 0.000000 0.000000
v  -5.400000 0.000000 -12.600000
v  -5.400000 0.000000 0.000000
v  -5.400000 1.420000 -12.600000
v  -5.400000 1.420000 0.000000
v  -4.320000 3.580000 -12.600000
v  -4.320000 3.580000 0.000000
v  0.000000 0.000000 -25.200001
v  0.000000 3.580000 -25.200001
v  -5.400000 0.000000 -25.200001
v  -5.400000 1.420000 -25.200001
v  -4.320000 3.580000 -25.200001
v  0.000000 0.000000 -37.799999
v  0.000000 3.580000 -37.799999
v  -5.400000 0.000000 -37.799999
v  -5.400000 1.420000 -37.799999
v  -4.320000 3.580000 -37.799999
v  0.000000 3.580000 -50.400002
v  0.000000 0.000000 -50.400002
v  0.000000 0.000000 -63.000000
v  0.000000 3.580000 -63.000000
v  -5.400000 0.000000 -50.400002
v  -5.400000 0.000000 -63.000000
v  -5.400000 1.420000 -50.400002
v  -5.400000 1.420000 -63.000000
v  -4.320000 3.580000 -50.400002
v  -4.320000 3.580000 -63.000000
# 30 vertices

vt  0.328125 0.945098
vt  0.484375 0.945098
vt  0.328125 0.909804
vt  0.328125 0.945098
vt  0.328125 0.909804
vt  0.484375 0.945098
vt  0.000000 0.941176
vt  0.195313 0.941176
vt  0.000000 0.905882
vt  0.195313 0.905882
vt  0.000000 0.941176
vt  0.195313 0.941176
vt  0.000000 0.909804
vt  0.195313 0.909804
vt  0.195313 0.909804
vt  0.195313 0.909804
vt  0.000000 0.909804
vt  0.000000 0.909804
vt  0.195313 0.996078
vt  0.195313 0.984314
vt  0.000000 0.996078
vt  0.000000 0.984314
vt  0.195313 0.984314
vt  0.195313 0.945098
vt  0.000000 0.984314
vt  0.000000 0.945098
vt  0.507813 0.925490
vt  0.484375 0.945098
vt  0.507813 0.913725
vt  0.328125 0.909804
vt  0.390625 0.941176
vt  0.390625 0.905882
vt  0.195313 0.941176
vt  0.195313 0.905882
vt  0.390625 0.941176
vt  0.390625 0.909804
vt  0.195313 0.941176
vt  0.195313 0.909804
vt  0.390625 0.909804
vt  0.390625 0.909804
vt  0.195313 0.909804
vt  0.195313 0.909804
vt  0.390625 0.996078
vt  0.390625 0.984314
vt  0.195313 0.996078
vt  0.195313 0.984314
vt  0.390625 0.984314
vt  0.390625 0.945098
vt  0.195313 0.984314
vt  0.195313 0.945098
vt  0.585938 0.941176
vt  0.585938 0.905882
vt  0.390625 0.941176
vt  0.390625 0.905882
vt  0.593750 0.941176
vt  0.593750 0.909804
vt  0.390625 0.941176
vt  0.390625 0.909804
vt  0.593750 0.909804
vt  0.593750 0.909804
vt  0.390625 0.909804
vt  0.390625 0.909804
vt  0.593750 0.996078
vt  0.593750 0.984314
vt  0.390625 0.996078
vt  0.390625 0.984314
vt  0.593750 0.984314
vt  0.593750 0.945098
vt  0.390625 0.984314
vt  0.390625 0.945098
vt  0.781250 0.905882
vt  0.781250 0.941176
vt  0.976563 0.905882
vt  0.976563 0.941176
vt  0.781250 0.941176
vt  0.781250 0.905882
vt  0.585938 0.941176
vt  0.585938 0.905882
vt  0.789063 0.909804
vt  0.789063 0.941176
vt  0.992188 0.909804
vt  0.992188 0.941176
vt  0.789063 0.941176
vt  0.789063 0.909804
vt  0.593750 0.941176
vt  0.593750 0.909804
vt  0.789063 0.909804
vt  0.789063 0.909804
vt  0.992188 0.909804
vt  0.992188 0.909804
vt  0.789063 0.909804
vt  0.789063 0.909804
vt  0.593750 0.909804
vt  0.593750 0.909804
vt  0.789063 0.984314
vt  0.789063 0.996078
vt  0.992188 0.984314
vt  0.992188 0.996078
vt  0.789063 0.996078
vt  0.789063 0.984314
vt  0.593750 0.996078
vt  0.593750 0.984314
vt  0.789063 0.945098
vt  0.789063 0.984314
vt  0.992188 0.945098
vt  0.992188 0.984314
vt  0.789063 0.984314
vt  0.789063 0.945098
vt  0.593750 0.984314
vt  0.593750 0.945098
vt  0.507813 0.913725
vt  0.328125 0.909804
vt  0.507813 0.925490
vt  0.484375 0.945098
# 87 texture coordinates

vn  0.957514 0.000000 0.000000
vn  0.000000 -0.957748 0.000000
vn  -0.932027 0.219796 0.000000
vn  -0.957748 0.000000 0.000000
vn  -0.856735 0.428134 0.000000
vn  -0.932027 0.219796 0.000000
vn  0.000000 0.957514 0.000000
vn  0.000000 0.000000 0.957514
vn  0.000000 0.000000 0.957514
vn  0.957514 0.000000 0.000000
vn  0.000000 -0.957748 0.000000
vn  -0.932027 0.219796 0.000000
vn  -0.957748 0.000000 0.000000
vn  -0.856735 0.428134 0.000000
vn  -0.932027 0.219796 0.000000
vn  0.000000 0.957514 0.000000
vn  0.957514 0.000000 0.000000
vn  0.000000 -0.957748 0.000000
vn  -0.932027 0.219796 0.000000
vn  -0.957748 0.000000 0.000000
vn  -0.856735 0.428134 0.000000
vn  -0.932027 0.219796 0.000000
vn  0.000000 0.957514 0.000000
vn  0.957514 0.000000 0.000000
vn  0.957514 0.000000 0.000000
vn  0.000000 -0.957748 0.000000
vn  0.000000 -0.957748 0.000000
vn  -0.957748 0.000000 0.000000
vn  -0.932027 0.219796 0.000000
vn  -0.932027 0.219796 0.000000
vn  -0.957748 0.000000 0.000000
vn  -0.932027 0.219796 0.000000
vn  -0.856735 0.428134 0.000000
vn  -0.856735 0.428134 0.000000
vn  -0.932027 0.219796 0.000000
vn  0.000000 0.957514 0.000000
vn  0.000000 0.957514 0.000000
vn  0.000000 0.000000 -0.957748
vn  0.000000 0.000000 -0.957748
# 39 vertex normals

g Object_0
s 1
f 3/1/9 10/2/9 4/3/9
f 24/4/39 23/5/39 30/6/39
f 2/8/1 3/7/1 4/9/1 1/10/1
f 1/12/2 4/11/2 6/13/2 5/14/2
f 7/16/3 5/15/4 6/17/4 8/18/3
f 9/20/5 7/19/6 8/21/6 10/22/5
f 2/24/7 9/23/7 10/25/7 3/26/7
f 10/28/8 8/27/8 6/29/8 4/30/8
f 11/32/10 12/31/10 2/33/10 1/34/10
f 13/36/11 11/35/11 1/37/11 5/38/11
f 14/40/12 13/39/13 5/41/13 7/42/12
f 15/44/14 14/43/15 7/45/15 9/46/14
f 12/48/16 15/47/16 9/49/16 2/50/16
f 16/52/17 17/51/17 12/53/17 11/54/17
f 18/56/18 16/55/18 11/57/18 13/58/18
f 19/60/19 18/59/20 13/61/20 14/62/19
f 20/64/21 19/63/22 14/65/22 15/66/21
f 17/68/23 20/67/23 15/69/23 12/70/23
f 21/72/24 22/71/24 23/73/24 24/74/24
f 22/76/25 21/75/25 17/77/25 16/78/25
f 22/80/26 25/79/26 26/81/26 23/82/26
f 25/84/27 22/83/27 16/85/27 18/86/27
f 25/88/28 27/87/29 28/89/29 26/90/28
f 27/92/30 25/91/31 18/93/31 19/94/30
f 27/96/32 29/95/33 30/97/33 28/98/32
f 29/100/34 27/99/35 19/101/35 20/102/34
f 29/104/36 21/103/36 24/105/36 30/106/36
f 21/108/37 29/107/37 20/109/37 17/110/37
f 23/112/38 26/111/38 28/113/38 30/114/38
# 29 faces

g
