# Wavefront OBJ exported by RE2MV
#
# object Object_0 to come ...
#
v  -1.540000 -0.780000 -10.860000
v  -1.540000 1.000000 -10.860000
v  1.500000 1.000000 0.000000
v  1.500000 1.000000 21.600000
v  0.000000 1.880000 -21.600000
v  0.000000 1.880000 0.000000
v  0.000000 1.880000 21.600000
v  -1.540000 1.000000 -21.600000
v  -1.540000 1.000000 0.000000
v  -1.540000 1.000000 21.600000
v  -1.540000 -0.780000 -21.600000
v  -1.540000 -0.780000 0.000000
v  -1.540000 -0.780000 21.600000
v  0.000000 -1.660000 -21.600000
v  0.000000 -1.660000 0.000000
v  0.000000 -1.660000 21.600000
v  1.500000 -0.780000 -21.600000
v  1.500000 -0.780000 0.000000
v  1.500000 -0.780000 21.600000
v  1.500000 1.000000 -21.600000
v  0.000000 1.880000 10.700000
v  1.500000 -0.780000 10.720000
v  -1.540000 1.000000 10.700000
v  0.000000 -1.660000 10.720000
v  -1.540000 -0.780000 10.700000
v  1.500000 1.000000 10.720000
v  0.000000 1.880000 -10.860000
v  1.500000 1.000000 -10.860000
v  1.500000 -0.780000 -10.860000
v  0.000000 -1.660000 -10.860000
# 30 vertices

vt  0.039063 0.749020
vt  0.117188 0.749020
vt  0.039063 0.623529
vt  0.117188 0.623529
vt  0.117188 0.749020
vt  0.117188 0.623529
vt  0.156250 0.749020
vt  0.156250 0.623529
vt  0.117188 0.250980
vt  0.117188 0.376471
vt  0.039063 0.250980
vt  0.039063 0.376471
vt  0.195313 0.725490
vt  0.296875 0.749020
vt  0.195313 0.670588
vt  0.296875 0.643137
vt  0.195313 0.725490
vt  0.195313 0.670588
vt  0.296875 0.749020
vt  0.296875 0.643137
vt  0.039063 0.250980
vt  0.039063 0.376471
vt  0.000000 0.250980
vt  0.000000 0.376471
vt  0.000000 0.250980
vt  0.000000 0.376471
vt  0.039063 0.250980
vt  0.039063 0.376471
vt  0.156250 0.623529
vt  0.156250 0.501961
vt  0.117188 0.623529
vt  0.117188 0.501961
vt  0.039063 0.623529
vt  0.117188 0.623529
vt  0.039063 0.749020
vt  0.117188 0.749020
vt  0.156250 0.623529
vt  0.117188 0.623529
vt  0.156250 0.501961
vt  0.117188 0.501961
vt  0.039063 0.250980
vt  0.039063 0.376471
vt  0.117188 0.250980
vt  0.117188 0.376471
vt  0.117188 0.623529
vt  0.039063 0.623529
vt  0.117188 0.501961
vt  0.039063 0.498039
vt  0.039063 0.623529
vt  0.000000 0.623529
vt  0.039063 0.498039
vt  0.000000 0.498039
vt  0.398438 0.670588
vt  0.398438 0.725490
vt  0.296875 0.643137
vt  0.296875 0.749020
vt  0.039063 0.749020
vt  0.039063 0.623529
vt  0.000000 0.749020
vt  0.000000 0.623529
vt  0.117188 0.250980
vt  0.117188 0.376471
vt  0.156250 0.250980
vt  0.156250 0.376471
vt  0.117188 0.623529
vt  0.117188 0.749020
vt  0.156250 0.623529
vt  0.156250 0.749020
vt  0.156250 0.250980
vt  0.156250 0.376471
vt  0.117188 0.250980
vt  0.117188 0.376471
vt  0.000000 0.623529
vt  0.039063 0.623529
vt  0.000000 0.498039
vt  0.039063 0.498039
vt  0.398438 0.670588
vt  0.296875 0.643137
vt  0.398438 0.725490
vt  0.296875 0.749020
vt  0.000000 0.749020
vt  0.000000 0.623529
vt  0.039063 0.749020
vt  0.039063 0.623529
vt  0.039063 0.498039
vt  0.039063 0.623529
vt  0.117188 0.501961
vt  0.117188 0.623529
vt  0.000000 0.498039
vt  0.039063 0.498039
vt  0.000000 0.376471
vt  0.039063 0.376471
vt  0.039063 0.498039
vt  0.000000 0.498039
vt  0.039063 0.376471
vt  0.000000 0.376471
vt  0.117188 0.501961
vt  0.039063 0.498039
vt  0.117188 0.376471
vt  0.039063 0.376471
vt  0.156250 0.501961
vt  0.117188 0.501961
vt  0.156250 0.376471
vt  0.117188 0.376471
vt  0.117188 0.501961
vt  0.156250 0.501961
vt  0.117188 0.376471
vt  0.156250 0.376471
vt  0.039063 0.498039
vt  0.117188 0.501961
vt  0.039063 0.376471
vt  0.117188 0.376471
# 84 texture coordinates

vn  0.829378 0.478172 0.000000
vn  0.829378 -0.478406 0.000000
vn  0.718311 0.414104 0.478406
vn  0.718311 -0.414338 0.478406
vn  -0.828442 0.480511 0.000000
vn  0.002572 0.957514 0.000000
vn  -0.717142 0.415975 0.479108
vn  0.001637 0.627119 0.723455
vn  -0.828442 0.480511 0.000000
vn  -0.828442 -0.480744 0.000000
vn  -0.717142 0.415975 -0.479342
vn  -0.717142 -0.416209 -0.479342
vn  0.001637 -0.627353 -0.723689
vn  0.001637 0.627119 -0.723689
vn  -0.717142 -0.416209 0.479108
vn  0.001637 -0.627353 0.723455
vn  0.002572 -0.957748 0.000000
vn  0.829378 -0.478406 0.000000
vn  0.718311 -0.414338 -0.478640
vn  0.002572 0.957514 0.000000
vn  0.829378 0.478172 0.000000
vn  -0.828442 -0.480744 0.000000
vn  -0.828442 0.480511 0.000000
vn  0.829378 0.478172 0.000000
vn  0.718311 0.414104 -0.478640
vn  -0.828442 -0.480744 0.000000
vn  0.002572 -0.957748 0.000000
vn  0.002572 -0.957748 0.000000
vn  0.002572 0.957514 0.000000
vn  0.829378 -0.478406 0.000000
# 30 vertex normals

g Object_0
s 1
f 4/2/3 19/1/4 22/3/2 26/4/1
f 23/6/5 10/5/7 7/7/8 21/8/6
f 2/10/9 8/9/11 11/11/12 1/12/10
f 14/14/13 11/13/12 8/15/11 5/16/14
f 10/18/7 13/17/15 16/19/16 7/20/8
f 1/22/10 11/21/12 14/23/13 30/24/17
f 30/26/17 14/25/13 17/27/19 29/28/18
f 6/30/20 21/29/6 26/31/1 3/32/21
f 23/34/5 25/33/22 13/35/15 10/36/7
f 23/38/5 21/37/6 6/39/20 9/40/23
f 29/42/18 17/41/19 20/43/25 28/44/24
f 25/46/22 23/45/5 9/47/23 12/48/26
f 24/50/27 25/49/22 12/51/26 15/52/28
f 19/54/4 4/53/3 7/55/8 16/56/16
f 22/58/2 19/57/4 16/59/16 24/60/27
f 28/62/24 20/61/25 5/63/14 27/64/29
f 4/66/3 26/65/1 21/67/6 7/68/8
f 27/70/29 5/69/14 8/71/11 2/72/9
f 22/74/2 24/73/27 15/75/28 18/76/30
f 5/78/14 20/77/25 17/79/19 14/80/13
f 24/82/27 16/81/16 13/83/15 25/84/22
f 22/86/2 18/85/30 3/87/21 26/88/1
f 18/90/30 15/89/28 30/91/17 29/92/18
f 15/94/28 12/93/26 1/95/10 30/96/17
f 12/98/26 9/97/23 2/99/9 1/100/10
f 9/102/23 6/101/20 27/103/29 2/104/9
f 6/106/20 3/105/21 28/107/24 27/108/29
f 3/110/21 18/109/30 29/111/18 28/112/24
# 28 faces

g
