# Wavefront OBJ exported by RE2MV
#
# object Object_0 to come ...
#
v  -18.000000 -12.860000 18.780001
v  -18.000000 -19.280001 18.780001
v  -18.000000 -12.860000 12.840000
v  -18.000000 -19.280001 12.840000
v  -18.000000 -12.860000 7.700000
v  -18.000000 -19.280001 7.700000
v  -18.000000 -12.860000 2.560000
v  -18.000000 -19.280001 2.560000
v  -18.000000 -12.860000 -2.580000
v  -18.000000 -19.280001 -2.580000
v  -18.000000 -12.860000 -7.720000
v  -18.000000 -19.280001 -7.720000
v  -18.000000 -19.280001 -18.639999
v  -18.000000 -12.860000 -18.639999
v  -18.000000 -12.860000 -12.860000
v  -18.000000 -19.280001 -12.860000
v  -18.000000 -7.720000 18.780001
v  -18.000000 -7.720000 12.840000
v  -18.000000 -7.720000 7.700000
v  -18.000000 -7.720000 2.560000
v  -18.000000 -7.720000 -2.580000
v  -18.000000 -7.720000 -7.720000
v  -18.000000 -7.720000 -18.639999
v  -18.000000 -7.720000 -12.860000
v  -18.000000 -2.580000 18.780001
v  -18.000000 -2.580000 12.840000
v  -18.000000 -2.580000 7.700000
v  -18.000000 -2.580000 2.560000
v  -18.000000 -2.580000 -2.580000
v  -18.000000 -2.580000 -7.720000
v  -18.000000 -2.580000 -18.639999
v  -18.000000 -2.580000 -12.860000
v  -18.000000 2.560000 18.780001
v  -18.000000 2.560000 12.840000
v  -18.000000 2.560000 7.700000
v  -18.000000 2.560000 2.560000
v  -18.000000 2.560000 -2.580000
v  -18.000000 2.560000 -7.720000
v  -18.000000 2.560000 -18.639999
v  -18.000000 2.560000 -12.860000
v  -18.000000 7.700000 18.780001
v  -18.000000 7.700000 12.840000
v  -18.000000 7.700000 7.700000
v  -18.000000 7.700000 2.560000
v  -18.000000 7.700000 -2.580000
v  -18.000000 7.700000 -7.720000
v  -18.000000 7.700000 -18.639999
v  -18.000000 7.700000 -12.860000
v  -12.860000 17.980000 18.780001
v  -18.000000 17.980000 18.780001
v  -18.000000 12.840000 18.780001
v  -18.000000 12.840000 12.840000
v  -18.000000 17.980000 12.840000
v  -12.860000 17.980000 12.840000
v  -18.000000 12.840000 7.700000
v  -18.000000 17.980000 7.700000
v  -12.860000 17.980000 7.700000
v  -18.000000 12.840000 2.560000
v  -18.000000 17.980000 2.560000
v  -12.860000 17.980000 2.560000
v  -18.000000 12.840000 -2.580000
v  -18.000000 17.980000 -2.580000
v  -12.860000 17.980000 -2.580000
v  -18.000000 12.840000 -7.720000
v  -18.000000 17.980000 -7.720000
v  -12.860000 17.980000 -7.720000
v  -12.860000 17.980000 -18.639999
v  -18.000000 12.840000 -18.639999
v  -18.000000 17.980000 -18.639999
v  -18.000000 12.840000 -12.860000
v  -18.000000 17.980000 -12.860000
v  -12.860000 17.980000 -12.860000
v  -7.720000 17.980000 18.780001
v  -7.720000 17.980000 12.840000
v  -7.720000 17.980000 7.700000
v  -7.720000 17.980000 2.560000
v  -7.720000 17.980000 -2.580000
v  -7.720000 17.980000 -7.720000
v  -7.720000 17.980000 -18.639999
v  -7.720000 17.980000 -12.860000
v  -2.580000 17.980000 18.780001
v  -2.580000 17.980000 12.840000
v  -2.580000 17.980000 7.700000
v  -2.580000 17.980000 2.560000
v  -2.580000 17.980000 -2.580000
v  -2.580000 17.980000 -7.720000
v  -2.580000 17.980000 -18.639999
v  -2.580000 17.980000 -12.860000
v  2.560000 17.980000 18.780001
v  2.560000 17.980000 12.840000
v  2.560000 17.980000 7.700000
v  2.560000 17.980000 2.560000
v  2.560000 17.980000 -2.580000
v  2.560000 17.980000 -7.720000
v  2.560000 17.980000 -18.639999
v  2.560000 17.980000 -12.860000
v  7.700000 17.980000 18.780001
v  7.700000 17.980000 12.840000
v  7.700000 17.980000 7.700000
v  7.700000 17.980000 2.560000
v  7.700000 17.980000 -2.580000
v  7.700000 17.980000 -7.720000
v  7.700000 17.980000 -18.639999
v  7.700000 17.980000 -12.860000
v  12.840000 17.980000 18.780001
v  18.620001 17.980000 18.780001
v  18.620001 17.980000 12.840000
v  12.840000 17.980000 12.840000
v  18.620001 17.980000 7.700000
v  12.840000 17.980000 7.700000
v  18.620001 17.980000 2.560000
v  12.840000 17.980000 2.560000
v  18.620001 17.980000 -2.580000
v  12.840000 17.980000 -2.580000
v  18.620001 17.980000 -7.720000
v  12.840000 17.980000 -7.720000
v  18.620001 17.980000 -18.639999
v  18.620001 17.980000 -12.860000
v  12.840000 17.980000 -18.639999
v  12.840000 17.980000 -12.860000
v  -18.540001 -18.459999 17.980000
v  17.980000 -18.459999 17.980000
v  -18.540001 18.620001 17.980000
v  17.980000 18.620001 17.980000
v  -18.540001 -18.459999 -18.000000
v  17.980000 -18.459999 -18.000000
v  -18.540001 18.620001 -18.000000
v  17.980000 18.620001 -18.000000
v  0.000000 0.000000 17.980000
v  0.000000 0.000000 -18.000000
v  17.980000 0.000000 0.000000
v  0.000000 -18.459999 0.000000
# 132 vertices

vt  0.984375 0.996078
vt  0.507813 0.831373
vt  0.984375 0.674510
vt  0.960938 1.000000
vt  0.484375 0.839216
vt  0.960938 0.678431
vt  0.984375 1.000000
vt  0.484375 0.839216
vt  0.984375 0.678431
vt  0.015625 0.658824
vt  0.015625 0.341176
vt  0.500000 0.498039
vt  0.992188 0.341176
vt  0.500000 0.498039
vt  0.015625 0.341176
vt  0.992188 0.341176
vt  0.992188 0.658824
vt  0.500000 0.498039
vt  0.960938 1.000000
vt  0.015625 1.000000
vt  0.484375 0.839216
vt  0.015625 0.678431
vt  0.484375 0.839216
vt  0.015625 1.000000
vt  0.015625 0.678431
vt  0.484375 0.839216
vt  0.015625 1.000000
vt  0.000000 0.666667
vt  0.507813 0.831373
vt  0.000000 1.000000
vt  0.015625 0.678431
vt  0.960938 0.678431
vt  0.484375 0.839216
vt  0.015625 0.658824
vt  0.500000 0.498039
vt  0.992188 0.658824
vt  0.984375 0.996078
vt  0.000000 1.000000
vt  0.507813 0.831373
vt  0.000000 0.666667
vt  0.984375 0.674510
vt  0.507813 0.831373
vt  0.984375 1.000000
vt  0.015625 1.000000
vt  0.484375 0.839216
vt  0.015625 0.678431
vt  0.984375 0.678431
vt  0.484375 0.839216
vt  0.835938 0.615686
vt  0.835938 0.568627
vt  0.703125 0.615686
vt  0.703125 0.568627
vt  0.812500 0.062745
vt  0.960938 0.062745
vt  0.812500 0.003922
vt  0.960938 0.003922
vt  0.835938 0.568627
vt  0.835938 0.615686
vt  0.992188 0.568627
vt  0.992188 0.615686
vt  0.679688 0.062745
vt  0.812500 0.062745
vt  0.679688 0.003922
vt  0.812500 0.003922
vt  0.835938 0.662745
vt  0.835938 0.615686
vt  0.703125 0.662745
vt  0.703125 0.615686
vt  0.546875 0.062745
vt  0.679688 0.062745
vt  0.546875 0.003922
vt  0.679688 0.003922
vt  0.835938 0.615686
vt  0.835938 0.662745
vt  0.992188 0.615686
vt  0.992188 0.662745
vt  0.414063 0.062745
vt  0.546875 0.062745
vt  0.414063 0.003922
vt  0.546875 0.003922
vt  0.562500 0.388235
vt  0.562500 0.337255
vt  0.429688 0.388235
vt  0.429688 0.337255
vt  0.281250 0.062745
vt  0.414063 0.062745
vt  0.281250 0.003922
vt  0.414063 0.003922
vt  0.562500 0.431373
vt  0.562500 0.388235
vt  0.429688 0.431373
vt  0.429688 0.388235
vt  0.562500 0.478431
vt  0.562500 0.431373
vt  0.429688 0.478431
vt  0.429688 0.431373
vt  0.007813 0.062745
vt  0.148438 0.062745
vt  0.007813 0.003922
vt  0.148438 0.003922
vt  0.148438 0.062745
vt  0.281250 0.062745
vt  0.148438 0.003922
vt  0.281250 0.003922
vt  0.562500 0.525490
vt  0.562500 0.478431
vt  0.429688 0.525490
vt  0.429688 0.478431
vt  0.835938 0.568627
vt  0.835938 0.525490
vt  0.703125 0.568627
vt  0.703125 0.525490
vt  0.835938 0.525490
vt  0.835938 0.568627
vt  0.992188 0.525490
vt  0.992188 0.568627
vt  0.812500 0.105882
vt  0.960938 0.105882
vt  0.812500 0.062745
vt  0.960938 0.062745
vt  0.679688 0.105882
vt  0.812500 0.105882
vt  0.679688 0.062745
vt  0.812500 0.062745
vt  0.546875 0.105882
vt  0.679688 0.105882
vt  0.546875 0.062745
vt  0.679688 0.062745
vt  0.414063 0.105882
vt  0.546875 0.105882
vt  0.414063 0.062745
vt  0.546875 0.062745
vt  0.281250 0.105882
vt  0.414063 0.105882
vt  0.281250 0.062745
vt  0.414063 0.062745
vt  0.562500 0.568627
vt  0.562500 0.525490
vt  0.429688 0.568627
vt  0.429688 0.525490
vt  0.007813 0.105882
vt  0.148438 0.105882
vt  0.007813 0.062745
vt  0.148438 0.062745
vt  0.148438 0.105882
vt  0.281250 0.105882
vt  0.148438 0.062745
vt  0.281250 0.062745
vt  0.562500 0.662745
vt  0.562500 0.615686
vt  0.429688 0.662745
vt  0.429688 0.615686
vt  0.812500 0.152941
vt  0.960938 0.152941
vt  0.812500 0.105882
vt  0.960938 0.105882
vt  0.679688 0.152941
vt  0.812500 0.152941
vt  0.679688 0.105882
vt  0.812500 0.105882
vt  0.546875 0.152941
vt  0.679688 0.152941
vt  0.546875 0.105882
vt  0.679688 0.105882
vt  0.414063 0.152941
vt  0.546875 0.152941
vt  0.414063 0.105882
vt  0.546875 0.105882
vt  0.281250 0.152941
vt  0.414063 0.152941
vt  0.281250 0.105882
vt  0.414063 0.105882
vt  0.835938 0.525490
vt  0.835938 0.478431
vt  0.703125 0.525490
vt  0.703125 0.478431
vt  0.007813 0.152941
vt  0.148438 0.152941
vt  0.007813 0.105882
vt  0.148438 0.105882
vt  0.148438 0.152941
vt  0.281250 0.152941
vt  0.148438 0.105882
vt  0.281250 0.105882
vt  0.835938 0.478431
vt  0.835938 0.525490
vt  0.992188 0.478431
vt  0.992188 0.525490
vt  0.812500 0.196078
vt  0.960938 0.196078
vt  0.812500 0.152941
vt  0.960938 0.152941
vt  0.679688 0.196078
vt  0.812500 0.196078
vt  0.679688 0.152941
vt  0.812500 0.152941
vt  0.546875 0.196078
vt  0.679688 0.196078
vt  0.546875 0.152941
vt  0.679688 0.152941
vt  0.414063 0.196078
vt  0.546875 0.196078
vt  0.414063 0.152941
vt  0.546875 0.152941
vt  0.281250 0.196078
vt  0.414063 0.196078
vt  0.281250 0.152941
vt  0.414063 0.152941
vt  0.562500 0.615686
vt  0.562500 0.568627
vt  0.429688 0.615686
vt  0.429688 0.568627
vt  0.007813 0.196078
vt  0.148438 0.196078
vt  0.007813 0.152941
vt  0.148438 0.152941
vt  0.148438 0.196078
vt  0.281250 0.196078
vt  0.148438 0.152941
vt  0.281250 0.152941
vt  0.703125 0.388235
vt  0.703125 0.337255
vt  0.562500 0.388235
vt  0.562500 0.337255
vt  0.812500 0.243137
vt  0.960938 0.243137
vt  0.812500 0.196078
vt  0.960938 0.196078
vt  0.679688 0.243137
vt  0.812500 0.243137
vt  0.679688 0.196078
vt  0.812500 0.196078
vt  0.546875 0.243137
vt  0.679688 0.243137
vt  0.546875 0.196078
vt  0.679688 0.196078
vt  0.414063 0.243137
vt  0.546875 0.243137
vt  0.414063 0.196078
vt  0.546875 0.196078
vt  0.281250 0.243137
vt  0.414063 0.243137
vt  0.281250 0.196078
vt  0.414063 0.196078
vt  0.835938 0.478431
vt  0.835938 0.431373
vt  0.703125 0.478431
vt  0.703125 0.431373
vt  0.007813 0.243137
vt  0.148438 0.243137
vt  0.007813 0.196078
vt  0.148438 0.196078
vt  0.148438 0.243137
vt  0.281250 0.243137
vt  0.148438 0.196078
vt  0.281250 0.196078
vt  0.835938 0.431373
vt  0.835938 0.478431
vt  0.992188 0.431373
vt  0.992188 0.478431
vt  0.703125 0.431373
vt  0.703125 0.388235
vt  0.562500 0.431373
vt  0.562500 0.388235
vt  0.960938 0.286275
vt  0.812500 0.286275
vt  0.960938 0.333333
vt  0.812500 0.333333
vt  0.812500 0.286275
vt  0.960938 0.286275
vt  0.812500 0.243137
vt  0.960938 0.243137
vt  0.156250 0.388235
vt  0.156250 0.337255
vt  0.023438 0.388235
vt  0.023438 0.337255
vt  0.812500 0.286275
vt  0.679688 0.286275
vt  0.812500 0.333333
vt  0.679688 0.333333
vt  0.679688 0.286275
vt  0.812500 0.286275
vt  0.679688 0.243137
vt  0.812500 0.243137
vt  0.156250 0.431373
vt  0.156250 0.388235
vt  0.023438 0.431373
vt  0.023438 0.388235
vt  0.679688 0.286275
vt  0.546875 0.286275
vt  0.679688 0.333333
vt  0.546875 0.333333
vt  0.546875 0.286275
vt  0.679688 0.286275
vt  0.546875 0.243137
vt  0.679688 0.243137
vt  0.156250 0.478431
vt  0.156250 0.431373
vt  0.023438 0.478431
vt  0.023438 0.431373
vt  0.546875 0.286275
vt  0.414063 0.286275
vt  0.546875 0.333333
vt  0.414063 0.333333
vt  0.414063 0.286275
vt  0.546875 0.286275
vt  0.414063 0.243137
vt  0.546875 0.243137
vt  0.156250 0.525490
vt  0.156250 0.478431
vt  0.023438 0.525490
vt  0.023438 0.478431
vt  0.414063 0.286275
vt  0.281250 0.286275
vt  0.414063 0.333333
vt  0.281250 0.333333
vt  0.281250 0.286275
vt  0.414063 0.286275
vt  0.281250 0.243137
vt  0.414063 0.243137
vt  0.156250 0.568627
vt  0.156250 0.525490
vt  0.023438 0.568627
vt  0.023438 0.525490
vt  0.703125 0.478431
vt  0.703125 0.431373
vt  0.562500 0.478431
vt  0.562500 0.431373
vt  0.835938 0.431373
vt  0.835938 0.388235
vt  0.703125 0.431373
vt  0.703125 0.388235
vt  0.148438 0.286275
vt  0.007813 0.286275
vt  0.148438 0.333333
vt  0.007813 0.333333
vt  0.007813 0.286275
vt  0.148438 0.286275
vt  0.007813 0.243137
vt  0.148438 0.243137
vt  0.281250 0.286275
vt  0.148438 0.286275
vt  0.281250 0.333333
vt  0.148438 0.333333
vt  0.148438 0.286275
vt  0.281250 0.286275
vt  0.148438 0.243137
vt  0.281250 0.243137
vt  0.156250 0.662745
vt  0.156250 0.615686
vt  0.023438 0.662745
vt  0.023438 0.615686
vt  0.156250 0.615686
vt  0.156250 0.568627
vt  0.023438 0.615686
vt  0.023438 0.568627
vt  0.835938 0.388235
vt  0.835938 0.431373
vt  0.992188 0.388235
vt  0.992188 0.431373
vt  0.703125 0.525490
vt  0.703125 0.478431
vt  0.562500 0.525490
vt  0.562500 0.478431
vt  0.703125 0.568627
vt  0.703125 0.525490
vt  0.562500 0.568627
vt  0.562500 0.525490
vt  0.835938 0.388235
vt  0.835938 0.337255
vt  0.703125 0.388235
vt  0.703125 0.337255
vt  0.835938 0.337255
vt  0.835938 0.388235
vt  0.992188 0.337255
vt  0.992188 0.388235
vt  0.703125 0.662745
vt  0.703125 0.615686
vt  0.562500 0.662745
vt  0.562500 0.615686
vt  0.703125 0.615686
vt  0.703125 0.568627
vt  0.562500 0.615686
vt  0.562500 0.568627
vt  0.429688 0.615686
vt  0.429688 0.568627
vt  0.289063 0.615686
vt  0.289063 0.568627
vt  0.429688 0.662745
vt  0.429688 0.615686
vt  0.289063 0.662745
vt  0.289063 0.615686
vt  0.429688 0.568627
vt  0.429688 0.525490
vt  0.289063 0.568627
vt  0.289063 0.525490
vt  0.429688 0.525490
vt  0.429688 0.478431
vt  0.289063 0.525490
vt  0.289063 0.478431
vt  0.429688 0.478431
vt  0.429688 0.431373
vt  0.289063 0.478431
vt  0.289063 0.431373
vt  0.429688 0.431373
vt  0.429688 0.388235
vt  0.289063 0.431373
vt  0.289063 0.388235
vt  0.429688 0.388235
vt  0.429688 0.337255
vt  0.289063 0.388235
vt  0.289063 0.337255
vt  0.289063 0.615686
vt  0.289063 0.568627
vt  0.156250 0.615686
vt  0.156250 0.568627
vt  0.289063 0.662745
vt  0.289063 0.615686
vt  0.156250 0.662745
vt  0.156250 0.615686
vt  0.289063 0.568627
vt  0.289063 0.525490
vt  0.156250 0.568627
vt  0.156250 0.525490
vt  0.289063 0.525490
vt  0.289063 0.478431
vt  0.156250 0.525490
vt  0.156250 0.478431
vt  0.289063 0.478431
vt  0.289063 0.431373
vt  0.156250 0.478431
vt  0.156250 0.431373
vt  0.289063 0.388235
vt  0.289063 0.337255
vt  0.156250 0.388235
vt  0.156250 0.337255
vt  0.289063 0.431373
vt  0.289063 0.388235
vt  0.156250 0.431373
vt  0.156250 0.388235
# 342 texture coordinates

vn  0.000000 0.957514 0.000000
vn  -0.957748 0.000000 0.000000
vn  0.000000 0.957514 0.000000
vn  -0.957748 0.000000 0.000000
vn  0.000000 0.957514 0.000000
vn  -0.957748 0.000000 0.000000
vn  0.000000 0.957514 0.000000
vn  -0.957748 0.000000 0.000000
vn  0.000000 0.957514 0.000000
vn  -0.957748 0.000000 0.000000
vn  0.000000 0.957514 0.000000
vn  0.000000 0.957514 0.000000
vn  -0.957748 0.000000 0.000000
vn  -0.957748 0.000000 0.000000
vn  0.000000 0.957514 0.000000
vn  0.000000 0.957514 0.000000
vn  0.000000 0.957514 0.000000
vn  -0.957748 0.000000 0.000000
vn  -0.957748 0.000000 0.000000
vn  -0.957748 0.000000 0.000000
vn  -0.957748 0.000000 0.000000
vn  -0.957748 0.000000 0.000000
vn  0.000000 0.957514 0.000000
vn  -0.957748 0.000000 0.000000
vn  -0.957748 0.000000 0.000000
vn  0.000000 0.957514 0.000000
vn  -0.957748 0.000000 0.000000
vn  -0.957748 0.000000 0.000000
vn  -0.957748 0.000000 0.000000
vn  -0.957748 0.000000 0.000000
vn  -0.957748 0.000000 0.000000
vn  0.000000 0.957514 0.000000
vn  -0.957748 0.000000 0.000000
vn  -0.957748 0.000000 0.000000
vn  0.000000 0.957514 0.000000
vn  -0.957748 0.000000 0.000000
vn  -0.957748 0.000000 0.000000
vn  -0.957748 0.000000 0.000000
vn  -0.957748 0.000000 0.000000
vn  -0.957748 0.000000 0.000000
vn  0.000000 0.957514 0.000000
vn  -0.957748 0.000000 0.000000
vn  -0.957748 0.000000 0.000000
vn  0.000000 0.957514 0.000000
vn  -0.957748 0.000000 0.000000
vn  -0.957748 0.000000 0.000000
vn  -0.957748 0.000000 0.000000
vn  -0.957748 0.000000 0.000000
vn  -0.957748 0.000000 0.000000
vn  0.000000 0.957514 0.000000
vn  -0.957748 0.000000 0.000000
vn  -0.957748 0.000000 0.000000
vn  0.000000 0.957514 0.000000
vn  0.000000 0.957514 0.000000
vn  -0.957748 0.000000 0.000000
vn  -0.957748 0.000000 0.000000
vn  0.000000 0.957514 0.000000
vn  -0.957748 0.000000 0.000000
vn  -0.957748 0.000000 0.000000
vn  0.000000 0.957514 0.000000
vn  -0.957748 0.000000 0.000000
vn  -0.957748 0.000000 0.000000
vn  0.000000 0.957514 0.000000
vn  -0.957748 0.000000 0.000000
vn  -0.957748 0.000000 0.000000
vn  0.000000 0.957514 0.000000
vn  -0.957748 0.000000 0.000000
vn  -0.957748 0.000000 0.000000
vn  0.000000 0.957514 0.000000
vn  0.000000 0.957514 0.000000
vn  0.000000 0.957514 0.000000
vn  -0.957748 0.000000 0.000000
vn  -0.957748 0.000000 0.000000
vn  -0.957748 0.000000 0.000000
vn  -0.957748 0.000000 0.000000
vn  0.000000 0.957514 0.000000
vn  0.000000 0.957514 0.000000
vn  0.000000 0.957514 0.000000
vn  0.000000 0.957514 0.000000
vn  0.000000 0.957514 0.000000
vn  0.000000 0.957514 0.000000
vn  0.000000 0.957514 0.000000
vn  0.000000 0.957514 0.000000
vn  0.000000 0.957514 0.000000
vn  0.000000 0.957514 0.000000
vn  0.000000 0.957514 0.000000
vn  0.000000 0.957514 0.000000
vn  0.000000 0.957514 0.000000
vn  0.000000 0.957514 0.000000
vn  0.000000 0.957514 0.000000
vn  0.000000 0.957514 0.000000
vn  0.000000 0.957514 0.000000
vn  0.000000 0.957514 0.000000
vn  0.000000 0.957514 0.000000
vn  0.000000 0.957514 0.000000
vn  0.000000 0.957514 0.000000
vn  0.000000 0.957514 0.000000
vn  0.000000 0.957514 0.000000
vn  0.000000 0.000000 0.957514
vn  0.957514 0.000000 0.000000
vn  0.000000 0.000000 -0.957748
vn  0.000000 -0.957748 0.000000
vn  0.000000 -0.957748 0.000000
vn  0.000000 -0.957748 0.000000
vn  0.957514 0.000000 0.000000
vn  0.000000 0.000000 -0.957748
vn  0.957514 0.000000 0.000000
vn  0.000000 0.000000 0.957514
vn  0.957514 0.000000 0.000000
vn  0.000000 -0.957748 0.000000
vn  0.000000 0.000000 0.957514
vn  0.000000 0.000000 0.957514
vn  0.000000 0.000000 -0.957748
vn  0.000000 0.000000 -0.957748
# 114 vertex normals

g Object_0
s 1
f 124/1/99 129/2/99 122/3/99
f 128/4/100 131/5/100 126/6/100
f 127/7/101 130/8/101 125/9/101
f 126/10/102 122/11/102 132/12/102
f 121/13/103 132/14/103 122/15/103
f 121/16/104 125/17/104 132/18/104
f 128/19/105 124/20/105 131/21/105
f 126/22/106 130/23/106 128/24/106
f 122/25/107 131/26/107 124/27/107
f 121/28/108 129/29/108 123/30/108
f 122/31/109 126/32/109 131/33/109
f 126/34/110 132/35/110 125/36/110
f 124/37/111 123/38/111 129/39/111
f 121/40/112 122/41/112 129/42/112
f 127/43/113 128/44/113 130/45/113
f 126/46/114 125/47/114 130/48/114
f 116/50/1 120/49/1 104/51/1 102/52/1
f 1/54/2 3/53/2 4/55/2 2/56/2
f 120/58/3 116/57/3 115/59/3 118/60/3
f 3/62/4 5/61/4 6/63/4 4/64/4
f 120/66/5 119/65/5 103/67/5 104/68/5
f 5/70/6 7/69/6 8/71/6 6/72/6
f 119/74/7 120/73/7 118/75/7 117/76/7
f 7/78/8 9/77/8 10/79/8 8/80/8
f 89/82/9 90/81/9 82/83/9 81/84/9
f 9/86/10 11/85/10 12/87/10 10/88/10
f 90/90/11 91/89/11 83/91/11 82/92/11
f 91/94/12 92/93/12 84/95/12 83/96/12
f 15/98/13 14/97/13 13/99/13 16/100/13
f 11/102/14 15/101/14 16/103/14 12/104/14
f 92/106/15 93/105/15 85/107/15 84/108/15
f 114/110/16 116/109/16 102/111/16 101/112/16
f 116/114/17 114/113/17 113/115/17 115/116/17
f 17/118/18 18/117/18 3/119/18 1/120/18
f 18/122/19 19/121/19 5/123/19 3/124/19
f 19/126/20 20/125/20 7/127/20 5/128/20
f 20/130/21 21/129/21 9/131/21 7/132/21
f 21/134/22 22/133/22 11/135/22 9/136/22
f 93/138/23 94/137/23 86/139/23 85/140/23
f 24/142/24 23/141/24 14/143/24 15/144/24
f 22/146/25 24/145/25 15/147/25 11/148/25
f 96/150/26 95/149/26 87/151/26 88/152/26
f 25/154/27 26/153/27 18/155/27 17/156/27
f 26/158/28 27/157/28 19/159/28 18/160/28
f 27/162/29 28/161/29 20/163/29 19/164/29
f 28/166/30 29/165/30 21/167/30 20/168/30
f 29/170/31 30/169/31 22/171/31 21/172/31
f 112/174/32 114/173/32 101/175/32 100/176/32
f 32/178/33 31/177/33 23/179/33 24/180/33
f 30/182/34 32/181/34 24/183/34 22/184/34
f 114/186/35 112/185/35 111/187/35 113/188/35
f 33/190/36 34/189/36 26/191/36 25/192/36
f 34/194/37 35/193/37 27/195/37 26/196/37
f 35/198/38 36/197/38 28/199/38 27/200/38
f 36/202/39 37/201/39 29/203/39 28/204/39
f 37/206/40 38/205/40 30/207/40 29/208/40
f 94/210/41 96/209/41 88/211/41 86/212/41
f 40/214/42 39/213/42 31/215/42 32/216/42
f 38/218/43 40/217/43 32/219/43 30/220/43
f 97/222/44 98/221/44 90/223/44 89/224/44
f 41/226/45 42/225/45 34/227/45 33/228/45
f 42/230/46 43/229/46 35/231/46 34/232/46
f 43/234/47 44/233/47 36/235/47 35/236/47
f 44/238/48 45/237/48 37/239/48 36/240/48
f 45/242/49 46/241/49 38/243/49 37/244/49
f 110/246/50 112/245/50 100/247/50 99/248/50
f 48/250/51 47/249/51 39/251/51 40/252/51
f 46/254/52 48/253/52 40/255/52 38/256/52
f 112/258/53 110/257/53 109/259/53 111/260/53
f 98/262/54 99/261/54 91/263/54 90/264/54
f 52/266/55 51/265/55 50/267/55 53/268/55
f 51/270/56 52/269/56 42/271/56 41/272/56
f 49/274/57 54/273/57 53/275/57 50/276/57
f 55/278/58 52/277/58 53/279/58 56/280/58
f 52/282/59 55/281/59 43/283/59 42/284/59
f 54/286/60 57/285/60 56/287/60 53/288/60
f 58/290/61 55/289/61 56/291/61 59/292/61
f 55/294/62 58/293/62 44/295/62 43/296/62
f 57/298/63 60/297/63 59/299/63 56/300/63
f 61/302/64 58/301/64 59/303/64 62/304/64
f 58/306/65 61/305/65 45/307/65 44/308/65
f 60/310/66 63/309/66 62/311/66 59/312/66
f 64/314/67 61/313/67 62/315/67 65/316/67
f 61/318/68 64/317/68 46/319/68 45/320/68
f 63/322/69 66/321/69 65/323/69 62/324/69
f 99/326/70 100/325/70 92/327/70 91/328/70
f 108/330/71 110/329/71 99/331/71 98/332/71
f 68/334/72 70/333/72 71/335/72 69/336/72
f 70/338/73 68/337/73 47/339/73 48/340/73
f 70/342/74 64/341/74 65/343/74 71/344/74
f 64/346/75 70/345/75 48/347/75 46/348/75
f 72/350/76 67/349/76 69/351/76 71/352/76
f 66/354/77 72/353/77 71/355/77 65/356/77
f 110/358/78 108/357/78 107/359/78 109/360/78
f 100/362/79 101/361/79 93/363/79 92/364/79
f 101/366/80 102/365/80 94/367/80 93/368/80
f 105/370/81 108/369/81 98/371/81 97/372/81
f 108/374/82 105/373/82 106/375/82 107/376/82
f 104/378/83 103/377/83 95/379/83 96/380/83
f 102/382/84 104/381/84 96/383/84 94/384/84
f 86/386/85 88/385/85 80/387/85 78/388/85
f 88/390/86 87/389/86 79/391/86 80/392/86
f 85/394/87 86/393/87 78/395/87 77/396/87
f 84/398/88 85/397/88 77/399/88 76/400/88
f 83/402/89 84/401/89 76/403/89 75/404/89
f 82/406/90 83/405/90 75/407/90 74/408/90
f 81/410/91 82/409/91 74/411/91 73/412/91
f 78/414/92 80/413/92 72/415/92 66/416/92
f 80/418/93 79/417/93 67/419/93 72/420/93
f 77/422/94 78/421/94 66/423/94 63/424/94
f 76/426/95 77/425/95 63/427/95 60/428/95
f 75/430/96 76/429/96 60/431/96 57/432/96
f 73/434/97 74/433/97 54/435/97 49/436/97
f 74/438/98 75/437/98 57/439/98 54/440/98
# 114 faces

g
