# Wavefront OBJ exported by RE2MV
#
# object Object_0 to come ...
#
v  0.000000 0.140000 2.860000
v  0.000000 0.400000 -2.840000
v  0.000000 0.000000 0.000000
v  -4.220000 1.700000 2.760000
v  4.480000 0.000000 0.000000
v  -4.220000 1.520000 0.200000
v  4.480000 0.400000 -2.840000
v  4.480000 0.140000 2.860000
v  -4.220000 1.940000 -2.620000
# 9 vertices

vt  0.000000 0.866667
vt  0.000000 0.752941
vt  0.492188 0.878431
vt  0.000000 1.000000
vt  0.000000 0.866667
vt  0.492188 1.000000
vt  0.492188 0.878431
vt  0.492188 0.756863
vt  0.984375 0.878431
vt  0.492188 1.000000
vt  0.492188 0.878431
vt  0.992188 1.000000
vt  0.984375 0.878431
vt  0.992188 1.000000
vt  0.492188 0.878431
vt  0.984375 0.756863
vt  0.984375 0.878431
vt  0.492188 0.756863
vt  0.492188 0.878431
vt  0.492188 1.000000
vt  0.000000 0.866667
vt  0.492188 0.756863
vt  0.492188 0.878431
vt  0.000000 0.752941
# 24 texture coordinates

vn  0.167185 0.941848 0.040218
vn  0.326654 0.898122 -0.057755
vn  0.329226 0.896719 0.066173
vn  0.223069 0.921271 0.135151
vn  0.329927 0.889237 0.130474
vn  0.000000 0.957514 0.009353
vn  0.111301 0.949330 -0.055183
vn  0.000000 0.947226 0.139126
vn  0.000000 0.955877 -0.055417
# 9 vertex normals

g Object_0
s 1
f 6/1/3 4/2/2 3/3/1
f 9/4/5 6/5/3 2/6/4
f 3/7/1 1/8/7 5/9/6
f 2/10/4 3/11/1 7/12/8
f 5/13/6 7/14/8 3/15/1
f 8/16/9 5/17/6 1/18/7
f 3/19/1 2/20/4 6/21/3
f 1/22/7 3/23/1 4/24/2
# 8 faces

g
