# Wavefront OBJ exported by RE2MV
#
# object Object_0 to come ...
#
v  -34.939999 71.019997 -1.500000
v  -36.020000 72.099998 -1.980000
v  0.000000 72.099998 -1.980000
v  -1.080000 71.019997 -1.500000
v  -36.020000 72.099998 1.600000
v  -36.020000 0.000000 -1.980000
v  -36.020000 0.000000 1.600000
v  0.000000 0.000000 -1.980000
v  -1.080000 1.060000 -1.500000
v  0.000000 72.099998 1.600000
v  0.000000 0.000000 1.600000
v  -1.080000 71.019997 1.120000
v  -1.080000 1.060000 1.120000
v  -34.939999 1.060000 1.120000
v  -34.939999 71.019997 1.120000
v  -34.939999 1.060000 -1.500000
v  -1.200000 29.160000 -1.320000
v  -35.119999 29.160000 -1.320000
v  -1.200000 37.520000 -1.320000
v  -35.119999 37.520000 -1.320000
v  -1.200000 29.160000 -1.200000
v  -35.119999 29.160000 -1.200000
v  -1.200000 37.520000 -1.200000
v  -35.119999 37.520000 -1.200000
v  -35.419998 61.380001 -0.940000
v  -35.419998 62.299999 -0.940000
v  -0.560000 62.299999 -0.940000
v  -0.560000 61.380001 -0.940000
v  -35.419998 61.380001 0.920000
v  -35.419998 62.299999 0.920000
v  -0.560000 61.380001 0.920000
v  -0.560000 62.299999 0.920000
v  -35.419998 11.160000 -0.940000
v  -35.419998 12.080000 -0.940000
v  -0.560000 12.080000 -0.940000
v  -0.560000 11.160000 -0.940000
v  -35.419998 12.080000 0.920000
v  -0.560000 12.080000 0.920000
v  -35.419998 11.160000 0.920000
v  -0.560000 11.160000 0.920000
v  -4.860000 71.500000 -0.720000
v  -4.160000 0.580000 0.700000
v  -4.160000 71.500000 0.700000
v  -4.860000 0.580000 -0.720000
v  -5.680000 71.500000 0.700000
v  -5.680000 0.580000 0.700000
v  -11.880000 71.500000 -0.720000
v  -11.180000 0.580000 0.700000
v  -11.180000 71.500000 0.700000
v  -11.880000 0.580000 -0.720000
v  -12.700000 71.500000 0.700000
v  -12.700000 0.580000 0.700000
v  -18.360001 71.500000 -0.720000
v  -17.660000 0.580000 0.700000
v  -17.660000 71.500000 0.700000
v  -18.360001 0.580000 -0.720000
v  -19.180000 71.500000 0.700000
v  -19.180000 0.580000 0.700000
v  -24.840000 71.500000 -0.720000
v  -24.139999 0.580000 0.700000
v  -24.139999 71.500000 0.700000
v  -24.840000 0.580000 -0.720000
v  -25.660000 71.500000 0.700000
v  -25.660000 0.580000 0.700000
v  -31.320000 71.500000 -0.720000
v  -30.620001 0.580000 0.700000
v  -30.620001 71.500000 0.700000
v  -31.320000 0.580000 -0.720000
v  -32.139999 71.500000 0.700000
v  -32.139999 0.580000 0.700000
# 70 vertices

vt  0.937500 0.843137
vt  0.953125 0.847059
vt  0.937500 0.815686
vt  0.953125 0.815686
vt  0.914063 0.827451
vt  0.914063 0.815686
vt  0.062500 0.827451
vt  0.062500 0.815686
vt  0.914063 0.752941
vt  0.914063 0.745098
vt  0.914063 0.752941
vt  0.914063 0.745098
vt  0.460938 0.866667
vt  0.460938 0.901961
vt  0.468750 0.866667
vt  0.468750 0.905882
vt  0.039063 0.847059
vt  0.953125 0.847059
vt  0.054688 0.843137
vt  0.937500 0.843137
vt  0.796875 0.780392
vt  0.062500 0.780392
vt  0.796875 0.764706
vt  0.062500 0.764706
vt  0.031250 0.745098
vt  0.031250 0.752941
vt  0.031250 0.745098
vt  0.031250 0.752941
vt  0.054688 0.815686
vt  0.039063 0.815686
vt  0.054688 0.843137
vt  0.039063 0.847059
vt  0.039063 0.815686
vt  0.054688 0.815686
vt  0.953125 0.815686
vt  0.937500 0.815686
vt  0.796875 0.780392
vt  0.796875 0.764706
vt  0.062500 0.780392
vt  0.062500 0.764706
vt  0.031250 0.745098
vt  0.031250 0.752941
vt  0.914063 0.745098
vt  0.914063 0.752941
vt  0.117188 0.901961
vt  0.117188 0.905882
vt  0.460938 0.901961
vt  0.468750 0.905882
vt  0.117188 0.866667
vt  0.117188 0.866667
vt  0.468750 0.866667
vt  0.460938 0.866667
vt  0.796875 0.780392
vt  0.796875 0.764706
vt  0.796875 0.780392
vt  0.796875 0.764706
vt  0.117188 0.866667
vt  0.117188 0.866667
vt  0.117188 0.901961
vt  0.117188 0.905882
vt  0.031250 0.819608
vt  0.031250 0.862745
vt  0.960938 0.819608
vt  0.960938 0.862745
vt  0.421875 0.819608
vt  0.039063 0.819608
vt  0.421875 0.858824
vt  0.039063 0.858824
vt  0.664063 0.854902
vt  0.664063 0.858824
vt  0.257813 0.854902
vt  0.257813 0.858824
vt  0.664063 0.858824
vt  0.664063 0.854902
vt  0.257813 0.858824
vt  0.257813 0.854902
vt  0.148438 0.819608
vt  0.148438 0.839216
vt  0.507813 0.819608
vt  0.507813 0.839216
vt  0.234375 0.803922
vt  0.234375 0.807843
vt  0.632813 0.803922
vt  0.632813 0.807843
vt  0.234375 0.807843
vt  0.234375 0.803922
vt  0.632813 0.807843
vt  0.632813 0.803922
vt  0.421875 0.827451
vt  0.421875 0.827451
vt  0.781250 0.827451
vt  0.781250 0.827451
vt  0.000000 0.988235
vt  0.992188 0.988235
vt  0.000000 0.960784
vt  0.992188 0.960784
vt  0.000000 0.921569
vt  0.000000 0.960784
vt  0.992188 0.921569
vt  0.992188 0.960784
vt  0.000000 0.988235
vt  0.000000 0.921569
vt  0.992188 0.988235
vt  0.992188 0.921569
vt  0.992188 0.929412
vt  0.000000 0.929412
vt  0.992188 0.964706
vt  0.000000 0.964706
vt  0.992188 1.000000
vt  0.992188 0.964706
vt  0.000000 1.000000
vt  0.000000 0.964706
vt  0.992188 0.929412
vt  0.992188 1.000000
vt  0.000000 0.929412
vt  0.000000 1.000000
vt  0.992188 0.941176
vt  0.000000 0.941176
vt  0.992188 0.964706
vt  0.000000 0.964706
vt  0.992188 1.000000
vt  0.992188 0.964706
vt  0.000000 1.000000
vt  0.000000 0.964706
vt  0.992188 0.941176
vt  0.992188 1.000000
vt  0.000000 0.941176
vt  0.000000 1.000000
vt  0.992188 0.941176
vt  0.000000 0.941176
vt  0.992188 0.964706
vt  0.000000 0.964706
vt  0.992188 1.000000
vt  0.992188 0.964706
vt  0.000000 1.000000
vt  0.000000 0.964706
vt  0.992188 0.941176
vt  0.992188 1.000000
vt  0.000000 0.941176
vt  0.000000 1.000000
vt  0.992188 0.941176
vt  0.000000 0.941176
vt  0.992188 0.964706
vt  0.000000 0.964706
vt  0.992188 1.000000
vt  0.992188 0.964706
vt  0.000000 1.000000
vt  0.000000 0.964706
vt  0.992188 0.941176
vt  0.992188 1.000000
vt  0.000000 0.941176
vt  0.000000 1.000000
vt  0.773438 0.764706
vt  0.773438 0.749020
vt  0.210938 0.764706
vt  0.210938 0.749020
# 117 texture coordinates

vn  -0.204831 -0.205065 -0.912853
vn  -0.288540 -0.200154 -0.891108
vn  -0.499451 -0.499684 -0.646760
vn  0.167185 -0.576613 -0.746136
vn  0.499217 0.499451 -0.646760
vn  0.000000 0.803891 -0.520261
vn  0.499217 0.499451 0.646527
vn  0.000000 0.803891 0.520027
vn  -0.677158 0.277317 -0.617766
vn  -0.957748 0.000000 0.000000
vn  -0.957748 0.000000 0.000000
vn  -0.167419 -0.576613 0.745902
vn  0.499217 -0.499684 0.646527
vn  0.288306 -0.200154 0.890874
vn  0.204597 -0.205065 0.912620
vn  -0.204831 0.204831 -0.912853
vn  -0.803891 0.000000 -0.520495
vn  0.957514 0.000000 0.000000
vn  0.676924 0.277317 0.617532
vn  0.957514 0.000000 0.000000
vn  0.957514 0.000000 0.000000
vn  0.391657 0.000000 -0.873805
vn  -0.957748 0.000000 0.000000
vn  -0.803891 0.000000 0.520261
vn  0.000000 0.957514 0.000000
vn  0.000000 0.957514 0.000000
vn  0.000000 0.957514 0.000000
vn  0.000000 0.957514 0.000000
vn  0.204597 0.204831 0.912620
vn  -0.391891 0.000000 0.873571
vn  0.000000 0.000000 -0.957748
vn  0.000000 0.000000 -0.957748
vn  0.000000 0.000000 -0.957748
vn  0.000000 0.000000 -0.957748
vn  0.000000 0.000000 0.957514
vn  0.000000 0.000000 0.957514
vn  0.000000 0.000000 0.957514
vn  0.000000 0.000000 0.957514
vn  0.000000 0.000000 -0.957748
vn  0.000000 0.000000 -0.957748
vn  0.000000 0.000000 -0.957748
vn  0.000000 0.000000 -0.957748
vn  0.000000 0.000000 0.957514
vn  0.000000 0.000000 0.957514
vn  0.000000 0.000000 0.957514
vn  0.000000 0.000000 0.957514
vn  0.000000 0.957514 0.000000
vn  0.000000 0.957514 0.000000
vn  0.000000 0.957514 0.000000
vn  0.000000 0.957514 0.000000
vn  0.000000 0.000000 -0.957748
vn  0.000000 0.000000 -0.957748
vn  0.000000 0.000000 -0.957748
vn  0.000000 0.000000 -0.957748
vn  0.000000 0.000000 0.957514
vn  0.000000 0.000000 0.957514
vn  0.000000 0.676924 0.676924
vn  0.000000 0.676924 0.676924
vn  0.000000 0.957514 0.000000
vn  0.000000 0.957514 0.000000
vn  0.857203 0.000000 -0.426731
vn  0.857203 0.000000 -0.426731
vn  0.857203 0.000000 -0.426731
vn  0.857203 0.000000 -0.426731
vn  -0.830781 0.000000 -0.476536
vn  -0.830781 0.000000 -0.476536
vn  -0.830781 0.000000 -0.476536
vn  -0.830781 0.000000 -0.476536
vn  -0.001637 0.000000 0.957514
vn  -0.001637 0.000000 0.957514
vn  -0.001637 0.000000 0.957514
vn  -0.001637 0.000000 0.957514
vn  0.857203 0.000000 -0.426731
vn  0.857203 0.000000 -0.426731
vn  0.857203 0.000000 -0.426731
vn  0.857203 0.000000 -0.426731
vn  -0.830781 0.000000 -0.476536
vn  -0.830781 0.000000 -0.476536
vn  -0.830781 0.000000 -0.476536
vn  -0.830781 0.000000 -0.476536
vn  -0.001637 0.000000 0.957514
vn  -0.001637 0.000000 0.957514
vn  -0.001637 0.000000 0.957514
vn  -0.001637 0.000000 0.957514
vn  0.857203 0.000000 -0.426731
vn  0.857203 0.000000 -0.426731
vn  0.857203 0.000000 -0.426731
vn  0.857203 0.000000 -0.426731
vn  -0.830781 0.000000 -0.476536
vn  -0.830781 0.000000 -0.476536
vn  -0.830781 0.000000 -0.476536
vn  -0.830781 0.000000 -0.476536
vn  -0.001637 0.000000 0.957514
vn  -0.001637 0.000000 0.957514
vn  -0.001637 0.000000 0.957514
vn  -0.001637 0.000000 0.957514
vn  0.857203 0.000000 -0.426731
vn  0.857203 0.000000 -0.426731
vn  0.857203 0.000000 -0.426731
vn  0.857203 0.000000 -0.426731
vn  -0.830781 0.000000 -0.476536
vn  -0.830781 0.000000 -0.476536
vn  -0.830781 0.000000 -0.476536
vn  -0.830781 0.000000 -0.476536
vn  -0.001637 0.000000 0.957514
vn  -0.001637 0.000000 0.957514
vn  -0.001637 0.000000 0.957514
vn  -0.001637 0.000000 0.957514
vn  0.857203 0.000000 -0.426731
vn  0.857203 0.000000 -0.426731
vn  0.857203 0.000000 -0.426731
vn  0.857203 0.000000 -0.426731
vn  -0.830781 0.000000 -0.476536
vn  -0.830781 0.000000 -0.476536
vn  -0.830781 0.000000 -0.476536
vn  -0.830781 0.000000 -0.476536
vn  -0.001637 0.000000 0.957514
vn  -0.001637 0.000000 0.957514
vn  -0.001637 0.000000 0.957514
vn  -0.001637 0.000000 0.957514
vn  0.000000 -0.957748 0.000000
vn  0.000000 -0.957748 0.000000
vn  0.000000 -0.957748 0.000000
vn  0.000000 -0.957748 0.000000
# 124 vertex normals

g Object_0
s 1
f 3/2/1 4/1/3 1/3/4 2/4/2
f 16/6/5 14/5/7 13/7/8 9/8/6
f 6/10/9 7/9/10 5/11/11 2/12/2
f 15/14/13 12/13/12 10/15/14 5/16/15
f 3/18/1 8/17/16 9/19/17 4/20/3
f 16/22/5 1/21/18 15/23/13 14/24/7
f 11/26/19 8/25/20 3/27/21 10/28/14
f 6/30/9 16/29/5 9/31/6 8/32/16
f 16/34/5 6/33/22 2/35/2 1/36/4
f 12/38/23 4/37/3 9/39/17 13/40/24
f 10/42/25 3/41/27 2/43/28 5/44/26
f 7/46/29 14/45/7 15/47/13 5/48/15
f 13/50/24 11/49/30 10/51/14 12/52/12
f 15/54/13 1/53/4 4/55/3 12/56/12
f 11/58/19 13/57/8 14/59/7 7/60/29
f 19/62/31 17/61/33 18/63/34 20/64/32
f 22/66/35 21/65/37 23/67/38 24/68/36
f 27/70/39 28/69/41 25/71/42 26/72/40
f 31/74/43 32/73/45 30/75/46 29/76/44
f 32/78/47 27/77/49 26/79/50 30/80/48
f 35/82/51 36/81/53 33/83/54 34/84/52
f 40/86/55 38/85/57 37/87/58 39/88/56
f 38/90/57 35/89/59 34/91/60 37/92/58
f 43/94/61 42/93/63 44/95/64 41/96/62
f 44/98/65 46/97/67 45/99/68 41/100/66
f 46/102/69 42/101/71 43/103/72 45/104/70
f 49/106/73 48/105/75 50/107/76 47/108/74
f 50/110/77 52/109/79 51/111/80 47/112/78
f 52/114/81 48/113/83 49/115/84 51/116/82
f 55/118/85 54/117/87 56/119/88 53/120/86
f 56/122/89 58/121/91 57/123/92 53/124/90
f 58/126/93 54/125/95 55/127/96 57/128/94
f 61/130/97 60/129/99 62/131/100 59/132/98
f 62/134/101 64/133/103 63/135/104 59/136/102
f 64/138/105 60/137/107 61/139/108 63/140/106
f 67/142/109 66/141/111 68/143/112 65/144/110
f 68/146/113 70/145/115 69/147/116 65/148/114
f 70/150/117 66/149/119 67/151/120 69/152/118
f 29/154/121 25/153/123 28/155/124 31/156/122
# 39 faces

g
