# Wavefront OBJ exported by RE2MV
#
# object Object_0 to come ...
#
v  0.320000 -0.060000 0.040000
v  0.320000 -0.160000 0.040000
v  -0.320000 -0.060000 0.040000
v  -0.320000 -0.160000 0.040000
v  -0.920000 -0.060000 0.380000
v  -0.920000 -0.160000 0.380000
v  -1.240000 -0.060000 0.960000
v  -1.240000 -0.160000 0.960000
v  -1.260000 -0.060000 1.640000
v  -1.260000 -0.160000 1.640000
v  -0.920000 -0.060000 2.220000
v  -0.920000 -0.160000 2.220000
v  -0.340000 -0.060000 2.560000
v  -0.340000 -0.160000 2.560000
v  0.300000 -0.060000 2.560000
v  0.300000 -0.160000 2.560000
v  0.880000 -0.060000 2.220000
v  0.880000 -0.160000 2.220000
v  1.220000 -0.060000 1.640000
v  1.220000 -0.160000 1.640000
v  1.240000 -0.060000 0.960000
v  1.240000 -0.160000 0.960000
v  0.900000 -0.060000 0.380000
v  0.900000 -0.160000 0.380000
v  -0.120000 -0.160000 -0.040000
v  0.100000 -0.160000 -0.040000
v  0.100000 -0.160000 0.040000
v  0.100000 -0.060000 0.040000
v  -0.120000 -0.060000 0.040000
v  -0.120000 -0.160000 0.040000
v  -0.100000 -0.060000 0.160000
v  -0.300000 -0.060000 0.160000
v  0.800000 -0.060000 0.460000
v  0.280000 -0.060000 0.160000
v  0.280000 -0.060000 2.420000
v  0.800000 -0.060000 2.120000
v  0.080000 -0.060000 0.160000
v  -0.300000 -0.060000 2.420000
v  -1.120000 -0.060000 1.600000
v  -0.820000 -0.060000 2.120000
v  -1.120000 -0.060000 0.980000
v  -0.820000 -0.060000 0.460000
v  1.100000 -0.060000 1.600000
v  1.100000 -0.060000 0.980000
v  0.280000 -0.220000 0.160000
v  0.080000 -0.220000 0.160000
v  0.800000 -0.220000 2.120000
v  1.100000 -0.220000 1.600000
v  1.100000 -0.220000 0.980000
v  0.800000 -0.220000 0.460000
v  -0.820000 -0.220000 2.120000
v  -0.300000 -0.220000 2.420000
v  -0.300000 -0.220000 0.160000
v  -0.820000 -0.220000 0.460000
v  -1.120000 -0.220000 1.600000
v  -1.120000 -0.220000 0.980000
v  0.280000 -0.220000 2.420000
v  -0.100000 -0.220000 0.160000
v  0.100000 0.120000 0.040000
v  -0.120000 0.120000 0.040000
v  -0.120000 0.120000 -0.040000
v  0.100000 0.120000 -0.040000
v  -0.820000 -0.220000 1.520000
v  0.820000 -0.220000 1.520000
v  -0.700000 -0.100000 1.420000
v  0.680000 -0.100000 1.420000
v  -0.820000 -0.220000 1.060000
v  0.820000 -0.220000 1.060000
v  -0.700000 -0.100000 1.160000
v  0.680000 -0.100000 1.160000
v  1.180000 -6.020000 -0.180000
v  1.120000 -0.600000 -0.960000
v  2.020000 -4.260000 -0.540000
v  2.640000 -7.940000 0.080000
v  0.000000 -0.060000 0.040000
v  0.080000 -0.540000 -1.000000
v  0.700000 -4.180000 -0.600000
v  1.820000 -7.880000 0.060000
v  1.560000 -2.160000 -0.980000
v  0.240000 -2.080000 -1.020000
v  2.400000 -6.080000 -0.140000
v  2.300000 -8.140000 0.260000
v  -1.120000 -0.060000 1.220000
v  -1.240000 -0.060000 1.380000
v  -1.240000 -0.060000 1.220000
v  -1.120000 -0.060000 1.380000
v  -1.120000 0.040000 1.380000
v  -1.240000 0.040000 1.380000
v  -1.240000 0.040000 1.220000
v  -1.120000 0.040000 1.220000
# 90 vertices

vt  0.531250 0.482353
vt  0.531250 0.482353
vt  0.531250 0.498039
vt  0.000000 0.258824
vt  0.000000 0.258824
vt  0.000000 0.294118
vt  0.445313 0.482353
vt  0.445313 0.498039
vt  0.445313 0.482353
vt  0.039063 0.262745
vt  0.039063 0.294118
vt  0.039063 0.262745
vt  0.367188 0.462745
vt  0.445313 0.462745
vt  0.156250 0.423529
vt  0.601563 0.462745
vt  0.804688 0.423529
vt  0.523438 0.462745
vt  0.460938 0.113725
vt  0.554688 0.074510
vt  0.460938 0.011765
vt  0.023438 0.003922
vt  0.015625 0.117647
vt  0.000000 0.070588
vt  0.000000 0.352941
vt  0.000000 0.317647
vt  0.000000 0.352941
vt  0.039063 0.349020
vt  0.039063 0.349020
vt  0.039063 0.317647
vt  0.921875 0.352941
vt  0.804688 0.423529
vt  0.921875 0.262745
vt  0.804688 0.192157
vt  0.125000 0.435294
vt  0.351563 0.482353
vt  0.125000 0.435294
vt  0.351563 0.482353
vt  0.367188 0.462745
vt  0.445313 0.462745
vt  0.367188 0.462745
vt  0.445313 0.462745
vt  0.000000 0.352941
vt  0.125000 0.435294
vt  0.000000 0.352941
vt  0.125000 0.435294
vt  0.445313 0.498039
vt  0.531250 0.498039
vt  0.445313 0.498039
vt  0.531250 0.498039
vt  0.804688 0.192157
vt  0.601563 0.145098
vt  0.804688 0.192157
vt  0.601563 0.149020
vt  0.125000 0.176471
vt  0.000000 0.258824
vt  0.125000 0.176471
vt  0.000000 0.258824
vt  0.351563 0.129412
vt  0.125000 0.176471
vt  0.351563 0.129412
vt  0.125000 0.176471
vt  0.531250 0.482353
vt  0.445313 0.482353
vt  0.531250 0.482353
vt  0.445313 0.482353
vt  0.445313 0.482353
vt  0.531250 0.482353
vt  0.445313 0.498039
vt  0.531250 0.498039
vt  0.617188 0.129412
vt  0.351563 0.129412
vt  0.617188 0.129412
vt  0.351563 0.129412
vt  0.367188 0.145098
vt  0.156250 0.188235
vt  0.367188 0.149020
vt  0.156250 0.192157
vt  0.843750 0.180392
vt  0.617188 0.129412
vt  0.843750 0.176471
vt  0.617188 0.129412
vt  0.921875 0.352941
vt  0.921875 0.262745
vt  0.921875 0.352941
vt  0.921875 0.266667
vt  0.968750 0.258824
vt  0.843750 0.180392
vt  0.968750 0.258824
vt  0.843750 0.176471
vt  0.804688 0.423529
vt  0.921875 0.352941
vt  0.804688 0.427451
vt  0.921875 0.352941
vt  0.968750 0.352941
vt  0.968750 0.258824
vt  0.968750 0.352941
vt  0.968750 0.258824
vt  0.921875 0.262745
vt  0.804688 0.192157
vt  0.921875 0.266667
vt  0.804688 0.192157
vt  0.843750 0.435294
vt  0.968750 0.352941
vt  0.843750 0.435294
vt  0.968750 0.352941
vt  0.523438 0.462745
vt  0.601563 0.462745
vt  0.523438 0.462745
vt  0.601563 0.462745
vt  0.617188 0.482353
vt  0.843750 0.435294
vt  0.617188 0.482353
vt  0.843750 0.435294
vt  0.531250 0.482353
vt  0.445313 0.482353
vt  0.523438 0.462745
vt  0.445313 0.462745
vt  0.601563 0.462745
vt  0.804688 0.423529
vt  0.601563 0.462745
vt  0.804688 0.427451
vt  0.531250 0.482353
vt  0.531250 0.482353
vt  0.617188 0.482353
vt  0.617188 0.482353
vt  0.351563 0.482353
vt  0.351563 0.482353
vt  0.445313 0.482353
vt  0.445313 0.482353
vt  0.445313 0.462745
vt  0.523438 0.462745
vt  0.445313 0.462745
vt  0.523438 0.462745
vt  0.156250 0.423529
vt  0.367188 0.462745
vt  0.156250 0.423529
vt  0.367188 0.462745
vt  0.601563 0.149020
vt  0.601563 0.145098
vt  0.367188 0.149020
vt  0.367188 0.145098
vt  0.156250 0.188235
vt  0.039063 0.262745
vt  0.156250 0.192157
vt  0.039063 0.262745
vt  0.039063 0.349020
vt  0.156250 0.423529
vt  0.039063 0.349020
vt  0.156250 0.423529
vt  0.445313 0.482353
vt  0.351563 0.482353
vt  0.445313 0.462745
vt  0.367188 0.462745
vt  0.617188 0.482353
vt  0.531250 0.482353
vt  0.601563 0.462745
vt  0.523438 0.462745
vt  0.000000 0.294118
vt  0.000000 0.258824
vt  0.039063 0.294118
vt  0.039063 0.262745
vt  0.039063 0.349020
vt  0.156250 0.423529
vt  0.000000 0.352941
vt  0.125000 0.435294
vt  0.351563 0.482353
vt  0.125000 0.435294
vt  0.367188 0.462745
vt  0.156250 0.423529
vt  0.531250 0.498039
vt  0.531250 0.498039
vt  0.531250 0.482353
vt  0.531250 0.482353
vt  0.445313 0.498039
vt  0.445313 0.498039
vt  0.445313 0.482353
vt  0.445313 0.482353
vt  0.125000 0.176471
vt  0.156250 0.192157
vt  0.000000 0.258824
vt  0.039063 0.262745
vt  0.843750 0.435294
vt  0.617188 0.482353
vt  0.804688 0.427451
vt  0.601563 0.462745
vt  0.968750 0.352941
vt  0.843750 0.435294
vt  0.921875 0.352941
vt  0.804688 0.427451
vt  0.968750 0.258824
vt  0.968750 0.352941
vt  0.921875 0.266667
vt  0.921875 0.352941
vt  0.843750 0.180392
vt  0.968750 0.258824
vt  0.804688 0.192157
vt  0.921875 0.266667
vt  0.617188 0.129412
vt  0.843750 0.180392
vt  0.601563 0.149020
vt  0.804688 0.192157
vt  0.351563 0.129412
vt  0.617188 0.129412
vt  0.367188 0.149020
vt  0.601563 0.149020
vt  0.125000 0.176471
vt  0.351563 0.129412
vt  0.156250 0.192157
vt  0.367188 0.149020
vt  0.562500 0.011765
vt  0.992188 0.011765
vt  0.593750 0.035294
vt  0.960938 0.035294
vt  0.984375 0.039216
vt  0.984375 0.086275
vt  0.953125 0.047059
vt  0.953125 0.074510
vt  0.992188 0.125490
vt  0.554688 0.125490
vt  0.960938 0.101961
vt  0.593750 0.101961
vt  0.570313 0.082353
vt  0.570313 0.039216
vt  0.601563 0.074510
vt  0.601563 0.050980
vt  0.960938 0.101961
vt  0.593750 0.101961
vt  0.960938 0.035294
vt  0.593750 0.035294
vt  0.351563 0.113725
vt  0.359375 0.007843
vt  0.234375 0.117647
vt  0.234375 0.007843
vt  0.343750 0.109804
vt  0.359375 0.011765
vt  0.460938 0.105882
vt  0.445313 0.011765
vt  0.125000 0.003922
vt  0.117188 0.117647
vt  0.234375 0.007843
vt  0.218750 0.117647
vt  0.125000 0.003922
vt  0.023438 0.003922
vt  0.117188 0.117647
vt  0.015625 0.117647
vt  0.000000 0.352941
vt  0.000000 0.317647
vt  0.039063 0.349020
vt  0.039063 0.317647
vt  0.039063 0.262745
vt  0.039063 0.349020
vt  0.039063 0.294118
vt  0.039063 0.317647
vt  0.039063 0.294118
vt  0.039063 0.317647
vt  0.000000 0.294118
vt  0.000000 0.317647
vt  0.000000 0.352941
vt  0.000000 0.258824
vt  0.000000 0.317647
vt  0.000000 0.294118
vt  0.039063 0.294118
vt  0.000000 0.294118
vt  0.039063 0.294118
vt  0.000000 0.294118
vt  0.000000 0.317647
vt  0.039063 0.317647
vt  0.000000 0.317647
vt  0.039063 0.317647
vt  0.039063 0.317647
vt  0.039063 0.294118
vt  0.039063 0.317647
vt  0.039063 0.294118
vt  0.000000 0.294118
vt  0.000000 0.317647
vt  0.000000 0.294118
vt  0.000000 0.317647
vt  0.039063 0.262745
vt  0.156250 0.188235
vt  0.039063 0.349020
vt  0.156250 0.423529
vt  0.804688 0.423529
vt  0.523438 0.462745
vt  0.804688 0.192157
vt  0.601563 0.145098
vt  0.367188 0.145098
vt  0.601563 0.145098
vt  0.445313 0.462745
vt  0.523438 0.462745
vt  0.156250 0.423529
vt  0.156250 0.188235
vt  0.445313 0.462745
vt  0.367188 0.145098
# 228 texture coordinates

vn  0.000000 0.957514 0.000000
vn  0.000000 0.957514 0.000000
vn  0.000000 0.957514 0.000000
vn  0.000000 0.957514 0.000000
vn  0.636706 0.636004 0.326420
vn  0.957514 0.000000 0.012627
vn  0.957514 0.000000 0.012627
vn  -0.249024 0.000000 -0.924778
vn  -0.249024 0.000000 -0.924778
vn  -0.678327 0.000000 -0.676222
vn  -0.602567 0.439825 -0.600463
vn  0.000468 0.428134 0.856502
vn  0.000468 0.428134 0.856502
vn  0.248790 0.000000 0.924545
vn  0.248790 0.000000 0.924545
vn  -0.943017 0.000000 -0.167653
vn  -0.924545 0.000000 -0.249959
vn  -0.002104 0.000000 -0.957748
vn  -0.002104 0.000000 -0.957748
vn  -0.002104 0.000000 -0.957748
vn  -0.002104 0.000000 -0.957748
vn  -0.944420 0.000000 0.159001
vn  -0.957748 0.000000 -0.004677
vn  -0.926649 0.000000 0.242009
vn  -0.221432 0.440059 -0.821194
vn  -0.249491 0.000000 -0.924778
vn  -0.602567 0.439825 -0.600463
vn  -0.678327 0.000000 -0.676222
vn  -0.681366 0.000000 0.672715
vn  -0.681366 0.000000 0.672715
vn  -0.957748 0.000000 0.004677
vn  -0.854631 0.000000 0.432109
vn  -0.957748 0.000000 0.004677
vn  -0.249959 0.000000 0.924311
vn  -0.173498 0.688849 0.641850
vn  -0.551126 0.552061 0.555101
vn  0.551126 0.549957 0.557205
vn  0.676924 0.676924 0.008885
vn  -0.677158 0.676924 0.003274
vn  0.249258 0.000000 0.924545
vn  0.221199 0.440059 0.820960
vn  0.681133 0.000000 -0.672949
vn  0.681133 0.000000 -0.672949
vn  0.249725 0.000000 -0.924545
vn  0.249725 0.000000 -0.924545
vn  0.678093 0.000000 0.675988
vn  0.602334 0.439825 0.600229
vn  -0.924545 0.000000 -0.249959
vn  -0.924545 0.000000 -0.249959
vn  -0.926649 0.000000 0.242009
vn  -0.926649 0.000000 0.242009
vn  0.924311 0.000000 0.249725
vn  0.642318 0.688381 0.173498
vn  -0.605139 0.440059 0.597423
vn  -0.681366 0.000000 0.672715
vn  0.926415 0.000000 -0.242243
vn  0.643721 0.688615 -0.168354
vn  0.681133 0.000000 -0.672949
vn  0.473028 0.688849 -0.467416
vn  -0.222368 0.440293 0.820726
vn  -0.222368 0.440293 0.820726
vn  0.000234 0.676924 0.676924
vn  0.000234 0.796642 0.531017
vn  0.250193 0.000000 -0.924311
vn  0.173732 0.688849 -0.642084
vn  0.000000 0.957514 0.000000
vn  0.000468 0.000000 -0.957748
vn  0.000468 0.000000 -0.957748
vn  0.000468 0.000000 -0.957748
vn  0.000468 0.000000 -0.957748
vn  0.602334 0.439825 0.600229
vn  0.678093 0.000000 0.675988
vn  0.643721 0.688615 -0.168120
vn  0.944186 0.000000 -0.159235
vn  0.642318 0.688381 0.173498
vn  0.942783 0.000000 0.167185
vn  0.864919 0.288540 0.292281
vn  0.000000 0.957514 0.000000
vn  0.000000 0.957514 0.000000
vn  0.000000 0.957514 0.000000
vn  0.000000 0.957514 0.000000
vn  0.000000 0.957514 0.000000
vn  0.000000 0.957514 0.000000
vn  -0.000701 0.676924 0.676924
vn  0.000000 0.957514 0.000000
vn  0.000000 0.957514 0.000000
vn  0.000000 0.957514 0.000000
vn  0.000000 0.957514 0.000000
vn  0.000000 0.957514 0.000000
vn  0.000000 0.957514 0.000000
vn  0.000000 0.957514 0.000000
vn  0.000000 0.957514 0.000000
vn  0.000000 0.957514 0.000000
vn  0.000000 0.957514 0.000000
vn  0.000000 0.957514 0.000000
vn  0.000000 0.957514 0.000000
vn  0.000000 0.957514 0.000000
vn  0.000000 0.957514 0.000000
vn  0.000000 0.957514 0.000000
vn  -0.398906 0.751046 0.439825
vn  -0.264690 0.872635 0.291814
vn  0.398672 0.751046 0.439825
vn  0.264456 0.872635 0.291814
vn  0.398672 0.751046 -0.440059
vn  0.264456 0.872635 -0.292048
vn  -0.398906 0.751046 -0.440059
vn  -0.264690 0.872635 -0.292048
vn  0.068745 0.872635 -0.388150
vn  0.068745 0.872635 -0.388150
vn  0.068745 0.872635 -0.388150
vn  -0.030865 0.083943 0.953305
vn  -0.023616 0.192906 0.937639
vn  -0.030865 0.083943 0.953305
vn  -0.023616 0.192906 0.937639
vn  -0.009353 0.383941 0.877078
vn  0.010054 0.614726 0.733977
vn  -0.009353 0.383941 0.877078
vn  -0.037412 -0.017069 0.956579
vn  -0.037412 -0.017069 0.956579
vn  -0.025721 0.162041 0.943251
vn  -0.025721 0.162041 0.943251
vn  -0.907475 0.000000 -0.306311
vn  0.908177 0.302804 0.003741
vn  0.000000 0.957514 0.000000
vn  0.000000 0.957514 0.000000
vn  0.000000 0.957514 0.000000
vn  0.000000 0.957514 0.000000
vn  0.000000 0.957514 0.000000
vn  -0.000935 0.000000 0.957514
vn  0.675287 0.000000 0.678794
vn  -0.005378 0.000000 -0.957748
vn  -0.005378 0.000000 -0.957748
vn  -0.677625 0.000000 -0.676924
vn  0.957514 0.000000 0.003975
vn  -0.957748 0.000000 -0.004677
vn  0.000000 0.957514 0.000000
vn  0.000000 0.957514 0.000000
vn  0.000000 0.957514 0.000000
vn  0.000000 0.957514 0.000000
vn  0.000000 0.957514 0.000000
# 140 vertex normals

g Object_0
s 1
f 27/1/7 26/2/6 28/3/5
f 9/4/24 84/5/23 10/6/22
f 30/7/33 29/8/32 25/9/31
f 39/10/73 55/11/74 86/12/77
f 53/13/80 54/14/79 58/15/78
f 45/16/61 46/17/63 50/18/2
f 76/19/110 75/20/109 72/21/108
f 78/22/117 82/23/116 74/24/115
f 7/25/17 8/26/16 85/27/122
f 41/28/75 83/29/123 56/30/76
f 47/32/1 48/31/3 49/33/4 50/34/2
f 4/36/8 6/35/10 5/37/11 3/38/9
f 31/40/12 32/39/14 53/41/15 58/42/13
f 6/44/10 8/43/16 7/45/17 5/46/11
f 26/48/18 25/47/20 61/49/21 62/50/19
f 35/52/25 36/51/27 47/53/28 57/54/26
f 10/56/22 12/55/29 11/57/30 9/58/24
f 12/60/29 14/59/34 13/61/35 11/62/30
f 29/64/32 28/63/5 59/65/37 60/66/36
f 62/68/38 61/67/39 60/69/36 59/70/37
f 14/72/34 16/71/40 15/73/41 13/74/35
f 40/76/42 38/75/44 52/77/45 51/78/43
f 16/80/40 18/79/46 17/81/47 15/82/41
f 43/84/48 44/83/50 49/85/51 48/86/49
f 18/88/46 20/87/52 19/89/53 17/90/47
f 44/92/50 33/91/54 50/93/55 49/94/51
f 20/96/52 22/95/56 21/97/57 19/98/53
f 36/100/27 43/99/48 48/101/49 47/102/28
f 22/104/56 24/103/58 23/105/59 21/106/57
f 34/108/60 37/107/62 46/109/63 45/110/61
f 24/112/58 2/111/64 1/113/65 23/114/59
f 31/116/12 37/115/62 28/117/5 29/118/66
f 33/120/54 34/119/60 45/121/61 50/122/55
f 1/124/65 2/123/64 27/125/68 28/126/67
f 29/128/69 30/127/70 4/129/8 3/130/9
f 37/132/62 31/131/12 58/133/13 46/134/63
f 32/136/14 42/135/71 54/137/72 53/138/15
f 52/140/45 38/139/44 35/141/25 57/142/26
f 39/144/73 40/143/42 51/145/43 55/146/74
f 42/148/71 41/147/75 56/149/76 54/150/72
f 32/152/81 31/151/83 29/153/66 3/154/82
f 37/156/62 34/155/60 1/157/65 28/158/5
f 39/160/73 86/159/77 84/161/84 9/162/85
f 5/164/11 7/163/87 41/165/75 42/166/86
f 42/168/71 32/167/81 3/169/82 5/170/88
f 59/172/37 28/171/5 26/173/6 62/174/38
f 29/176/32 60/175/36 61/177/39 25/178/31
f 11/180/90 40/179/89 39/181/73 9/182/85
f 34/184/91 33/183/54 23/185/59 1/186/65
f 33/188/93 44/187/92 21/189/57 23/190/59
f 44/192/92 43/191/94 19/193/53 21/194/57
f 43/196/94 36/195/27 17/197/95 19/198/53
f 36/200/97 35/199/96 15/201/41 17/202/47
f 35/204/25 38/203/98 13/205/35 15/206/99
f 38/208/98 40/207/89 11/209/90 13/210/35
f 66/212/103 65/211/101 63/213/100 64/214/102
f 70/216/105 66/215/103 64/217/102 68/218/104
f 69/220/107 70/219/105 68/221/104 67/222/106
f 65/224/101 69/223/107 67/225/106 63/226/100
f 65/228/101 66/227/103 70/229/105 69/230/107
f 79/232/111 80/231/113 77/233/114 73/234/112
f 72/236/119 76/235/118 80/237/113 79/238/111
f 71/240/120 81/239/121 73/241/112 77/242/114
f 71/244/120 78/243/117 74/245/115 81/246/121
f 83/248/123 41/247/75 7/249/87 85/250/124
f 83/252/123 86/251/77 55/253/74 56/254/76
f 89/256/125 88/255/127 87/257/128 90/258/126
f 84/260/23 85/259/122 8/261/16 10/262/22
f 84/264/84 86/263/77 87/265/130 88/266/129
f 83/268/131 85/267/122 89/269/133 90/270/132
f 86/272/77 83/271/123 90/273/134 87/274/130
f 85/276/122 84/275/23 88/277/135 89/278/133
f 54/280/79 56/279/137 55/281/138 51/282/136
f 57/284/139 47/283/1 50/285/2 46/286/63
f 46/288/63 58/287/13 52/289/140 57/290/139
f 54/292/79 51/291/136 52/293/140 58/294/78
# 76 faces

g
