# Wavefront OBJ exported by RE2MV
#
# object Object_0 to come ...
#
v  -0.380000 0.000000 1.720000
v  -0.380000 0.000000 0.580000
v  -1.080000 0.000000 0.580000
v  -1.080000 0.000000 1.720000
v  -1.120000 0.000000 1.760000
v  -1.080000 0.000000 1.780000
v  -1.140000 0.000000 1.720000
v  -1.140000 0.000000 0.580000
v  -0.380000 0.000000 1.780000
v  -0.380000 0.000000 -0.600000
v  -0.380000 0.000000 -1.740000
v  -1.080000 0.000000 -1.740000
v  -1.080000 0.000000 -0.600000
v  -1.120000 0.000000 -1.780000
v  -1.140000 0.000000 -1.740000
v  -1.080000 0.000000 -1.800000
v  -0.380000 0.000000 -1.800000
v  -1.140000 0.000000 -0.600000
v  0.360000 0.000000 0.580000
v  0.360000 0.000000 1.720000
v  1.060000 0.000000 1.720000
v  1.060000 0.000000 0.580000
v  1.100000 0.000000 1.760000
v  1.120000 0.000000 1.720000
v  1.060000 0.000000 1.780000
v  1.120000 0.000000 0.580000
v  0.360000 0.000000 1.780000
v  0.360000 0.000000 -1.740000
v  0.360000 0.000000 -0.600000
v  1.060000 0.000000 -0.600000
v  1.060000 0.000000 -1.740000
v  1.100000 0.000000 -1.780000
v  1.060000 0.000000 -1.800000
v  1.120000 0.000000 -1.740000
v  0.360000 0.000000 -1.800000
v  1.120000 0.000000 -0.600000
# 36 vertices

vt  0.257813 0.411765
vt  0.015625 0.411765
vt  0.257813 0.490196
vt  0.015625 0.490196
vt  0.007813 0.494118
vt  0.015625 0.494118
vt  0.007813 0.490196
vt  0.015625 0.490196
vt  0.257813 0.494118
vt  0.257813 0.490196
vt  0.015625 0.494118
vt  0.015625 0.490196
vt  0.015625 0.411765
vt  0.007813 0.411765
vt  0.015625 0.490196
vt  0.007813 0.490196
vt  0.750000 0.411765
vt  0.507813 0.411765
vt  0.750000 0.490196
vt  0.507813 0.490196
vt  0.507813 0.411765
vt  0.257813 0.411765
vt  0.507813 0.490196
vt  0.257813 0.490196
vt  0.757813 0.494118
vt  0.765625 0.490196
vt  0.750000 0.494118
vt  0.750000 0.490196
vt  0.765625 0.411765
vt  0.750000 0.411765
vt  0.765625 0.490196
vt  0.750000 0.490196
vt  0.507813 0.490196
vt  0.507813 0.494118
vt  0.750000 0.490196
vt  0.750000 0.494118
vt  0.507813 0.494118
vt  0.507813 0.490196
vt  0.257813 0.494118
vt  0.257813 0.490196
vt  0.015625 0.333333
vt  0.257813 0.333333
vt  0.015625 0.254902
vt  0.257813 0.254902
vt  0.257813 0.333333
vt  0.015625 0.333333
vt  0.257813 0.411765
vt  0.015625 0.411765
vt  0.007813 0.254902
vt  0.007813 0.254902
vt  0.015625 0.250980
vt  0.015625 0.254902
vt  0.257813 0.254902
vt  0.257813 0.250980
vt  0.015625 0.254902
vt  0.015625 0.250980
vt  0.007813 0.333333
vt  0.015625 0.333333
vt  0.007813 0.254902
vt  0.015625 0.254902
vt  0.015625 0.333333
vt  0.007813 0.333333
vt  0.015625 0.411765
vt  0.007813 0.411765
vt  0.507813 0.333333
vt  0.750000 0.333333
vt  0.507813 0.254902
vt  0.750000 0.254902
vt  0.750000 0.333333
vt  0.507813 0.333333
vt  0.750000 0.411765
vt  0.507813 0.411765
vt  0.257813 0.333333
vt  0.507813 0.333333
vt  0.257813 0.254902
vt  0.507813 0.254902
vt  0.507813 0.333333
vt  0.257813 0.333333
vt  0.507813 0.411765
vt  0.257813 0.411765
vt  0.757813 0.254902
vt  0.750000 0.250980
vt  0.765625 0.254902
vt  0.750000 0.254902
vt  0.750000 0.333333
vt  0.765625 0.333333
vt  0.750000 0.254902
vt  0.765625 0.254902
vt  0.765625 0.333333
vt  0.750000 0.333333
vt  0.765625 0.411765
vt  0.750000 0.411765
vt  0.507813 0.250980
vt  0.507813 0.254902
vt  0.750000 0.250980
vt  0.750000 0.254902
vt  0.507813 0.254902
vt  0.507813 0.250980
vt  0.257813 0.254902
vt  0.257813 0.250980
# 75 texture coordinates

vn  -0.007249 0.957280 0.019407
vn  -0.007249 0.957514 0.006547
vn  -0.020577 0.957280 0.006547
vn  -0.020577 0.957046 0.019407
vn  -0.032268 0.956579 0.030631
vn  -0.016134 0.956579 0.039049
vn  -0.020577 0.957046 0.019407
vn  -0.041153 0.956579 0.015199
vn  -0.020577 0.957280 0.006547
vn  -0.041153 0.956579 0.005144
vn  -0.041153 0.956579 0.015199
vn  -0.020577 0.957046 0.019407
vn  -0.005612 0.956579 0.039049
vn  -0.007249 0.957280 0.019407
vn  -0.020577 0.957046 0.019407
vn  -0.016134 0.956579 0.039049
vn  -0.007249 0.957514 -0.006781
vn  -0.007249 0.957280 -0.019641
vn  -0.020577 0.957046 -0.019641
vn  -0.020577 0.957280 -0.006781
vn  -0.007249 0.957514 0.006547
vn  -0.007249 0.957514 -0.006781
vn  -0.020577 0.957280 -0.006781
vn  -0.020577 0.957280 0.006547
vn  -0.032268 0.956579 -0.030865
vn  -0.041153 0.956579 -0.015432
vn  -0.020577 0.957046 -0.019641
vn  -0.016134 0.956579 -0.039283
vn  -0.007249 0.957280 -0.019641
vn  -0.005612 0.956579 -0.039283
vn  -0.016134 0.956579 -0.039283
vn  -0.020577 0.957046 -0.019641
vn  -0.041153 0.956579 -0.005378
vn  -0.020577 0.957280 -0.006781
vn  -0.020577 0.957046 -0.019641
vn  -0.041153 0.956579 -0.015432
vn  -0.020577 0.957280 -0.006781
vn  -0.041153 0.956579 -0.005378
vn  -0.041153 0.956579 0.005144
vn  -0.020577 0.957280 0.006547
vn  0.007015 0.957514 0.006547
vn  0.007015 0.957280 0.019407
vn  0.020343 0.957046 0.019407
vn  0.020343 0.957280 0.006547
vn  0.007015 0.957280 0.019407
vn  0.007015 0.957514 0.006547
vn  -0.007249 0.957514 0.006547
vn  -0.007249 0.957280 0.019407
vn  0.032034 0.956579 0.030631
vn  0.040919 0.956579 0.015199
vn  0.020343 0.957046 0.019407
vn  0.015900 0.956579 0.039049
vn  0.041153 0.956579 0.005144
vn  0.020343 0.957280 0.006547
vn  0.020343 0.957046 0.019407
vn  0.040919 0.956579 0.015199
vn  0.007015 0.957280 0.019407
vn  0.005378 0.956579 0.039049
vn  0.015900 0.956579 0.039049
vn  0.020343 0.957046 0.019407
vn  0.005378 0.956579 0.039049
vn  0.007015 0.957280 0.019407
vn  -0.007249 0.957280 0.019407
vn  -0.005612 0.956579 0.039049
vn  0.007015 0.957280 -0.019641
vn  0.007015 0.957514 -0.006781
vn  0.020343 0.957280 -0.006781
vn  0.020343 0.957046 -0.019641
vn  0.007015 0.957514 -0.006781
vn  0.007015 0.957280 -0.019641
vn  -0.007249 0.957280 -0.019641
vn  -0.007249 0.957514 -0.006781
vn  0.007015 0.957514 -0.006781
vn  0.007015 0.957514 0.006547
vn  0.020343 0.957280 0.006547
vn  0.020343 0.957280 -0.006781
vn  0.007015 0.957514 0.006547
vn  0.007015 0.957514 -0.006781
vn  -0.007249 0.957514 -0.006781
vn  -0.007249 0.957514 0.006547
vn  0.032034 0.956579 -0.030865
vn  0.015900 0.956579 -0.039283
vn  0.020343 0.957046 -0.019641
vn  0.040919 0.956579 -0.015432
vn  0.005378 0.956579 -0.039283
vn  0.007015 0.957280 -0.019641
vn  0.020343 0.957046 -0.019641
vn  0.015900 0.956579 -0.039283
vn  0.007015 0.957280 -0.019641
vn  0.005378 0.956579 -0.039283
vn  -0.005612 0.956579 -0.039283
vn  -0.007249 0.957280 -0.019641
vn  0.020343 0.957280 -0.006781
vn  0.041153 0.956579 -0.005378
vn  0.040919 0.956579 -0.015432
vn  0.020343 0.957046 -0.019641
vn  0.041153 0.956579 -0.005378
vn  0.020343 0.957280 -0.006781
vn  0.020343 0.957280 0.006547
vn  0.041153 0.956579 0.005144
# 100 vertex normals

g Object_0
s 1
f 1/2/1 2/1/2 3/3/3 4/4/4
f 7/6/8 5/5/5 6/7/6 4/8/7
f 3/10/9 8/9/10 7/11/11 4/12/12
f 9/14/13 1/13/14 4/15/15 6/16/16
f 10/18/17 11/17/18 12/19/19 13/20/20
f 2/22/21 10/21/22 13/23/23 3/24/24
f 16/26/28 14/25/25 15/27/26 12/28/27
f 11/30/29 17/29/30 16/31/31 12/32/32
f 18/34/33 13/33/34 12/35/35 15/36/36
f 13/38/37 18/37/38 8/39/39 3/40/40
f 19/42/41 20/41/42 21/43/43 22/44/44
f 20/46/45 19/45/46 2/47/47 1/48/48
f 25/50/52 23/49/49 24/51/50 21/52/51
f 26/54/53 22/53/54 21/55/55 24/56/56
f 20/58/57 27/57/58 25/59/59 21/60/60
f 27/62/61 20/61/62 1/63/63 9/64/64
f 28/66/65 29/65/66 30/67/67 31/68/68
f 29/70/69 28/69/70 11/71/71 10/72/72
f 29/74/73 19/73/74 22/75/75 30/76/76
f 19/78/77 29/77/78 10/79/79 2/80/80
f 34/82/84 32/81/81 33/83/82 31/84/83
f 35/86/85 28/85/86 31/87/87 33/88/88
f 28/90/89 35/89/90 17/91/91 11/92/92
f 30/94/93 36/93/94 34/95/95 31/96/96
f 36/98/97 30/97/98 22/99/99 26/100/100
# 25 faces

g
