# Wavefront OBJ exported by RE2MV
#
# object Object_0 to come ...
#
v  -8.280000 0.220000 1.880000
v  -1.180000 0.220000 1.880000
v  -1.200000 0.220000 0.400000
v  -1.180000 1.140000 1.880000
v  -8.280000 1.140000 1.880000
v  -8.280000 1.140000 0.400000
v  -1.200000 1.140000 0.400000
v  -8.280000 0.220000 0.400000
v  -0.880000 0.020000 -3.620000
v  0.700000 0.020000 -3.620000
v  0.700000 0.020000 -9.540000
v  0.700000 1.380000 -3.620000
v  -0.880000 1.380000 -3.620000
v  -0.880000 1.380000 -9.540000
v  0.700000 1.380000 -9.540000
v  -0.880000 0.020000 -9.540000
v  -1.260000 0.000000 4.680000
v  1.180000 0.000000 4.680000
v  1.180000 0.000000 -3.600000
v  1.180000 1.420000 4.680000
v  -1.260000 1.420000 4.680000
v  -1.260000 1.420000 -3.600000
v  1.180000 1.420000 -3.600000
v  -1.260000 0.000000 -3.600000
# 24 vertices

vt  0.546875 0.933333
vt  0.546875 0.933333
vt  0.546875 0.831373
vt  0.546875 0.831373
vt  0.601563 0.933333
vt  0.601563 0.831373
vt  0.601563 0.933333
vt  0.601563 0.831373
vt  0.523438 0.803922
vt  0.523438 0.800000
vt  0.601563 0.803922
vt  0.601563 0.800000
vt  0.390625 0.929412
vt  0.382813 0.929412
vt  0.687500 0.929412
vt  0.695313 0.929412
vt  0.546875 0.831373
vt  0.546875 0.933333
vt  0.601563 0.831373
vt  0.601563 0.933333
vt  0.031250 0.894118
vt  0.125000 0.894118
vt  0.031250 0.835294
vt  0.125000 0.835294
vt  0.015625 0.925490
vt  0.015625 0.972549
vt  0.359375 0.925490
vt  0.359375 0.972549
vt  0.015625 0.968627
vt  0.359375 0.968627
vt  0.015625 0.925490
vt  0.359375 0.925490
vt  0.687500 0.968627
vt  0.695313 0.929412
vt  0.382813 0.968627
vt  0.382813 0.929412
vt  0.367188 0.960784
vt  0.367188 0.929412
vt  0.023438 0.960784
vt  0.023438 0.929412
vt  0.328125 0.964706
vt  0.320313 0.968627
vt  0.328125 0.925490
vt  0.320313 0.925490
vt  0.929688 0.980392
vt  0.921875 0.898039
vt  0.804688 0.980392
vt  0.804688 0.898039
vt  0.203125 0.890196
vt  0.484375 0.890196
vt  0.203125 0.839216
vt  0.484375 0.839216
# 39 texture coordinates

vn  0.000000 0.000000 -0.957748
vn  -0.000234 0.000000 0.957514
vn  -0.957748 0.000000 0.000234
vn  -0.957748 0.000000 0.000000
vn  0.000000 0.957514 0.000000
vn  -0.003274 0.000000 -0.957748
vn  -0.957748 0.000000 0.000234
vn  0.957514 0.000000 0.000468
vn  0.000000 0.957514 0.000000
vn  0.000000 0.957514 0.000000
vn  0.000000 0.000000 -0.957748
vn  0.002104 0.000000 0.957514
vn  0.957514 0.000000 0.000000
# 13 vertex normals

g Object_0
s 1
f 7/2/1 3/1/1 8/3/1 6/4/1
f 1/6/2 2/5/2 4/7/2 5/8/2
f 6/10/3 8/9/3 1/11/3 5/12/3
f 22/14/4 24/13/4 17/15/4 21/16/4
f 7/18/5 6/17/5 5/19/5 4/20/5
f 15/22/6 11/21/6 16/23/6 14/24/6
f 14/26/7 16/25/7 9/27/7 13/28/7
f 10/30/8 11/29/8 15/31/8 12/32/8
f 21/34/9 20/33/9 23/35/9 22/36/9
f 13/38/10 12/37/10 15/39/10 14/40/10
f 23/42/11 19/41/11 24/43/11 22/44/11
f 17/46/12 18/45/12 20/47/12 21/48/12
f 18/50/13 19/49/13 23/51/13 20/52/13
# 13 faces

g
