# Wavefront OBJ exported by RE2MV
#
# object Object_0 to come ...
#
v  0.100000 -12.000000 35.980000
v  -0.120000 -12.000000 35.980000
v  -0.120000 -36.000000 35.980000
v  0.100000 -36.000000 35.980000
v  4.720000 -12.000000 23.980000
v  4.720000 -36.000000 23.980000
v  4.500000 -12.000000 23.980000
v  4.500000 -36.000000 23.980000
v  23.639999 -12.000000 0.000000
v  20.680000 -12.000000 11.980000
v  8.480000 -36.000000 11.980000
v  9.840000 -36.000000 0.000000
v  20.440001 -12.000000 11.980000
v  23.420000 -12.000000 0.000000
v  9.600000 -36.000000 0.000000
v  8.240000 -36.000000 11.980000
v  -0.120000 11.980000 35.980000
v  0.100000 11.980000 35.980000
v  0.100000 35.980000 35.980000
v  -0.120000 35.980000 35.980000
v  4.720000 11.980000 23.980000
v  4.720000 35.980000 23.980000
v  4.500000 11.980000 23.980000
v  4.500000 35.980000 23.980000
v  20.680000 11.980000 11.980000
v  23.639999 11.980000 0.000000
v  9.840000 35.980000 0.000000
v  8.480000 35.980000 11.980000
v  23.420000 11.980000 0.000000
v  20.440001 11.980000 11.980000
v  8.240000 35.980000 11.980000
v  9.600000 35.980000 0.000000
# 32 vertices

vt  0.640625 0.501961
vt  0.984375 0.501961
vt  0.640625 0.670588
vt  0.328125 0.501961
vt  0.640625 0.501961
vt  0.328125 0.670588
vt  0.984375 0.670588
vt  0.984375 0.501961
vt  0.640625 0.670588
vt  0.640625 0.670588
vt  0.640625 0.501961
vt  0.328125 0.670588
vt  0.984375 0.835294
vt  0.984375 1.000000
vt  0.640625 0.835294
vt  0.640625 0.835294
vt  0.640625 1.000000
vt  0.328125 0.835294
vt  0.328125 0.835294
vt  0.328125 0.670588
vt  0.640625 0.835294
vt  0.640625 1.000000
vt  0.984375 1.000000
vt  0.640625 0.835294
vt  0.328125 1.000000
vt  0.640625 1.000000
vt  0.328125 0.835294
vt  0.640625 0.670588
vt  0.328125 0.670588
vt  0.640625 0.835294
vt  0.328125 1.000000
vt  0.328125 0.835294
vt  0.640625 1.000000
vt  0.640625 0.835294
vt  0.328125 0.835294
vt  0.640625 1.000000
vt  0.640625 0.670588
vt  0.328125 0.670588
vt  0.640625 0.501961
vt  0.328125 0.501961
vt  0.328125 0.670588
vt  0.640625 0.501961
vt  0.640625 1.000000
vt  0.640625 0.835294
vt  0.984375 1.000000
vt  0.984375 0.670588
vt  0.640625 0.670588
vt  0.984375 0.501961
vt  0.640625 0.501961
vt  0.640625 0.670588
vt  0.984375 0.501961
vt  0.984375 0.835294
vt  0.640625 0.835294
vt  0.984375 1.000000
vt  0.640625 0.670588
vt  0.640625 0.835294
vt  0.328125 0.670588
vt  0.328125 0.835294
vt  0.640625 0.835294
vt  0.328125 0.670588
vt  0.000000 0.670588
vt  0.000000 0.670588
vt  0.000000 0.501961
vt  0.000000 0.501961
vt  0.000000 0.670588
vt  0.328125 0.670588
vt  0.000000 0.501961
vt  0.328125 0.501961
vt  0.328125 0.670588
vt  0.000000 0.670588
vt  0.328125 0.501961
vt  0.000000 0.501961
vt  0.328125 0.501961
vt  0.328125 0.501961
vt  0.000000 0.501961
vt  0.000000 0.501961
vt  0.640625 0.501961
vt  0.640625 0.501961
vt  0.984375 0.501961
vt  0.984375 0.501961
vt  0.328125 0.501961
vt  0.328125 0.501961
vt  0.640625 0.501961
vt  0.640625 0.501961
vt  0.984375 0.670588
vt  0.984375 0.670588
vt  0.984375 0.501961
vt  0.984375 0.501961
vt  0.000000 0.835294
vt  0.000000 0.835294
vt  0.000000 1.000000
vt  0.000000 1.000000
vt  0.000000 0.835294
vt  0.000000 0.835294
vt  0.000000 0.670588
vt  0.000000 0.670588
vt  0.328125 0.835294
vt  0.000000 0.835294
vt  0.328125 1.000000
vt  0.000000 1.000000
vt  0.000000 0.835294
vt  0.328125 0.835294
vt  0.000000 0.670588
vt  0.328125 0.670588
vt  0.000000 0.835294
vt  0.328125 0.835294
vt  0.000000 1.000000
vt  0.328125 1.000000
vt  0.328125 0.835294
vt  0.000000 0.835294
vt  0.328125 0.670588
vt  0.000000 0.670588
vt  0.640625 0.835294
vt  0.984375 0.835294
vt  0.640625 0.670588
vt  0.984375 0.670588
vt  0.984375 0.835294
vt  0.640625 0.835294
vt  0.984375 0.670588
vt  0.640625 0.670588
vt  0.984375 0.835294
vt  0.984375 0.835294
vt  0.984375 1.000000
vt  0.984375 1.000000
vt  0.984375 0.835294
vt  0.984375 0.835294
vt  0.984375 0.670588
vt  0.984375 0.670588
vt  0.984375 1.000000
vt  0.984375 1.000000
vt  0.640625 1.000000
vt  0.640625 1.000000
vt  0.328125 1.000000
vt  0.328125 1.000000
vt  0.640625 1.000000
vt  0.640625 1.000000
vt  0.328125 1.000000
vt  0.328125 1.000000
vt  0.000000 1.000000
vt  0.000000 1.000000
# 120 texture coordinates

vn  0.000000 0.000000 0.957514
vn  0.000000 0.000000 0.957514
vn  0.000000 0.000000 0.957514
vn  0.000000 0.000000 0.957514
vn  0.736315 -0.059625 0.609114
vn  -0.893680 0.000000 -0.344424
vn  0.893446 0.000000 0.344191
vn  0.893446 0.000000 0.344191
vn  -0.893680 0.000000 -0.344424
vn  -0.893680 0.000000 -0.344424
vn  -0.736549 0.059392 -0.609348
vn  -0.904202 0.000000 -0.315430
vn  0.000000 -0.957748 0.000000
vn  0.000000 -0.957748 0.000000
vn  0.000000 -0.957748 0.000000
vn  0.000000 -0.957748 0.000000
vn  0.780742 -0.249024 0.495008
vn  0.831482 -0.450815 0.149882
vn  0.800150 -0.267262 0.452685
vn  0.903968 0.000000 0.315196
vn  -0.780976 0.248790 -0.495242
vn  -0.831716 0.450581 -0.150116
vn  -0.896018 0.255571 -0.221666
vn  -0.800383 0.267028 -0.452919
vn  0.000000 -0.957748 0.000000
vn  0.000000 -0.957748 0.000000
vn  0.000000 -0.957748 0.000000
vn  0.000000 -0.957748 0.000000
vn  0.000000 0.000000 -0.957748
vn  0.000000 0.000000 -0.957748
vn  0.000000 0.000000 -0.957748
vn  0.000000 0.000000 -0.957748
vn  0.000000 0.000000 0.957514
vn  0.000000 0.000000 0.957514
vn  0.000000 0.000000 0.957514
vn  0.000000 0.000000 0.957514
vn  0.893446 0.000000 0.344191
vn  0.893446 0.000000 0.344191
vn  0.770688 0.074123 0.563051
vn  0.903968 0.000000 0.315196
vn  -0.770922 -0.074356 -0.563285
vn  -0.770922 -0.074356 -0.563285
vn  -0.893680 0.000000 -0.344424
vn  -0.893680 0.000000 -0.344424
vn  -0.893680 0.000000 -0.344424
vn  0.750111 0.200622 0.560011
vn  0.831482 0.450581 0.149882
vn  0.895784 0.255571 0.221432
vn  0.895784 -0.255805 0.221432
vn  0.800150 0.267028 0.452685
vn  -0.750345 -0.200856 -0.560245
vn  -0.831716 -0.450815 -0.150116
vn  -0.800383 -0.267262 -0.452919
vn  -0.896018 -0.255805 -0.221666
vn  -0.904202 0.000000 -0.315430
vn  0.000000 0.000000 -0.957748
vn  0.000000 0.000000 -0.957748
vn  0.000000 0.000000 -0.957748
vn  0.000000 0.000000 -0.957748
vn  0.000000 0.957514 0.000000
vn  0.000000 0.957514 0.000000
vn  0.000000 0.957514 0.000000
vn  0.000000 0.957514 0.000000
vn  0.000000 0.957514 0.000000
vn  0.000000 0.957514 0.000000
vn  0.000000 0.957514 0.000000
vn  0.000000 0.957514 0.000000
# 67 vertex normals

g Object_0
s 1
f 11/1/19 12/2/18 10/3/17
f 6/4/20 11/5/19 5/6/5
f 14/7/23 15/8/22 13/9/21
f 13/10/21 16/11/24 7/12/11
f 26/13/48 27/14/47 25/15/46
f 25/16/46 28/17/50 21/18/39
f 21/19/39 5/20/5 25/21/46
f 31/22/53 32/23/52 30/24/51
f 24/25/55 31/26/53 23/27/42
f 13/28/21 7/29/11 30/30/51
f 22/31/40 21/32/39 28/33/50
f 30/34/51 23/35/42 31/36/53
f 10/37/17 5/38/5 11/39/19
f 8/40/12 7/41/11 16/42/24
f 28/43/50 25/44/46 27/45/47
f 9/46/49 10/47/17 12/48/18
f 16/49/24 13/50/21 15/51/22
f 29/52/54 30/53/51 32/54/52
f 10/55/17 25/56/46 5/57/5
f 23/58/42 30/59/51 7/60/11
f 1/62/1 2/61/3 3/63/4 4/64/2
f 5/66/5 1/65/7 4/67/8 6/68/6
f 2/70/9 7/69/11 8/71/12 3/72/10
f 8/74/13 6/73/15 4/75/16 3/76/14
f 11/78/25 16/77/27 15/79/28 12/80/26
f 6/82/15 8/81/13 16/83/27 11/84/25
f 14/86/29 9/85/31 12/87/32 15/88/30
f 17/90/33 18/89/35 19/91/36 20/92/34
f 18/94/35 17/93/33 2/95/3 1/96/1
f 18/98/37 21/97/39 22/99/40 19/100/38
f 21/102/39 18/101/37 1/103/7 5/104/41
f 23/106/42 17/105/44 20/107/45 24/108/43
f 17/110/44 23/109/42 7/111/11 2/112/9
f 26/114/48 25/113/46 10/115/17 9/116/49
f 30/118/51 29/117/54 14/119/23 13/120/21
f 26/122/56 29/121/58 32/123/59 27/124/57
f 29/126/58 26/125/56 9/127/31 14/128/29
f 27/130/60 32/129/62 31/131/63 28/132/61
f 24/134/65 22/133/64 28/135/61 31/136/63
f 22/138/64 24/137/65 20/139/67 19/140/66
# 40 faces

g
