# Wavefront OBJ exported by RE2MV
#
# object Object_0 to come ...
#
v  -2.760000 63.660000 0.920000
v  -1.420000 65.080002 0.920000
v  -25.219999 65.080002 0.920000
v  -23.879999 63.660000 0.920000
v  -1.420000 65.080002 -0.940000
v  -1.420000 1.580000 0.920000
v  -1.420000 1.580000 -0.940000
v  -25.219999 1.580000 0.920000
v  -23.879999 2.940000 0.920000
v  -25.219999 65.080002 -0.940000
v  -25.219999 1.580000 -0.940000
v  -23.879999 63.660000 -0.940000
v  -23.879999 2.940000 -0.940000
v  -2.760000 2.940000 -0.940000
v  -2.760000 63.660000 -0.940000
v  -2.760000 2.940000 0.920000
v  -23.900000 28.020000 0.860000
v  -2.440000 28.020000 0.860000
v  -23.900000 36.380001 0.860000
v  -2.440000 36.380001 0.860000
v  -23.900000 28.020000 0.580000
v  -2.440000 28.020000 0.580000
v  -23.900000 36.380001 0.580000
v  -2.440000 36.380001 0.580000
v  -2.560000 50.540001 0.500000
v  -2.560000 51.459999 0.500000
v  -24.120001 51.459999 0.500000
v  -24.120001 50.540001 0.500000
v  -2.560000 50.540001 -0.760000
v  -2.560000 51.459999 -0.760000
v  -24.120001 50.540001 -0.760000
v  -24.120001 51.459999 -0.760000
v  -2.560000 13.280000 0.500000
v  -2.560000 14.200000 0.500000
v  -24.120001 14.200000 0.500000
v  -24.120001 13.280000 0.500000
v  -2.560000 14.200000 -0.760000
v  -24.120001 14.200000 -0.760000
v  -2.560000 13.280000 -0.760000
v  -24.120001 13.280000 -0.760000
v  -20.360001 63.880001 0.320000
v  -19.900000 2.680000 -0.660000
v  -19.900000 63.880001 -0.660000
v  -20.360001 2.680000 0.320000
v  -19.200001 63.880001 0.340000
v  -19.200001 2.680000 0.340000
v  -13.880000 63.880001 0.320000
v  -13.420000 2.680000 -0.660000
v  -13.420000 63.880001 -0.660000
v  -13.880000 2.680000 0.320000
v  -12.720000 63.880001 0.340000
v  -12.720000 2.680000 0.340000
v  -7.400000 63.880001 0.320000
v  -6.940000 2.680000 -0.660000
v  -6.940000 63.880001 -0.660000
v  -7.400000 2.680000 0.320000
v  -6.240000 63.880001 0.340000
v  -6.240000 2.680000 0.340000
v  -23.020000 29.860001 1.540000
v  -20.540001 29.860001 1.540000
v  -23.020000 35.639999 1.540000
v  -20.540001 35.639999 1.540000
v  -23.020000 29.860001 0.900000
v  -20.540001 29.860001 0.900000
v  -23.020000 35.639999 0.900000
v  -20.540001 35.639999 0.900000
v  -1.480000 65.040001 1.400000
v  0.000000 66.540001 1.400000
v  -26.639999 66.540001 1.400000
v  -25.160000 65.040001 1.400000
v  0.000000 66.540001 -1.420000
v  0.000000 0.000000 1.400000
v  0.000000 0.000000 -1.420000
v  -26.639999 0.000000 1.400000
v  -25.160000 1.380000 1.400000
v  -26.639999 66.540001 -1.420000
v  -26.639999 0.000000 -1.420000
v  -25.160000 65.040001 -1.420000
v  -25.160000 1.380000 -1.420000
v  -1.480000 1.380000 -1.420000
v  -1.480000 65.040001 -1.420000
v  -1.480000 1.380000 1.400000
# 82 vertices

vt  0.023438 0.972549
vt  0.468750 0.972549
vt  0.000000 0.996078
vt  0.500000 0.996078
vt  0.828125 0.015686
vt  0.000000 0.015686
vt  0.828125 1.000000
vt  0.000000 1.000000
vt  0.484375 0.027451
vt  0.507813 0.003922
vt  0.023438 0.027451
vt  0.000000 0.003922
vt  0.484375 0.972549
vt  0.023438 0.972549
vt  0.507813 1.000000
vt  0.000000 1.000000
vt  0.500000 0.003922
vt  0.500000 0.996078
vt  0.468750 0.027451
vt  0.468750 0.972549
vt  0.875000 1.000000
vt  0.875000 0.003922
vt  0.945313 1.000000
vt  0.945313 0.003922
vt  0.875000 1.000000
vt  0.945313 1.000000
vt  0.875000 1.000000
vt  0.945313 1.000000
vt  0.023438 0.027451
vt  0.000000 0.003922
vt  0.468750 0.027451
vt  0.500000 0.003922
vt  0.000000 0.003922
vt  0.023438 0.027451
vt  0.000000 0.996078
vt  0.023438 0.972549
vt  0.000000 1.000000
vt  0.796875 1.000000
vt  0.000000 0.003922
vt  0.796875 0.003922
vt  0.507813 0.003922
vt  0.484375 0.027451
vt  0.507813 1.000000
vt  0.484375 0.972549
vt  0.023438 0.027451
vt  0.000000 0.003922
vt  0.023438 0.972549
vt  0.000000 1.000000
vt  0.093750 0.423529
vt  0.882813 0.423529
vt  0.093750 0.549020
vt  0.882813 0.549020
vt  0.085938 0.549020
vt  0.867188 0.549020
vt  0.085938 0.549020
vt  0.867188 0.549020
vt  0.882813 0.423529
vt  0.093750 0.423529
vt  0.882813 0.549020
vt  0.093750 0.549020
vt  0.031250 0.047059
vt  0.937500 0.047059
vt  0.031250 0.039216
vt  0.937500 0.039216
vt  0.976563 0.333333
vt  0.976563 1.000000
vt  0.000000 0.333333
vt  0.000000 1.000000
vt  0.890625 0.772549
vt  0.890625 0.760784
vt  0.085938 0.772549
vt  0.085938 0.760784
vt  0.890625 0.772549
vt  0.890625 0.772549
vt  0.085938 0.772549
vt  0.085938 0.772549
vt  0.070313 0.015686
vt  0.070313 0.039216
vt  0.882813 0.015686
vt  0.882813 0.039216
vt  0.890625 0.203922
vt  0.890625 0.219608
vt  0.085938 0.203922
vt  0.085938 0.219608
vt  0.890625 0.219608
vt  0.890625 0.203922
vt  0.085938 0.219608
vt  0.085938 0.203922
vt  0.000000 1.000000
vt  0.664063 1.000000
vt  0.000000 0.019608
vt  0.664063 0.019608
vt  0.000000 0.015686
vt  0.000000 0.039216
vt  0.976563 0.015686
vt  0.976563 0.039216
vt  0.000000 0.003922
vt  0.000000 1.000000
vt  0.398438 0.003922
vt  0.398438 1.000000
vt  0.796875 0.003922
vt  0.398438 0.003922
vt  0.796875 1.000000
vt  0.398438 1.000000
vt  0.734375 0.043137
vt  0.695313 0.043137
vt  0.734375 0.956863
vt  0.695313 0.956863
vt  0.000000 0.007843
vt  0.000000 0.996078
vt  0.398438 0.003922
vt  0.398438 1.000000
vt  0.796875 0.007843
vt  0.398438 0.003922
vt  0.796875 0.996078
vt  0.398438 1.000000
vt  0.500000 0.043137
vt  0.453125 0.043137
vt  0.500000 0.956863
vt  0.453125 0.956863
vt  0.000000 0.003922
vt  0.000000 1.000000
vt  0.398438 0.003922
vt  0.398438 1.000000
vt  0.796875 0.003922
vt  0.398438 0.003922
vt  0.796875 1.000000
vt  0.398438 1.000000
vt  0.257813 0.043137
vt  0.210938 0.043137
vt  0.257813 0.956863
vt  0.210938 0.956863
vt  0.000000 0.035294
vt  0.906250 0.035294
vt  0.000000 1.000000
vt  0.906250 1.000000
vt  0.757813 0.450980
vt  0.757813 0.450980
vt  0.757813 0.541176
vt  0.757813 0.541176
vt  0.843750 0.450980
vt  0.757813 0.450980
vt  0.843750 0.541176
vt  0.757813 0.541176
vt  0.843750 0.450980
vt  0.843750 0.450980
vt  0.843750 0.541176
vt  0.843750 0.541176
vt  0.757813 0.450980
vt  0.843750 0.450980
vt  0.757813 0.450980
vt  0.843750 0.450980
vt  0.757813 0.541176
vt  0.843750 0.541176
vt  0.757813 0.541176
vt  0.843750 0.541176
vt  0.976563 1.000000
vt  0.000000 1.000000
vt  0.906250 0.976471
vt  0.062500 0.976471
vt  0.000000 0.015686
vt  0.000000 1.000000
vt  0.875000 0.015686
vt  0.875000 1.000000
vt  0.882813 0.003922
vt  0.882813 1.000000
vt  0.000000 0.003922
vt  0.000000 1.000000
vt  0.906250 0.976471
vt  0.062500 0.976471
vt  0.976563 1.000000
vt  0.000000 1.000000
vt  0.976563 0.007843
vt  0.976563 1.000000
vt  0.906250 0.023529
vt  0.906250 0.976471
vt  0.875000 1.000000
vt  0.875000 0.003922
vt  0.000000 1.000000
vt  0.000000 0.003922
vt  0.859375 0.003922
vt  0.859375 1.000000
vt  0.976563 0.003922
vt  0.976563 1.000000
vt  0.000000 0.007843
vt  0.976563 0.007843
vt  0.062500 0.023529
vt  0.906250 0.023529
vt  0.062500 0.023529
vt  0.062500 0.976471
vt  0.000000 0.007843
vt  0.000000 1.000000
vt  0.906250 0.976471
vt  0.906250 0.023529
vt  0.906250 0.976471
vt  0.906250 0.023529
vt  0.000000 0.121569
vt  0.000000 1.000000
vt  0.984375 0.121569
vt  0.984375 1.000000
vt  0.000000 0.007843
vt  0.000000 1.000000
vt  0.062500 0.023529
vt  0.062500 0.976471
vt  0.906250 0.023529
vt  0.906250 0.976471
vt  0.976563 0.007843
vt  0.976563 1.000000
vt  0.976563 1.000000
vt  0.976563 0.007843
vt  0.757813 1.000000
vt  0.757813 0.007843
vt  0.976563 0.007843
vt  0.000000 0.007843
vt  0.906250 0.023529
vt  0.062500 0.023529
# 162 texture coordinates

vn  0.000000 0.000000 0.957514
vn  0.000000 0.000000 0.957514
vn  0.000000 0.000000 0.957514
vn  0.000000 0.000000 0.957514
vn  0.000000 0.428134 0.856502
vn  0.390722 0.390722 0.781677
vn  0.000000 0.957514 0.000000
vn  0.676924 0.676924 0.000000
vn  0.000000 0.000000 -0.957748
vn  0.000000 0.000000 -0.957748
vn  0.000000 0.000000 -0.957748
vn  -0.428368 0.000000 -0.856735
vn  0.000000 0.000000 -0.957748
vn  -0.428368 0.000000 -0.856735
vn  0.000000 0.000000 -0.957748
vn  0.000000 0.000000 -0.957748
vn  0.000000 0.000000 0.957514
vn  -0.957748 0.000000 0.000000
vn  -0.957748 0.000000 0.000000
vn  0.000000 -0.957748 0.000000
vn  0.000000 -0.957748 0.000000
vn  0.000000 -0.957748 0.000000
vn  0.000000 -0.957748 0.000000
vn  0.000000 0.000000 0.957514
vn  0.957514 0.000000 0.000000
vn  0.957514 0.000000 0.000000
vn  0.000000 0.000000 0.957514
vn  0.000000 0.000000 0.957514
vn  0.000000 0.000000 0.957514
vn  0.000000 0.000000 0.957514
vn  0.000000 0.957514 0.000000
vn  0.000000 0.957514 0.000000
vn  0.000000 0.957514 0.000000
vn  0.000000 0.957514 0.000000
vn  0.000000 0.000000 -0.957748
vn  0.000000 0.000000 -0.957748
vn  0.000000 0.000000 -0.957748
vn  0.000000 0.000000 -0.957748
vn  0.000000 -0.957748 0.000000
vn  0.000000 -0.957748 0.000000
vn  0.000000 -0.957748 0.000000
vn  0.000000 -0.957748 0.000000
vn  0.000000 0.000000 0.957514
vn  0.000000 0.000000 0.957514
vn  0.000000 0.000000 0.957514
vn  0.000000 0.000000 0.957514
vn  0.000000 0.000000 -0.957748
vn  0.000000 0.000000 -0.957748
vn  0.000000 0.000000 -0.957748
vn  0.000000 0.000000 -0.957748
vn  0.000000 0.957514 0.000000
vn  0.000000 0.957514 0.000000
vn  0.000000 0.957514 0.000000
vn  0.000000 0.957514 0.000000
vn  0.000000 -0.957748 0.000000
vn  0.000000 -0.957748 0.000000
vn  0.000000 -0.957748 0.000000
vn  0.000000 -0.957748 0.000000
vn  0.000000 0.000000 0.957514
vn  0.000000 0.000000 0.957514
vn  0.000000 0.000000 0.957514
vn  0.000000 0.000000 0.957514
vn  0.000000 -0.677158 -0.677158
vn  0.000000 -0.677158 -0.677158
vn  0.000000 0.676924 -0.677158
vn  0.000000 0.676924 -0.677158
vn  0.000000 0.957514 0.000000
vn  0.000000 0.957514 0.000000
vn  0.000000 -0.957748 0.000000
vn  0.000000 -0.957748 0.000000
vn  -0.867959 0.000000 -0.404985
vn  -0.867959 0.000000 -0.404985
vn  -0.867959 0.000000 -0.404985
vn  -0.867959 0.000000 -0.404985
vn  -0.009353 0.000000 0.957514
vn  -0.009353 0.000000 0.957514
vn  -0.009353 0.000000 0.957514
vn  -0.009353 0.000000 0.957514
vn  0.796408 0.000000 -0.531485
vn  0.796408 0.000000 -0.531485
vn  0.796408 0.000000 -0.531485
vn  0.796408 0.000000 -0.531485
vn  -0.867959 0.000000 -0.404985
vn  -0.867959 0.000000 -0.404985
vn  -0.867959 0.000000 -0.404985
vn  -0.867959 0.000000 -0.404985
vn  -0.009353 0.000000 0.957514
vn  -0.009353 0.000000 0.957514
vn  -0.009353 0.000000 0.957514
vn  -0.009353 0.000000 0.957514
vn  0.796642 0.000000 -0.531485
vn  0.796642 0.000000 -0.531485
vn  0.796642 0.000000 -0.531485
vn  0.796642 0.000000 -0.531485
vn  -0.867959 0.000000 -0.404985
vn  -0.867959 0.000000 -0.404985
vn  -0.867959 0.000000 -0.404985
vn  -0.867959 0.000000 -0.404985
vn  -0.009353 0.000000 0.957514
vn  -0.009353 0.000000 0.957514
vn  -0.009353 0.000000 0.957514
vn  -0.009353 0.000000 0.957514
vn  0.796408 0.000000 -0.531485
vn  0.796408 0.000000 -0.531485
vn  0.796408 0.000000 -0.531485
vn  0.796408 0.000000 -0.531485
vn  0.000000 0.000000 0.957514
vn  0.000000 0.000000 0.957514
vn  0.000000 0.000000 0.957514
vn  0.000000 0.000000 0.957514
vn  0.957514 0.000000 0.000000
vn  0.957514 0.000000 0.000000
vn  0.957514 0.000000 0.000000
vn  0.957514 0.000000 0.000000
vn  0.000000 0.000000 -0.957748
vn  0.000000 0.000000 -0.957748
vn  0.000000 0.000000 -0.957748
vn  0.000000 0.000000 -0.957748
vn  -0.957748 0.000000 0.000000
vn  -0.957748 0.000000 0.000000
vn  -0.957748 0.000000 0.000000
vn  -0.957748 0.000000 0.000000
vn  0.000000 -0.957748 0.000000
vn  0.000000 -0.957748 0.000000
vn  0.000000 -0.957748 0.000000
vn  0.000000 -0.957748 0.000000
vn  0.000000 0.957514 0.000000
vn  0.000000 0.957514 0.000000
vn  0.000000 0.957514 0.000000
vn  0.000000 0.957514 0.000000
vn  0.000000 0.428134 0.856502
vn  0.000000 0.428134 0.856502
vn  0.000000 0.000000 0.957514
vn  -0.428368 0.000000 0.856502
vn  -0.677158 0.676924 0.000000
vn  0.676924 0.676924 0.000000
vn  -0.552996 0.552763 -0.552996
vn  0.676924 0.676924 0.000000
vn  0.428134 0.000000 0.856502
vn  0.957514 0.000000 0.000000
vn  0.676924 0.000000 -0.677158
vn  0.676924 0.000000 -0.677158
vn  0.000000 0.000000 -0.957748
vn  -0.428368 0.000000 -0.856735
vn  0.000000 0.428134 -0.856735
vn  0.000000 0.676924 -0.677158
vn  -0.428368 0.000000 0.856502
vn  0.000000 0.000000 0.957514
vn  -0.428368 0.000000 -0.856735
vn  -0.957748 0.000000 0.000000
vn  -0.957748 0.000000 0.000000
vn  0.000000 0.000000 0.957514
vn  0.957514 0.000000 0.000000
vn  0.957514 0.000000 0.000000
vn  0.000000 0.000000 -0.957748
vn  0.000000 -0.957748 0.000000
vn  0.000000 -0.957748 0.000000
vn  0.000000 -0.957748 0.000000
vn  0.000000 -0.957748 0.000000
vn  0.000000 0.000000 -0.957748
vn  0.000000 0.000000 -0.957748
# 161 vertex normals

g Object_0
s 1
f 4/2/3 1/1/4 2/3/2 3/4/1
f 16/6/5 14/5/7 13/7/8 9/8/6
f 11/10/9 13/9/11 14/11/12 7/12/10
f 15/14/14 12/13/13 10/15/15 5/16/16
f 3/18/1 8/17/17 9/19/6 4/20/3
f 16/22/19 1/21/18 15/23/14 14/24/12
f 15/26/20 1/25/22 4/27/23 12/28/21
f 6/30/24 16/29/5 9/31/6 8/32/17
f 16/34/5 6/33/24 2/35/2 1/36/4
f 12/38/25 4/37/26 9/39/6 13/40/8
f 13/42/11 11/41/9 10/43/15 12/44/13
f 7/46/10 14/45/12 15/47/14 5/48/16
f 17/50/27 18/49/29 20/51/30 19/52/28
f 19/54/31 20/53/33 24/55/34 23/56/32
f 22/58/35 21/57/37 23/59/38 24/60/36
f 18/62/39 17/61/41 21/63/42 22/64/40
f 27/66/43 28/65/45 25/67/46 26/68/44
f 31/70/47 32/69/49 30/71/50 29/72/48
f 32/74/51 27/73/53 26/75/54 30/76/52
f 28/78/55 31/77/57 29/79/58 25/80/56
f 35/82/59 36/81/61 33/83/62 34/84/60
f 40/86/63 38/85/65 37/87/66 39/88/64
f 38/90/65 35/89/67 34/91/68 37/92/66
f 36/94/69 40/93/63 39/95/64 33/96/70
f 43/98/71 42/97/73 44/99/74 41/100/72
f 44/102/75 46/101/77 45/103/78 41/104/76
f 46/106/79 42/105/81 43/107/82 45/108/80
f 49/110/83 48/109/85 50/111/86 47/112/84
f 50/114/87 52/113/89 51/115/90 47/116/88
f 52/118/91 48/117/93 49/119/94 51/120/92
f 55/122/95 54/121/97 56/123/98 53/124/96
f 56/126/99 58/125/101 57/127/102 53/128/100
f 58/130/103 54/129/105 55/131/106 57/132/104
f 59/134/107 60/133/109 62/135/110 61/136/108
f 60/138/111 64/137/113 66/139/114 62/140/112
f 64/142/115 63/141/117 65/143/118 66/144/116
f 63/146/119 59/145/121 61/147/122 65/148/120
f 63/150/123 64/149/125 60/151/126 59/152/124
f 61/154/127 62/153/129 66/155/130 65/156/128
f 68/158/132 69/157/131 70/159/133 67/160/134
f 75/162/136 82/161/135 80/163/137 79/164/138
f 68/166/140 72/165/139 73/167/141 71/168/142
f 81/170/144 78/169/143 76/171/145 71/172/146
f 69/174/131 74/173/147 75/175/148 70/176/133
f 82/178/135 67/177/134 81/179/144 80/180/137
f 76/182/150 77/181/149 74/183/147 69/184/151
f 74/186/147 72/185/139 82/187/152 75/188/148
f 67/190/134 82/189/152 72/191/139 68/192/132
f 79/194/138 78/193/153 70/195/154 75/196/136
f 76/198/145 69/197/131 68/199/132 71/200/146
f 71/202/142 73/201/141 80/203/137 81/204/144
f 78/206/143 79/205/155 77/207/149 76/208/145
f 78/210/157 81/209/156 67/211/158 70/212/159
f 73/214/160 77/213/149 79/215/155 80/216/161
# 54 faces

g
