# Wavefront OBJ exported by RE2MV
#
# object Object_0 to come ...
#
v  -15.200000 -0.040000 0.000000
v  -15.200000 1.480000 0.000000
v  -25.340000 1.480000 0.000000
v  -25.340000 -0.040000 0.000000
v  -25.340000 1.480000 -17.920000
v  -25.340000 -0.040000 -17.920000
v  -15.200000 -0.040000 -17.920000
v  -15.200000 1.480000 -17.920000
v  -25.340000 1.480000 -24.940001
v  -25.340000 -0.040000 -24.940001
v  -15.200000 -0.040000 -24.940001
v  -15.200000 1.480000 -24.940001
v  -25.340000 1.480000 -30.360001
v  -25.340000 -0.040000 -30.360001
v  -15.200000 -0.040000 -30.360001
v  -15.200000 1.480000 -30.360001
v  -15.200000 1.480000 -39.599998
v  -15.200000 -0.040000 -39.599998
v  -25.340000 -0.040000 -39.599998
v  -25.340000 1.480000 -39.599998
v  -25.340000 -0.040000 -34.779999
v  -25.340000 1.480000 -34.779999
v  -15.200000 -0.040000 -34.779999
v  -15.200000 1.480000 -34.779999
v  -5.060000 -0.040000 0.000000
v  -5.060000 1.480000 0.000000
v  -5.060000 -0.040000 -17.920000
v  -5.060000 1.480000 -17.920000
v  -5.060000 -0.040000 -24.940001
v  -5.060000 1.480000 -24.940001
v  -5.060000 -0.040000 -30.360001
v  -5.060000 1.480000 -30.360001
v  -5.060000 1.480000 -39.599998
v  -5.060000 -0.040000 -39.599998
v  -5.060000 -0.040000 -34.779999
v  -5.060000 1.480000 -34.779999
v  5.040000 -0.040000 0.000000
v  5.040000 1.480000 0.000000
v  5.040000 -0.040000 -17.920000
v  5.040000 1.480000 -17.920000
v  5.040000 -0.040000 -24.940001
v  5.040000 1.480000 -24.940001
v  5.040000 -0.040000 -30.360001
v  5.040000 1.480000 -30.360001
v  5.040000 1.480000 -39.599998
v  5.040000 -0.040000 -39.599998
v  5.040000 -0.040000 -34.779999
v  5.040000 1.480000 -34.779999
v  15.180000 1.480000 0.000000
v  15.180000 -0.040000 0.000000
v  25.320000 -0.040000 0.000000
v  25.320000 1.480000 0.000000
v  25.320000 -0.040000 -17.920000
v  25.320000 1.480000 -17.920000
v  15.180000 -0.040000 -17.920000
v  15.180000 1.480000 -17.920000
v  25.320000 -0.040000 -24.940001
v  25.320000 1.480000 -24.940001
v  15.180000 -0.040000 -24.940001
v  15.180000 1.480000 -24.940001
v  25.320000 -0.040000 -30.360001
v  25.320000 1.480000 -30.360001
v  15.180000 -0.040000 -30.360001
v  15.180000 1.480000 -30.360001
v  25.320000 1.480000 -34.779999
v  25.320000 -0.040000 -34.779999
v  25.320000 -0.040000 -39.599998
v  25.320000 1.480000 -39.599998
v  15.180000 -0.040000 -39.599998
v  15.180000 1.480000 -39.599998
v  15.180000 -0.040000 -34.779999
v  15.180000 1.480000 -34.779999
v  11.960000 2.860000 -30.600000
v  11.140000 2.860000 -29.780001
v  10.320000 2.860000 -30.600000
v  11.140000 2.860000 -31.420000
v  11.960000 5.780000 -30.600000
v  11.140000 5.380000 -29.780001
v  10.320000 5.000000 -30.600000
v  11.140000 5.380000 -31.420000
v  9.280000 8.020000 -30.600000
v  8.980000 7.180000 -29.780001
v  8.680000 6.360000 -30.600000
v  8.980000 7.180000 -31.420000
v  -5.700000 8.020000 -30.600000
v  -5.400000 7.180000 -29.780001
v  -5.100000 6.360000 -30.600000
v  -5.400000 7.180000 -31.420000
v  -8.380000 5.780000 -30.600000
v  -7.560000 5.380000 -29.780001
v  -6.740000 5.000000 -30.600000
v  -7.560000 5.380000 -31.420000
v  -8.380000 2.860000 -30.600000
v  -7.560000 2.860000 -29.780001
v  -6.740000 2.860000 -30.600000
v  -7.560000 2.860000 -31.420000
v  1.780000 7.180000 -31.420000
v  1.780000 6.360000 -30.600000
v  1.780000 8.020000 -30.600000
v  1.780000 7.180000 -29.780001
v  -5.720000 1.480000 -30.600000
v  -7.560000 1.480000 -28.760000
v  -5.720000 2.820000 -30.600000
v  -7.560000 2.820000 -28.760000
v  -7.560000 1.480000 -32.439999
v  -9.400000 1.480000 -30.600000
v  -7.560000 2.820000 -32.439999
v  -9.400000 2.820000 -30.600000
v  11.140000 1.480000 -28.760000
v  12.980000 1.480000 -30.600000
v  11.140000 2.820000 -28.760000
v  12.980000 2.820000 -30.600000
v  9.300000 1.480000 -30.600000
v  11.140000 1.480000 -32.439999
v  9.300000 2.820000 -30.600000
v  11.140000 2.820000 -32.439999
# 116 vertices

vt  0.007813 0.874510
vt  0.007813 0.874510
vt  0.007813 0.996078
vt  0.007813 0.996078
vt  0.445313 0.996078
vt  0.445313 0.996078
vt  0.007813 0.996078
vt  0.007813 0.996078
vt  0.007813 0.874510
vt  0.445313 0.874510
vt  0.007813 0.996078
vt  0.445313 0.996078
vt  0.445313 0.874510
vt  0.007813 0.874510
vt  0.445313 0.996078
vt  0.007813 0.996078
vt  0.625000 0.996078
vt  0.625000 0.996078
vt  0.445313 0.996078
vt  0.445313 0.996078
vt  0.445313 0.874510
vt  0.625000 0.874510
vt  0.445313 0.996078
vt  0.625000 0.996078
vt  0.625000 0.874510
vt  0.445313 0.874510
vt  0.625000 0.996078
vt  0.445313 0.996078
vt  0.757813 0.996078
vt  0.757813 0.996078
vt  0.625000 0.996078
vt  0.625000 0.996078
vt  0.625000 0.874510
vt  0.757813 0.874510
vt  0.625000 0.996078
vt  0.757813 0.996078
vt  0.757813 0.874510
vt  0.625000 0.874510
vt  0.757813 0.996078
vt  0.625000 0.996078
vt  0.007813 0.494118
vt  0.039063 0.494118
vt  0.007813 0.368627
vt  0.039063 0.368627
vt  0.859375 0.996078
vt  0.859375 0.996078
vt  0.976563 0.996078
vt  0.976563 0.996078
vt  0.859375 0.996078
vt  0.859375 0.996078
vt  0.757813 0.996078
vt  0.757813 0.996078
vt  0.859375 0.874510
vt  0.976563 0.874510
vt  0.859375 0.996078
vt  0.976563 0.996078
vt  0.757813 0.874510
vt  0.859375 0.874510
vt  0.757813 0.996078
vt  0.859375 0.996078
vt  0.976563 0.874510
vt  0.859375 0.874510
vt  0.976563 0.996078
vt  0.859375 0.996078
vt  0.859375 0.874510
vt  0.757813 0.874510
vt  0.859375 0.996078
vt  0.757813 0.996078
vt  0.007813 0.749020
vt  0.007813 0.749020
vt  0.007813 0.874510
vt  0.007813 0.874510
vt  0.007813 0.749020
vt  0.445313 0.749020
vt  0.007813 0.874510
vt  0.445313 0.874510
vt  0.445313 0.749020
vt  0.007813 0.749020
vt  0.445313 0.874510
vt  0.007813 0.874510
vt  0.445313 0.749020
vt  0.625000 0.749020
vt  0.445313 0.874510
vt  0.625000 0.874510
vt  0.625000 0.749020
vt  0.445313 0.749020
vt  0.625000 0.874510
vt  0.445313 0.874510
vt  0.625000 0.749020
vt  0.757813 0.749020
vt  0.625000 0.874510
vt  0.757813 0.874510
vt  0.757813 0.749020
vt  0.625000 0.749020
vt  0.757813 0.874510
vt  0.625000 0.874510
vt  0.007813 0.623529
vt  0.039063 0.623529
vt  0.007813 0.494118
vt  0.039063 0.494118
vt  0.859375 0.749020
vt  0.976563 0.749020
vt  0.859375 0.874510
vt  0.976563 0.874510
vt  0.757813 0.749020
vt  0.859375 0.749020
vt  0.757813 0.874510
vt  0.859375 0.874510
vt  0.976563 0.749020
vt  0.859375 0.749020
vt  0.976563 0.874510
vt  0.859375 0.874510
vt  0.859375 0.749020
vt  0.757813 0.749020
vt  0.859375 0.874510
vt  0.757813 0.874510
vt  0.007813 0.623529
vt  0.007813 0.623529
vt  0.007813 0.749020
vt  0.007813 0.749020
vt  0.007813 0.623529
vt  0.445313 0.623529
vt  0.007813 0.749020
vt  0.445313 0.749020
vt  0.445313 0.623529
vt  0.007813 0.623529
vt  0.445313 0.749020
vt  0.007813 0.749020
vt  0.445313 0.623529
vt  0.625000 0.623529
vt  0.445313 0.749020
vt  0.625000 0.749020
vt  0.625000 0.623529
vt  0.445313 0.623529
vt  0.625000 0.749020
vt  0.445313 0.749020
vt  0.625000 0.623529
vt  0.757813 0.623529
vt  0.625000 0.749020
vt  0.757813 0.749020
vt  0.757813 0.623529
vt  0.625000 0.623529
vt  0.757813 0.749020
vt  0.625000 0.749020
vt  0.007813 0.749020
vt  0.039063 0.749020
vt  0.007813 0.623529
vt  0.039063 0.623529
vt  0.859375 0.623529
vt  0.976563 0.623529
vt  0.859375 0.749020
vt  0.976563 0.749020
vt  0.757813 0.623529
vt  0.859375 0.623529
vt  0.757813 0.749020
vt  0.859375 0.749020
vt  0.976563 0.623529
vt  0.859375 0.623529
vt  0.976563 0.749020
vt  0.859375 0.749020
vt  0.859375 0.623529
vt  0.757813 0.623529
vt  0.859375 0.749020
vt  0.757813 0.749020
vt  0.007813 0.498039
vt  0.007813 0.498039
vt  0.007813 0.372549
vt  0.007813 0.372549
vt  0.007813 0.498039
vt  0.007813 0.498039
vt  0.007813 0.623529
vt  0.007813 0.623529
vt  0.445313 0.372549
vt  0.445313 0.372549
vt  0.007813 0.372549
vt  0.007813 0.372549
vt  0.445313 0.498039
vt  0.007813 0.498039
vt  0.445313 0.372549
vt  0.007813 0.372549
vt  0.007813 0.498039
vt  0.445313 0.498039
vt  0.007813 0.623529
vt  0.445313 0.623529
vt  0.007813 0.498039
vt  0.445313 0.498039
vt  0.007813 0.372549
vt  0.445313 0.372549
vt  0.445313 0.498039
vt  0.007813 0.498039
vt  0.445313 0.623529
vt  0.007813 0.623529
vt  0.625000 0.372549
vt  0.625000 0.372549
vt  0.445313 0.372549
vt  0.445313 0.372549
vt  0.625000 0.498039
vt  0.445313 0.498039
vt  0.625000 0.372549
vt  0.445313 0.372549
vt  0.445313 0.498039
vt  0.625000 0.498039
vt  0.445313 0.623529
vt  0.625000 0.623529
vt  0.445313 0.498039
vt  0.625000 0.498039
vt  0.445313 0.372549
vt  0.625000 0.372549
vt  0.625000 0.498039
vt  0.445313 0.498039
vt  0.625000 0.623529
vt  0.445313 0.623529
vt  0.757813 0.372549
vt  0.757813 0.372549
vt  0.625000 0.372549
vt  0.625000 0.372549
vt  0.757813 0.498039
vt  0.625000 0.498039
vt  0.757813 0.372549
vt  0.625000 0.372549
vt  0.625000 0.498039
vt  0.757813 0.498039
vt  0.625000 0.623529
vt  0.757813 0.623529
vt  0.625000 0.498039
vt  0.757813 0.498039
vt  0.625000 0.372549
vt  0.757813 0.372549
vt  0.757813 0.498039
vt  0.625000 0.498039
vt  0.757813 0.623529
vt  0.625000 0.623529
vt  0.859375 0.372549
vt  0.859375 0.372549
vt  0.976563 0.372549
vt  0.976563 0.372549
vt  0.859375 0.372549
vt  0.859375 0.372549
vt  0.757813 0.372549
vt  0.757813 0.372549
vt  0.039063 0.878431
vt  0.007813 0.878431
vt  0.039063 1.000000
vt  0.007813 1.000000
vt  0.007813 0.878431
vt  0.039063 0.878431
vt  0.007813 0.749020
vt  0.039063 0.749020
vt  0.976563 0.498039
vt  0.859375 0.498039
vt  0.976563 0.372549
vt  0.859375 0.372549
vt  0.859375 0.498039
vt  0.976563 0.498039
vt  0.859375 0.623529
vt  0.976563 0.623529
vt  0.859375 0.498039
vt  0.757813 0.498039
vt  0.859375 0.372549
vt  0.757813 0.372549
vt  0.757813 0.498039
vt  0.859375 0.498039
vt  0.757813 0.623529
vt  0.859375 0.623529
vt  0.859375 0.498039
vt  0.976563 0.498039
vt  0.859375 0.372549
vt  0.976563 0.372549
vt  0.976563 0.498039
vt  0.859375 0.498039
vt  0.976563 0.623529
vt  0.859375 0.623529
vt  0.757813 0.498039
vt  0.859375 0.498039
vt  0.757813 0.372549
vt  0.859375 0.372549
vt  0.859375 0.498039
vt  0.757813 0.498039
vt  0.859375 0.623529
vt  0.757813 0.623529
vt  0.101563 0.207843
vt  0.101563 0.145098
vt  0.070313 0.215686
vt  0.070313 0.145098
vt  0.117188 0.145098
vt  0.117188 0.207843
vt  0.070313 0.145098
vt  0.070313 0.215686
vt  0.140625 0.145098
vt  0.140625 0.200000
vt  0.117188 0.145098
vt  0.117188 0.207843
vt  0.140625 0.200000
vt  0.140625 0.145098
vt  0.101563 0.207843
vt  0.101563 0.145098
vt  0.523438 0.039216
vt  0.437500 0.074510
vt  0.757813 0.180392
vt  0.734375 0.254902
vt  0.117188 0.207843
vt  0.203125 0.247059
vt  0.070313 0.215686
vt  0.187500 0.266667
vt  0.140625 0.200000
vt  0.218750 0.231373
vt  0.117188 0.207843
vt  0.203125 0.247059
vt  0.617188 0.007843
vt  0.523438 0.039216
vt  0.789063 0.125490
vt  0.757813 0.180392
vt  0.304688 0.200000
vt  0.304688 0.266667
vt  0.851563 0.243137
vt  0.867188 0.305882
vt  0.507813 0.247059
vt  0.820313 0.247059
vt  0.507813 0.266667
vt  0.835938 0.266667
vt  0.507813 0.231373
vt  0.804688 0.231373
vt  0.507813 0.247059
vt  0.820313 0.247059
vt  0.250000 0.082353
vt  0.250000 0.113725
vt  0.617188 0.082353
vt  0.625000 0.113725
vt  0.640625 0.254902
vt  0.437500 0.254902
vt  0.671875 0.305882
vt  0.406250 0.305882
vt  0.437500 0.254902
vt  0.640625 0.254902
vt  0.406250 0.305882
vt  0.671875 0.305882
vt  0.804688 0.231373
vt  0.875000 0.200000
vt  0.820313 0.247059
vt  0.921875 0.207843
vt  0.875000 0.200000
vt  0.804688 0.231373
vt  0.921875 0.207843
vt  0.820313 0.247059
vt  0.562500 0.011765
vt  0.445313 0.270588
vt  0.695313 0.062745
vt  0.562500 0.349020
vt  0.921875 0.207843
vt  0.921875 0.145098
vt  0.953125 0.215686
vt  0.953125 0.145098
vt  0.875000 0.200000
vt  0.875000 0.145098
vt  0.921875 0.207843
vt  0.921875 0.145098
vt  0.875000 0.145098
vt  0.875000 0.200000
vt  0.921875 0.145098
vt  0.921875 0.207843
vt  0.750000 0.113725
vt  0.203125 0.137255
vt  0.750000 0.180392
vt  0.171875 0.200000
vt  0.507813 0.247059
vt  0.507813 0.266667
vt  0.203125 0.247059
vt  0.187500 0.266667
vt  0.507813 0.231373
vt  0.507813 0.247059
vt  0.218750 0.231373
vt  0.203125 0.247059
vt  0.734375 0.094118
vt  0.218750 0.113725
vt  0.750000 0.113725
vt  0.203125 0.137255
vt  0.421875 0.074510
vt  0.406250 0.074510
vt  0.406250 0.074510
vt  0.398438 0.062745
vt  0.929688 0.333333
vt  0.859375 0.364706
vt  0.859375 0.301961
vt  0.773438 0.333333
vt  0.070313 0.184314
vt  0.156250 0.184314
vt  0.070313 0.152941
vt  0.156250 0.152941
vt  0.000000 0.184314
vt  0.070313 0.184314
vt  0.000000 0.152941
vt  0.070313 0.152941
vt  0.335938 0.298039
vt  0.617188 0.298039
vt  0.335938 0.192157
vt  0.617188 0.192157
vt  0.156250 0.184314
vt  0.070313 0.184314
vt  0.156250 0.152941
vt  0.070313 0.152941
vt  0.000000 0.184314
vt  0.070313 0.184314
vt  0.070313 0.184314
vt  0.156250 0.184314
vt  0.968750 0.152941
vt  0.890625 0.152941
vt  0.968750 0.184314
vt  0.890625 0.184314
vt  0.890625 0.152941
vt  0.968750 0.152941
vt  0.890625 0.184314
vt  0.968750 0.184314
vt  0.804688 0.152941
vt  0.890625 0.152941
vt  0.804688 0.184314
vt  0.890625 0.184314
vt  0.890625 0.152941
vt  0.804688 0.152941
vt  0.890625 0.184314
vt  0.804688 0.184314
vt  0.968750 0.184314
vt  0.890625 0.184314
vt  0.890625 0.184314
vt  0.804688 0.184314
# 318 texture coordinates

vn  0.000000 -0.428368 0.856502
vn  0.000000 -0.677158 0.676924
vn  0.000000 0.000000 0.957514
vn  0.000000 0.000000 0.957514
vn  -0.957748 0.000000 0.000000
vn  -0.957748 0.000000 0.000000
vn  -0.677158 -0.677158 0.000000
vn  -0.957748 0.000000 0.000000
vn  0.000000 -0.957748 0.000000
vn  0.000000 0.957514 0.000000
vn  0.000000 0.957514 0.000000
vn  0.000000 0.957514 0.000000
vn  0.000000 0.957514 0.000000
vn  -0.957748 0.000000 0.000000
vn  -0.677158 -0.677158 0.000000
vn  0.000000 -0.957748 0.000000
vn  0.000000 0.957514 0.000000
vn  0.000000 0.957514 0.000000
vn  -0.957748 0.000000 0.000000
vn  -0.677158 -0.677158 0.000000
vn  0.000000 -0.957748 0.000000
vn  0.000000 0.957514 0.000000
vn  0.000000 0.957514 0.000000
vn  0.000000 0.000000 -0.957748
vn  0.000000 0.000000 -0.957748
vn  0.000000 -0.428368 -0.856735
vn  0.000000 0.000000 -0.957748
vn  -0.677158 -0.677158 0.000000
vn  -0.677158 -0.677158 0.000000
vn  -0.957748 0.000000 0.000000
vn  -0.957748 0.000000 0.000000
vn  0.000000 -0.957748 0.000000
vn  0.000000 -0.957748 0.000000
vn  0.000000 0.957514 0.000000
vn  0.000000 0.957514 0.000000
vn  0.000000 0.957514 0.000000
vn  0.000000 0.957514 0.000000
vn  0.000000 -0.428368 0.856502
vn  0.000000 0.428134 0.856502
vn  0.000000 -0.957748 0.000000
vn  0.000000 -0.957748 0.000000
vn  0.000000 -0.957748 0.000000
vn  0.000000 0.957514 0.000000
vn  0.000000 0.957514 0.000000
vn  0.000000 -0.957748 0.000000
vn  0.000000 0.957514 0.000000
vn  0.000000 -0.957748 0.000000
vn  0.000000 0.957514 0.000000
vn  0.000000 0.000000 -0.957748
vn  0.000000 -0.428368 -0.856735
vn  0.000000 -0.957748 0.000000
vn  0.000000 0.957514 0.000000
vn  0.000000 0.957514 0.000000
vn  0.000000 -0.428368 0.856502
vn  0.000000 0.428134 0.856502
vn  0.000000 -0.957748 0.000000
vn  0.000000 0.957514 0.000000
vn  0.000000 -0.957748 0.000000
vn  0.000000 0.957514 0.000000
vn  0.000000 -0.957748 0.000000
vn  0.000000 0.957514 0.000000
vn  0.000000 0.428134 -0.856735
vn  0.000000 -0.428368 -0.856735
vn  0.000000 -0.957748 0.000000
vn  0.000000 -0.957748 0.000000
vn  0.000000 -0.957748 0.000000
vn  0.000000 0.957514 0.000000
vn  0.000000 0.957514 0.000000
vn  0.000000 0.428134 0.856502
vn  0.000000 0.676924 0.676924
vn  0.000000 -0.428368 0.856502
vn  0.000000 -0.677158 0.676924
vn  0.957514 0.000000 0.000000
vn  0.957514 0.000000 0.000000
vn  0.676924 0.676924 0.000000
vn  0.957514 0.000000 0.000000
vn  0.000000 -0.957748 0.000000
vn  0.000000 -0.957748 0.000000
vn  0.000000 -0.957748 0.000000
vn  0.000000 -0.957748 0.000000
vn  0.000000 0.957514 0.000000
vn  0.000000 0.957514 0.000000
vn  0.000000 0.957514 0.000000
vn  0.957514 0.000000 0.000000
vn  0.676924 0.676924 0.000000
vn  0.000000 -0.957748 0.000000
vn  0.000000 -0.957748 0.000000
vn  0.000000 0.957514 0.000000
vn  0.957514 0.000000 0.000000
vn  0.676924 0.676924 0.000000
vn  0.000000 -0.957748 0.000000
vn  0.000000 -0.957748 0.000000
vn  0.000000 0.957514 0.000000
vn  0.676924 0.676924 0.000000
vn  0.676924 0.676924 0.000000
vn  0.957514 0.000000 0.000000
vn  0.957514 0.000000 0.000000
vn  0.000000 -0.428368 -0.856735
vn  0.000000 0.000000 -0.957748
vn  0.000000 0.428134 -0.856735
vn  0.000000 0.000000 -0.957748
vn  0.000000 -0.957748 0.000000
vn  0.000000 -0.957748 0.000000
vn  0.000000 -0.957748 0.000000
vn  0.000000 -0.957748 0.000000
vn  0.000000 0.957514 0.000000
vn  0.000000 0.957514 0.000000
vn  0.000000 0.000000 -0.957748
vn  0.957514 0.000000 0.000000
vn  0.000000 0.000000 -0.957748
vn  0.863984 0.251128 -0.327355
vn  0.000000 0.000000 0.957514
vn  0.000000 0.000000 0.957514
vn  -0.677158 0.000000 0.676924
vn  -0.582225 -0.272640 0.709659
vn  -0.677158 0.000000 -0.677158
vn  -0.582225 -0.272640 -0.709893
vn  0.000000 0.000000 -0.957748
vn  0.406856 0.806229 -0.318002
vn  0.433278 0.520027 0.676924
vn  0.000000 0.000000 0.957514
vn  -0.223303 -0.616831 0.697500
vn  -0.223303 -0.616831 -0.697734
vn  0.000000 0.676924 -0.677158
vn  -0.223303 0.616597 -0.697734
vn  0.000000 0.000000 -0.957748
vn  0.000000 0.000000 -0.957748
vn  0.000000 0.000000 0.957514
vn  0.000000 0.000000 0.957514
vn  0.000000 0.676924 0.676924
vn  -0.223303 0.616597 0.697500
vn  0.000000 -0.677158 0.676924
vn  0.223069 -0.616831 0.697500
vn  0.000000 -0.677158 -0.677158
vn  0.223069 -0.616831 -0.697734
vn  -0.193841 0.232422 -0.908645
vn  -0.582225 0.272406 -0.709893
vn  -0.582225 0.272406 0.709659
vn  -0.193841 0.232422 0.908411
vn  0.433278 -0.520261 0.676924
vn  0.746136 -0.502958 0.327121
vn  0.433278 -0.520261 -0.677158
vn  -0.478874 -0.677158 -0.478874
vn  -0.478874 -0.677158 -0.478874
vn  -0.677158 0.000000 0.676924
vn  0.000000 0.000000 0.957514
vn  0.676924 0.000000 0.676924
vn  0.676924 0.000000 -0.677158
vn  0.676924 0.000000 -0.677158
vn  0.676924 0.000000 -0.677158
vn  0.000000 0.676924 0.676924
vn  0.000000 -0.957748 0.000000
vn  0.000000 -0.957748 0.000000
vn  0.000000 -0.957748 0.000000
vn  0.000000 -0.957748 0.000000
vn  0.000000 -0.957748 0.000000
vn  0.000000 -0.957748 0.000000
vn  0.676924 0.000000 0.676924
vn  0.676924 0.000000 0.676924
vn  0.000000 0.000000 0.957514
vn  0.000000 0.000000 0.957514
vn  -0.677158 0.000000 0.676924
vn  -0.677158 0.000000 0.676924
vn  -0.677158 0.000000 -0.677158
vn  -0.677158 0.000000 -0.677158
vn  0.000000 0.000000 -0.957748
vn  0.000000 0.000000 -0.957748
vn  0.676924 0.000000 -0.677158
vn  0.676924 0.000000 -0.677158
vn  0.000000 0.957514 0.000000
vn  0.000000 0.957514 0.000000
vn  0.000000 0.957514 0.000000
vn  0.000000 0.957514 0.000000
vn  0.000000 0.000000 0.957514
vn  0.000000 0.000000 0.957514
vn  0.676924 0.000000 0.676924
vn  0.676924 0.000000 0.676924
vn  0.676924 0.000000 -0.677158
vn  0.676924 0.000000 -0.677158
vn  0.000000 0.000000 -0.957748
vn  0.000000 0.000000 -0.957748
vn  -0.677158 0.000000 -0.677158
vn  -0.677158 0.000000 -0.677158
vn  -0.677158 0.000000 0.676924
vn  -0.677158 0.000000 0.676924
vn  0.000000 0.957514 0.000000
vn  0.000000 0.957514 0.000000
vn  0.000000 0.957514 0.000000
vn  0.000000 0.957514 0.000000
# 189 vertex normals

g Object_0
s 1
f 1/2/1 2/1/3 3/3/4 4/4/2
f 5/6/5 6/5/7 4/7/8 3/8/6
f 7/10/9 1/9/1 4/11/2 6/12/7
f 2/14/10 8/13/12 5/15/13 3/16/11
f 9/18/14 10/17/15 6/19/7 5/20/5
f 11/22/16 7/21/9 6/23/7 10/24/15
f 8/26/12 12/25/17 9/27/18 5/28/13
f 13/30/19 14/29/20 10/31/15 9/32/14
f 15/34/21 11/33/16 10/35/15 14/36/20
f 12/38/17 16/37/22 13/39/23 9/40/18
f 17/42/24 18/41/26 19/43/27 20/44/25
f 21/46/28 22/45/30 20/47/31 19/48/29
f 22/50/30 21/49/28 14/51/20 13/52/19
f 18/54/32 23/53/33 21/55/28 19/56/29
f 23/58/33 15/57/21 14/59/20 21/60/28
f 24/62/34 17/61/36 20/63/37 22/64/35
f 16/66/22 24/65/34 22/67/35 13/68/23
f 25/70/38 26/69/39 2/71/3 1/72/1
f 27/74/40 25/73/41 1/75/42 7/76/9
f 26/78/43 28/77/44 8/79/12 2/80/10
f 29/82/45 27/81/40 7/83/9 11/84/16
f 28/86/44 30/85/46 12/87/17 8/88/12
f 31/90/47 29/89/45 11/91/16 15/92/21
f 30/94/46 32/93/48 16/95/22 12/96/17
f 33/98/49 34/97/50 18/99/26 17/100/24
f 34/102/50 35/101/51 23/103/33 18/104/26
f 35/106/51 31/105/47 15/107/21 23/108/33
f 36/110/52 33/109/53 17/111/36 24/112/34
f 32/114/48 36/113/52 24/115/34 16/116/22
f 37/118/54 38/117/55 26/119/39 25/120/38
f 39/122/56 37/121/54 25/123/38 27/124/40
f 38/126/55 40/125/57 28/127/44 26/128/39
f 41/130/58 39/129/56 27/131/40 29/132/45
f 40/134/57 42/133/59 30/135/46 28/136/44
f 43/138/60 41/137/58 29/139/45 31/140/47
f 42/142/59 44/141/61 32/143/48 30/144/46
f 45/146/62 46/145/63 34/147/50 33/148/49
f 46/150/64 47/149/66 35/151/51 34/152/65
f 47/154/66 43/153/60 31/155/47 35/156/51
f 48/158/67 45/157/68 33/159/53 36/160/52
f 44/162/61 48/161/67 36/163/52 32/164/48
f 49/166/69 50/165/71 51/167/72 52/168/70
f 50/170/71 49/169/69 38/171/55 37/172/54
f 53/174/73 54/173/75 52/175/76 51/176/74
f 50/178/71 55/177/77 53/179/78 51/180/72
f 55/182/77 50/181/79 37/183/80 39/184/56
f 56/186/81 49/185/69 52/187/70 54/188/75
f 49/190/82 56/189/81 40/191/57 38/192/83
f 57/194/84 58/193/85 54/195/75 53/196/73
f 55/198/77 59/197/86 57/199/87 53/200/78
f 59/202/86 55/201/77 39/203/56 41/204/58
f 60/206/88 56/205/81 54/207/75 58/208/85
f 56/210/81 60/209/88 42/211/59 40/212/57
f 61/214/89 62/213/90 58/215/85 57/216/84
f 59/218/86 63/217/91 61/219/92 57/220/87
f 63/222/91 59/221/86 41/223/58 43/224/60
f 64/226/93 60/225/88 58/227/85 62/228/90
f 60/230/88 64/229/93 44/231/61 42/232/59
f 65/234/94 66/233/96 67/235/97 68/236/95
f 66/238/96 65/237/94 62/239/90 61/240/89
f 69/242/98 70/241/100 68/243/101 67/244/99
f 70/246/100 69/245/98 46/247/63 45/248/62
f 71/250/102 69/249/104 67/251/105 66/252/103
f 69/254/98 71/253/102 47/255/66 46/256/63
f 63/258/91 71/257/102 66/259/103 61/260/92
f 71/262/102 63/261/91 43/263/60 47/264/66
f 70/266/106 72/265/107 65/267/94 68/268/95
f 72/270/107 70/269/100 45/271/62 48/272/67
f 72/274/107 64/273/93 62/275/90 65/276/94
f 64/278/93 72/277/107 48/279/67 44/280/61
f 76/282/108 80/281/110 77/283/111 73/284/109
f 78/286/113 74/285/112 73/287/109 77/288/111
f 79/290/115 75/289/114 74/291/112 78/292/113
f 75/294/116 79/293/117 80/295/110 76/296/108
f 77/298/111 80/297/110 84/299/118 81/300/119
f 82/302/121 78/301/113 77/303/120 81/304/119
f 83/306/122 79/305/115 78/307/113 82/308/121
f 80/310/110 79/309/117 83/311/123 84/312/118
f 99/314/124 97/313/126 88/315/127 85/316/125
f 86/318/129 100/317/128 99/319/130 85/320/131
f 87/322/133 98/321/132 100/323/128 86/324/129
f 97/326/126 98/325/134 87/327/135 88/328/127
f 88/330/127 92/329/136 89/331/137 85/332/125
f 90/334/139 86/333/129 85/335/131 89/336/138
f 91/338/141 87/337/133 86/339/129 90/340/140
f 87/342/135 91/341/141 92/343/142 88/344/127
f 92/346/136 96/345/143 93/347/144 89/348/137
f 94/350/146 90/349/139 89/351/138 93/352/145
f 95/354/147 91/353/141 90/355/139 94/356/146
f 91/358/148 95/357/149 96/359/150 92/360/136
f 84/362/118 97/361/126 99/363/124 81/364/119
f 99/366/130 100/365/128 82/367/121 81/368/151
f 100/370/128 98/369/132 83/371/122 82/372/121
f 83/374/123 98/373/134 97/375/126 84/376/118
f 74/378/152 75/377/154 76/379/155 73/380/153
f 94/382/156 93/381/144 96/383/143 95/384/157
f 103/386/158 104/385/160 102/387/161 101/388/159
f 104/390/160 108/389/162 106/391/163 102/392/161
f 108/394/164 107/393/166 105/395/167 106/396/165
f 107/398/166 103/397/168 101/399/169 105/400/167
f 107/402/170 108/401/172 104/403/173 103/404/171
f 109/406/174 110/405/176 112/407/177 111/408/175
f 110/410/178 114/409/180 116/411/181 112/412/179
f 114/414/180 113/413/182 115/415/183 116/416/181
f 113/418/184 109/417/174 111/419/175 115/420/185
f 111/422/186 112/421/188 116/423/189 115/424/187
# 106 faces

g
