# Wavefront OBJ exported by RE2MV
#
# object Object_0 to come ...
#
v  0.000000 47.980000 7.180000
v  0.000000 71.980003 7.180000
v  -18.000000 47.980000 0.000000
v  -18.000000 71.980003 0.000000
v  0.000000 71.980003 0.000000
v  0.000000 47.980000 0.000000
v  0.000000 0.000000 7.180000
v  0.000000 23.980000 7.180000
v  -18.000000 0.000000 0.000000
v  -18.000000 23.980000 0.000000
v  0.000000 23.980000 0.000000
v  0.000000 0.000000 0.000000
v  -54.000000 47.980000 0.000000
v  -54.000000 71.980003 0.000000
v  -36.000000 71.980003 0.000000
v  -36.000000 47.980000 0.000000
v  -54.000000 23.980000 0.000000
v  -54.000000 0.000000 0.000000
v  -36.000000 23.980000 0.000000
v  -36.000000 0.000000 0.000000
# 20 vertices

vt  0.984375 0.337255
vt  0.656250 0.337255
vt  0.984375 0.556863
vt  0.656250 0.556863
vt  0.000000 1.000000
vt  0.328125 1.000000
vt  0.000000 0.780392
vt  0.328125 0.780392
vt  0.328125 0.321569
vt  0.328125 0.266667
vt  0.000000 0.321569
vt  0.000000 0.266667
vt  0.656250 0.780392
vt  0.656250 0.556863
vt  0.328125 0.780392
vt  0.328125 0.556863
vt  0.656250 0.556863
vt  0.656250 0.337255
vt  0.328125 0.556863
vt  0.328125 0.333333
vt  0.656250 1.000000
vt  0.656250 0.780392
vt  0.328125 1.000000
vt  0.328125 0.780392
vt  0.328125 0.556863
vt  0.328125 0.333333
vt  0.007813 0.556863
vt  0.007813 0.333333
vt  0.328125 0.780392
vt  0.328125 0.556863
vt  0.000000 0.780392
vt  0.007813 0.556863
vt  0.656250 0.266667
vt  0.656250 0.321569
vt  0.992188 0.266667
vt  0.992188 0.321569
vt  0.656250 0.321569
vt  0.656250 0.266667
vt  0.328125 0.321569
vt  0.328125 0.266667
vt  0.656250 0.556863
vt  0.656250 0.780392
vt  0.984375 0.556863
vt  0.984375 0.780392
vt  0.656250 0.780392
vt  0.656250 1.000000
vt  0.984375 0.780392
vt  0.984375 1.000000
# 36 texture coordinates

vn  0.000000 0.000000 -0.957748
vn  0.000000 0.000000 -0.957748
vn  0.957514 0.000000 0.000000
vn  0.000000 0.000000 -0.957748
vn  0.000000 0.000000 -0.957748
vn  0.000000 0.000000 -0.957748
vn  0.000000 0.000000 -0.957748
vn  0.000000 0.000000 -0.957748
vn  0.957514 0.000000 0.000000
vn  0.957514 0.000000 0.000000
vn  0.000000 0.000000 -0.957748
vn  0.000000 0.000000 -0.957748
# 12 vertex normals

g Object_0
s 1
f 20/2/1 18/1/1 17/3/1 19/4/1
f 4/6/2 5/5/2 6/7/2 3/8/2
f 1/10/3 6/9/3 5/11/3 2/12/3
f 19/14/4 16/13/4 3/15/4 10/16/4
f 20/18/5 19/17/5 10/19/5 9/20/5
f 16/22/6 15/21/6 4/23/6 3/24/6
f 9/26/7 10/25/7 11/27/7 12/28/7
f 10/30/8 3/29/8 6/31/8 11/32/8
f 11/34/9 8/33/9 7/35/9 12/36/9
f 8/38/10 11/37/10 6/39/10 1/40/10
f 16/42/11 19/41/11 17/43/11 13/44/11
f 15/46/12 16/45/12 13/47/12 14/48/12
# 12 faces

g
