# Wavefront OBJ exported by RE2MV
#
# object Object_0 to come ...
#
v  -24.000000 23.980000 0.000000
v  -24.000000 0.000000 0.000000
v  -36.000000 0.000000 0.000000
v  -36.000000 23.980000 0.000000
v  -24.000000 71.980003 0.000000
v  -24.000000 47.980000 0.000000
v  -36.000000 47.980000 0.000000
v  -36.000000 71.980003 0.000000
v  -12.000000 0.000000 0.000000
v  -12.000000 23.980000 0.000000
v  0.000000 23.980000 0.000000
v  0.000000 0.000000 0.000000
v  -12.000000 47.980000 0.000000
v  -12.000000 71.980003 0.000000
v  0.000000 71.980003 0.000000
v  0.000000 47.980000 0.000000
# 16 vertices

vt  0.984375 0.011765
vt  0.648438 0.011765
vt  0.984375 0.337255
vt  0.648438 0.337255
vt  0.984375 0.670588
vt  0.648438 0.670588
vt  0.984375 1.000000
vt  0.648438 1.000000
vt  0.984375 0.337255
vt  0.648438 0.337255
vt  0.984375 0.670588
vt  0.648438 0.670588
vt  0.000000 0.337255
vt  0.320313 0.337255
vt  0.007813 0.003922
vt  0.320313 0.003922
vt  0.648438 0.011765
vt  0.320313 0.003922
vt  0.648438 0.337255
vt  0.320313 0.337255
vt  0.000000 1.000000
vt  0.320313 1.000000
vt  0.000000 0.670588
vt  0.320313 0.670588
vt  0.648438 0.670588
vt  0.320313 0.670588
vt  0.648438 1.000000
vt  0.320313 1.000000
vt  0.000000 0.670588
vt  0.320313 0.670588
vt  0.000000 0.337255
vt  0.320313 0.337255
vt  0.648438 0.337255
vt  0.320313 0.337255
vt  0.648438 0.670588
vt  0.320313 0.670588
# 27 texture coordinates

vn  0.000000 0.000000 -0.957748
vn  0.000000 0.000000 -0.957748
vn  0.000000 0.000000 -0.957748
vn  0.000000 0.000000 -0.957748
vn  0.000000 0.000000 -0.957748
vn  0.000000 0.000000 -0.957748
vn  0.000000 0.000000 -0.957748
vn  0.000000 0.000000 -0.957748
vn  0.000000 0.000000 -0.957748
# 9 vertex normals

g Object_0
s 1
f 2/2/1 3/1/1 4/3/1 1/4/1
f 6/6/2 7/5/2 8/7/2 5/8/2
f 1/10/3 4/9/3 7/11/3 6/12/3
f 10/14/4 11/13/4 12/15/4 9/16/4
f 9/18/5 2/17/5 1/19/5 10/20/5
f 14/22/6 15/21/6 16/23/6 13/24/6
f 13/26/7 6/25/7 5/27/7 14/28/7
f 13/30/8 16/29/8 11/31/8 10/32/8
f 10/34/9 1/33/9 6/35/9 13/36/9
# 9 faces

g
