# Wavefront OBJ exported by RE2MV
#
# object Object_0 to come ...
#
v  -26.559999 1.560000 1.600000
v  -26.559999 0.000000 1.600000
v  -28.219999 0.000000 1.600000
v  -28.219999 1.560000 1.600000
v  -26.559999 3.120000 1.600000
v  -28.219999 3.120000 1.600000
v  -26.559999 4.700000 1.600000
v  -28.219999 4.700000 1.600000
v  -26.559999 17.340000 1.600000
v  -28.219999 17.340000 1.600000
v  -24.900000 1.560000 1.600000
v  -24.900000 0.000000 1.600000
v  -24.900000 3.120000 1.600000
v  -24.900000 4.700000 1.600000
v  -24.900000 17.340000 1.600000
v  -23.240000 1.560000 1.600000
v  -23.240000 0.000000 1.600000
v  -23.240000 3.120000 1.600000
v  -23.240000 4.700000 1.600000
v  -23.240000 17.340000 1.600000
v  -21.580000 1.560000 1.600000
v  -21.580000 0.000000 1.600000
v  -21.580000 3.120000 1.600000
v  -21.580000 4.700000 1.600000
v  -21.580000 17.340000 1.600000
v  -19.920000 1.560000 1.600000
v  -19.920000 0.000000 1.600000
v  -19.920000 3.120000 1.600000
v  -19.920000 4.700000 1.600000
v  -19.920000 17.340000 1.600000
v  -18.260000 1.560000 1.600000
v  -18.260000 0.000000 1.600000
v  -18.260000 3.120000 1.600000
v  -18.260000 4.700000 1.600000
v  -18.260000 17.340000 1.600000
v  0.040000 1.560000 1.600000
v  0.040000 0.000000 1.600000
v  0.040000 3.120000 1.600000
v  0.040000 4.700000 1.600000
v  0.040000 17.340000 1.600000
v  -25.959999 2.480000 0.080000
v  -21.540001 2.760000 0.080000
v  -25.959999 3.700000 0.080000
v  -21.540001 3.560000 0.080000
v  -25.959999 2.480000 -1.440000
v  -21.540001 2.760000 -1.440000
v  -25.959999 3.700000 -1.440000
v  -21.540001 3.560000 -1.440000
v  -28.219999 0.000000 1.780000
v  0.000000 0.000000 1.780000
v  -28.219999 17.260000 1.780000
v  0.000000 17.260000 1.780000
v  -28.219999 0.000000 0.000000
v  0.000000 0.000000 0.000000
v  -28.219999 17.260000 0.000000
v  0.000000 17.260000 0.000000
v  -20.760000 3.900000 1.600000
v  -21.540001 2.760000 0.080000
v  -21.540001 3.560000 0.080000
v  -21.540001 2.760000 -1.440000
v  -21.540001 3.560000 -1.440000
# 61 vertices

vt  0.226563 0.435294
vt  0.250000 0.419608
vt  0.281250 0.435294
vt  0.281250 0.407843
vt  0.250000 0.419608
vt  0.226563 0.407843
vt  0.281250 0.407843
vt  0.281250 0.435294
vt  0.250000 0.419608
vt  0.226563 0.435294
vt  0.226563 0.407843
vt  0.250000 0.419608
vt  0.000000 0.349020
vt  0.000000 0.380392
vt  0.054688 0.349020
vt  0.054688 0.380392
vt  0.000000 0.380392
vt  0.000000 0.407843
vt  0.054688 0.380392
vt  0.054688 0.407843
vt  0.000000 0.407843
vt  0.000000 0.435294
vt  0.054688 0.407843
vt  0.054688 0.435294
vt  0.000000 0.435294
vt  0.000000 0.658824
vt  0.054688 0.435294
vt  0.054688 0.658824
vt  0.171875 0.380392
vt  0.171875 0.407843
vt  0.226563 0.380392
vt  0.226563 0.407843
vt  0.343750 0.407843
vt  0.281250 0.407843
vt  0.343750 0.435294
vt  0.281250 0.435294
vt  0.281250 0.380392
vt  0.281250 0.407843
vt  0.343750 0.380392
vt  0.343750 0.407843
vt  0.281250 0.349020
vt  0.281250 0.380392
vt  0.343750 0.349020
vt  0.343750 0.380392
vt  0.281250 0.435294
vt  0.281250 0.658824
vt  0.343750 0.435294
vt  0.343750 0.658824
vt  0.171875 0.349020
vt  0.171875 0.380392
vt  0.226563 0.349020
vt  0.226563 0.380392
vt  0.343750 0.349020
vt  0.343750 0.380392
vt  0.976563 0.349020
vt  0.976563 0.380392
vt  0.054688 0.349020
vt  0.054688 0.380392
vt  0.109375 0.349020
vt  0.109375 0.380392
vt  0.054688 0.380392
vt  0.054688 0.407843
vt  0.109375 0.380392
vt  0.109375 0.407843
vt  0.054688 0.407843
vt  0.054688 0.435294
vt  0.109375 0.407843
vt  0.109375 0.435294
vt  0.054688 0.435294
vt  0.054688 0.658824
vt  0.109375 0.435294
vt  0.109375 0.658824
vt  0.171875 0.407843
vt  0.171875 0.435294
vt  0.226563 0.407843
vt  0.226563 0.435294
vt  0.226563 0.380392
vt  0.226563 0.407843
vt  0.281250 0.380392
vt  0.281250 0.407843
vt  0.226563 0.349020
vt  0.226563 0.380392
vt  0.281250 0.349020
vt  0.281250 0.380392
vt  0.343750 0.407843
vt  0.343750 0.435294
vt  0.976563 0.407843
vt  0.976563 0.435294
vt  0.343750 0.380392
vt  0.343750 0.407843
vt  0.976563 0.380392
vt  0.976563 0.407843
vt  0.343750 0.435294
vt  0.343750 0.658824
vt  0.976563 0.435294
vt  0.976563 0.658824
vt  0.109375 0.349020
vt  0.109375 0.380392
vt  0.171875 0.349020
vt  0.171875 0.380392
vt  0.109375 0.380392
vt  0.109375 0.407843
vt  0.171875 0.380392
vt  0.171875 0.407843
vt  0.109375 0.407843
vt  0.109375 0.435294
vt  0.171875 0.407843
vt  0.171875 0.435294
vt  0.109375 0.435294
vt  0.109375 0.658824
vt  0.171875 0.435294
vt  0.171875 0.658824
vt  0.171875 0.435294
vt  0.171875 0.658824
vt  0.226563 0.435294
vt  0.226563 0.658824
vt  0.226563 0.435294
vt  0.226563 0.658824
vt  0.281250 0.435294
vt  0.281250 0.658824
vt  0.375000 0.313725
vt  0.375000 0.345098
vt  0.171875 0.313725
vt  0.171875 0.345098
vt  0.421875 0.321569
vt  0.367188 0.321569
vt  0.421875 0.345098
vt  0.367188 0.345098
vt  0.492188 0.317647
vt  0.437500 0.317647
vt  0.492188 0.341176
vt  0.437500 0.341176
vt  0.171875 0.345098
vt  0.375000 0.345098
vt  0.171875 0.313725
vt  0.375000 0.313725
vt  0.984375 0.654902
vt  0.000000 0.654902
vt  0.984375 0.690196
vt  0.000000 0.690196
vt  0.984375 0.690196
vt  0.984375 0.654902
vt  0.984375 0.690196
vt  0.984375 0.654902
vt  0.984375 0.690196
vt  0.000000 0.690196
vt  0.984375 1.000000
vt  0.000000 1.000000
vt  0.000000 0.654902
vt  0.000000 0.690196
vt  0.000000 0.654902
vt  0.000000 0.690196
vt  0.984375 0.690196
vt  0.000000 0.690196
vt  0.984375 0.654902
vt  0.000000 0.654902
vt  0.031250 0.317647
vt  0.031250 0.345098
vt  0.171875 0.317647
vt  0.171875 0.345098
vt  0.031250 0.317647
vt  0.031250 0.345098
vt  0.171875 0.317647
vt  0.171875 0.345098
vt  0.281250 0.407843
vt  0.226563 0.407843
vt  0.335938 0.427451
vt  0.250000 0.419608
vt  0.281250 0.407843
vt  0.250000 0.419608
vt  0.335938 0.427451
vt  0.281250 0.435294
vt  0.226563 0.435294
vt  0.250000 0.419608
vt  0.335938 0.427451
vt  0.226563 0.407843
# 135 texture coordinates

vn  0.000000 0.000000 0.957514
vn  0.000000 0.000000 0.957514
vn  0.000000 0.000000 0.957514
vn  0.000000 0.000000 0.957514
vn  0.000000 0.000000 0.957514
vn  0.000000 0.000000 0.957514
vn  0.000000 0.000000 0.957514
vn  0.000000 0.000000 0.957514
vn  0.000000 0.000000 0.957514
vn  0.000000 0.000000 0.957514
vn  0.000000 0.000000 0.957514
vn  0.000000 0.000000 0.957514
vn  0.000000 0.000000 0.957514
vn  0.000000 0.000000 0.957514
vn  0.000000 0.000000 0.957514
vn  0.000000 0.000000 0.957514
vn  0.000000 0.000000 0.957514
vn  0.000000 0.000000 0.957514
vn  0.000000 0.000000 0.957514
vn  0.000000 0.000000 0.957514
vn  0.000000 0.000000 0.957514
vn  0.000000 0.000000 0.957514
vn  0.000000 0.000000 0.957514
vn  0.000000 0.000000 0.957514
vn  0.000000 0.000000 0.957514
vn  0.000000 0.000000 0.957514
vn  0.000000 0.000000 0.957514
vn  0.000000 0.000000 0.957514
vn  0.000000 0.000000 0.957514
vn  0.000000 0.000000 0.957514
vn  0.000000 0.000000 0.957514
vn  0.000000 0.000000 0.957514
vn  0.000000 0.000000 0.957514
vn  0.000000 0.000000 0.957514
vn  0.000000 0.000000 0.957514
vn  0.000000 0.000000 0.957514
vn  0.000000 0.000000 0.957514
vn  0.000000 0.000000 0.957514
vn  0.000000 0.000000 0.957514
vn  0.000000 0.000000 0.957514
vn  0.000000 0.000000 0.957514
vn  0.030631 0.957046 0.000000
vn  -0.957748 0.000000 0.000000
vn  0.030631 0.957046 0.000000
vn  0.030631 0.957046 0.000000
vn  0.957514 0.000000 0.000000
vn  0.957514 0.000000 0.000000
vn  0.957514 0.000000 0.000000
vn  0.957514 0.000000 0.000000
vn  -0.957748 0.000000 0.000000
vn  -0.957748 0.000000 0.000000
vn  -0.957748 0.000000 0.000000
vn  -0.957748 0.000000 0.000000
vn  0.056820 -0.956111 0.000000
vn  0.056820 -0.956111 0.000000
vn  0.040919 -0.689550 -0.663362
vn  0.056820 -0.956111 0.000000
vn  0.000000 0.957514 0.000000
vn  0.000000 0.957514 0.000000
vn  0.000000 0.957514 0.000000
vn  0.000000 0.957514 0.000000
vn  0.957514 0.000000 0.000000
vn  0.957514 0.000000 0.000000
vn  0.957514 0.000000 0.000000
vn  0.957514 0.000000 0.000000
vn  0.000000 0.000000 -0.957748
vn  0.000000 0.000000 -0.957748
vn  0.000000 0.000000 -0.957748
vn  0.000000 0.000000 -0.957748
vn  -0.957748 0.000000 0.000000
vn  -0.957748 0.000000 0.000000
vn  -0.957748 0.000000 0.000000
vn  -0.957748 0.000000 0.000000
vn  0.000000 -0.957748 0.000000
vn  0.000000 -0.957748 0.000000
vn  0.000000 -0.957748 0.000000
vn  0.000000 -0.957748 0.000000
vn  0.021980 0.690252 -0.663362
vn  0.000000 0.000000 -0.957748
vn  0.000000 0.000000 -0.957748
# 80 vertex normals

g Object_0
s 1
f 24/1/35 57/2/38 29/3/16
f 28/4/15 57/5/38 23/6/12
f 28/7/15 29/8/16 57/9/38
f 24/10/35 23/11/12 57/12/38
f 4/14/1 3/13/3 2/15/4 1/16/2
f 6/18/5 4/17/1 1/19/2 5/20/6
f 8/22/7 6/21/5 5/23/6 7/24/8
f 10/26/9 8/25/7 7/27/8 9/28/10
f 18/30/11 16/29/13 21/31/14 23/32/12
f 28/34/15 33/33/17 34/35/18 29/36/16
f 28/38/15 26/37/19 31/39/20 33/40/17
f 26/42/19 27/41/21 32/43/22 31/44/20
f 30/46/23 29/45/16 34/47/18 35/48/24
f 16/50/13 17/49/25 22/51/26 21/52/14
f 31/54/20 32/53/22 37/55/28 36/56/27
f 1/58/2 2/57/4 12/59/30 11/60/29
f 5/62/6 1/61/2 11/63/29 13/64/31
f 7/66/8 5/65/6 13/67/31 14/68/32
f 9/70/10 7/69/8 14/71/32 15/72/33
f 19/74/34 18/73/11 23/75/12 24/76/35
f 23/78/12 21/77/14 26/79/19 28/80/15
f 21/82/14 22/81/26 27/83/21 26/84/19
f 34/86/18 33/85/17 38/87/37 39/88/36
f 33/90/17 31/89/20 36/91/27 38/92/37
f 35/94/24 34/93/18 39/95/36 40/96/39
f 11/98/29 12/97/30 17/99/25 16/100/13
f 13/102/31 11/101/29 16/103/13 18/104/11
f 14/106/32 13/105/31 18/107/11 19/108/34
f 15/110/33 14/109/32 19/111/34 20/112/40
f 20/114/40 19/113/34 24/115/35 25/116/41
f 25/118/41 24/117/35 29/119/16 30/120/23
f 47/122/42 43/121/44 44/123/45 48/124/43
f 58/126/46 60/125/48 61/127/49 59/128/47
f 45/130/50 41/129/52 43/131/53 47/132/51
f 45/134/54 46/133/56 42/135/57 41/136/55
f 51/138/58 52/137/60 56/139/61 55/140/59
f 50/142/62 54/141/64 56/143/65 52/144/63
f 54/146/66 53/145/68 55/147/69 56/148/67
f 53/150/70 49/149/72 51/151/73 55/152/71
f 53/154/74 54/153/76 50/155/77 49/156/75
f 48/158/78 46/157/56 45/159/80 47/160/79
f 48/162/78 44/161/45 59/163/47 61/164/49
f 44/166/45 42/165/57 58/167/46 59/168/47
f 42/170/57 46/169/56 60/171/48 58/172/46
f 46/174/56 48/173/78 61/175/49 60/176/48
# 45 faces

g
