# Wavefront OBJ exported by RE2MV
#
# object Object_0 to come ...
#
v  -1.940000 43.180000 8.000000
v  -1.940000 50.360001 -7.820000
v  -0.140000 50.360001 -5.800000
v  -0.140000 43.180000 10.040000
v  -3.740000 43.180000 8.020000
v  -3.740000 50.360001 -7.800000
v  1.780000 14.380000 57.619999
v  1.780000 14.380000 72.040001
v  1.780000 0.000000 72.040001
v  1.780000 0.000000 57.619999
v  1.780000 14.380000 43.220001
v  1.780000 0.000000 43.220001
v  1.780000 14.380000 28.799999
v  1.780000 0.000000 28.799999
v  -0.140000 14.380000 10.040000
v  -0.140000 14.380000 15.800000
v  -0.140000 0.000000 15.800000
v  -0.140000 0.000000 10.040000
v  -1.940000 0.000000 8.000000
v  -1.940000 14.380000 8.000000
v  -3.740000 0.000000 8.020000
v  -3.740000 14.380000 8.020000
v  -1.940000 64.760002 8.000000
v  -1.940000 71.959999 8.000000
v  -0.140000 71.959999 10.040000
v  -0.140000 64.760002 10.040000
v  -3.740000 64.760002 8.020000
v  -3.740000 71.959999 8.020000
v  1.780000 28.780001 57.619999
v  1.780000 28.780001 72.040001
v  1.780000 28.780001 43.220001
v  1.780000 28.780001 28.799999
v  -0.140000 28.780001 10.040000
v  -0.140000 28.780001 15.800000
v  -1.940000 21.580000 -7.820000
v  -0.140000 21.580000 -5.800000
v  -3.740000 21.580000 -7.800000
v  -0.140000 57.560001 15.800000
v  1.780000 57.560001 28.799999
v  1.780000 43.180000 28.799999
v  -0.140000 43.180000 15.800000
v  1.780000 43.180000 57.619999
v  1.780000 43.180000 72.040001
v  1.780000 43.180000 43.220001
v  -0.140000 28.780001 -5.800000
v  -0.140000 35.980000 10.040000
v  -1.940000 28.780001 -7.820000
v  -1.940000 35.980000 8.000000
v  -3.740000 28.780001 -7.800000
v  -3.740000 35.980000 8.020000
v  -0.140000 64.760002 15.800000
v  -0.140000 71.959999 15.800000
v  1.780000 71.959999 28.799999
v  1.780000 64.760002 28.799999
v  -0.140000 57.560001 10.040000
v  1.780000 64.760002 57.619999
v  1.780000 71.959999 57.619999
v  1.780000 71.959999 72.040001
v  1.780000 64.760002 72.040001
v  1.780000 57.560001 57.619999
v  1.780000 57.560001 72.040001
v  1.780000 64.760002 43.220001
v  1.780000 71.959999 43.220001
v  1.780000 57.560001 43.220001
v  -0.140000 57.560001 -5.800000
v  -1.940000 57.560001 -7.820000
v  -3.740000 57.560001 -7.800000
v  1.780000 0.000000 17.760000
v  1.780000 14.380000 17.760000
v  1.780000 28.780001 17.760000
v  1.780000 43.180000 17.760000
v  1.780000 57.560001 17.760000
v  1.780000 64.760002 17.760000
v  1.780000 71.959999 17.760000
# 74 vertices

vt  0.390625 0.039216
vt  0.492188 0.145098
vt  0.390625 0.145098
vt  0.789063 0.039216
vt  0.890625 0.145098
vt  0.789063 0.145098
vt  0.390625 0.145098
vt  0.492188 0.145098
vt  0.390625 0.184314
vt  0.695313 0.015686
vt  0.593750 0.015686
vt  0.695313 0.003922
vt  0.593750 0.003922
vt  0.593750 0.015686
vt  0.695313 0.015686
vt  0.593750 0.027451
vt  0.695313 0.027451
vt  0.195313 0.996078
vt  0.195313 0.894118
vt  0.000000 0.996078
vt  0.000000 0.894118
vt  0.195313 0.894118
vt  0.195313 0.792157
vt  0.000000 0.894118
vt  0.000000 0.792157
vt  0.195313 0.792157
vt  0.195313 0.694118
vt  0.000000 0.792157
vt  0.000000 0.694118
vt  0.195313 0.184314
vt  0.195313 0.145098
vt  0.000000 0.184314
vt  0.000000 0.145098
vt  0.195313 0.694118
vt  0.195313 0.619608
vt  0.000000 0.694118
vt  0.000000 0.619608
vt  0.195313 0.015686
vt  0.000000 0.015686
vt  0.195313 0.003922
vt  0.000000 0.003922
vt  0.000000 0.015686
vt  0.195313 0.015686
vt  0.000000 0.027451
vt  0.195313 0.027451
vt  0.992188 0.015686
vt  0.890625 0.015686
vt  0.992188 0.003922
vt  0.890625 0.003922
vt  0.890625 0.015686
vt  0.992188 0.015686
vt  0.890625 0.027451
vt  0.992188 0.027451
vt  0.398438 0.996078
vt  0.398438 0.894118
vt  0.195313 0.996078
vt  0.195313 0.894118
vt  0.398438 0.894118
vt  0.398438 0.792157
vt  0.195313 0.894118
vt  0.195313 0.792157
vt  0.398438 0.792157
vt  0.398438 0.694118
vt  0.195313 0.792157
vt  0.195313 0.694118
vt  0.390625 0.184314
vt  0.390625 0.145098
vt  0.195313 0.184314
vt  0.195313 0.145098
vt  0.398438 0.694118
vt  0.398438 0.619608
vt  0.195313 0.694118
vt  0.195313 0.619608
vt  0.296875 0.015686
vt  0.195313 0.015686
vt  0.296875 0.003922
vt  0.195313 0.003922
vt  0.195313 0.015686
vt  0.296875 0.015686
vt  0.195313 0.027451
vt  0.296875 0.027451
vt  0.789063 0.694118
vt  0.789063 0.619608
vt  0.593750 0.694118
vt  0.593750 0.619608
vt  0.593750 0.996078
vt  0.593750 0.894118
vt  0.398438 0.996078
vt  0.398438 0.894118
vt  0.593750 0.894118
vt  0.593750 0.792157
vt  0.398438 0.894118
vt  0.398438 0.792157
vt  0.593750 0.792157
vt  0.593750 0.694118
vt  0.398438 0.792157
vt  0.398438 0.694118
vt  0.593750 0.694118
vt  0.593750 0.619608
vt  0.398438 0.694118
vt  0.398438 0.619608
vt  0.390625 0.015686
vt  0.390625 0.003922
vt  0.492188 0.015686
vt  0.492188 0.003922
vt  0.390625 0.015686
vt  0.492188 0.015686
vt  0.390625 0.027451
vt  0.492188 0.027451
vt  0.992188 0.694118
vt  0.992188 0.619608
vt  0.890625 0.694118
vt  0.890625 0.619608
vt  0.789063 0.184314
vt  0.789063 0.145098
vt  0.593750 0.184314
vt  0.593750 0.145098
vt  0.992188 0.894118
vt  0.890625 0.894118
vt  0.992188 0.996078
vt  0.890625 0.996078
vt  0.789063 0.996078
vt  0.789063 0.894118
vt  0.593750 0.996078
vt  0.593750 0.894118
vt  0.992188 0.792157
vt  0.890625 0.792157
vt  0.992188 0.894118
vt  0.890625 0.894118
vt  0.789063 0.894118
vt  0.789063 0.792157
vt  0.593750 0.894118
vt  0.593750 0.792157
vt  0.992188 0.694118
vt  0.890625 0.694118
vt  0.992188 0.792157
vt  0.890625 0.792157
vt  0.789063 0.792157
vt  0.789063 0.694118
vt  0.593750 0.792157
vt  0.593750 0.694118
vt  0.390625 0.015686
vt  0.296875 0.015686
vt  0.390625 0.003922
vt  0.296875 0.003922
vt  0.296875 0.015686
vt  0.390625 0.015686
vt  0.296875 0.027451
vt  0.390625 0.027451
vt  0.593750 0.015686
vt  0.492188 0.015686
vt  0.593750 0.003922
vt  0.492188 0.003922
vt  0.492188 0.015686
vt  0.593750 0.015686
vt  0.492188 0.027451
vt  0.593750 0.027451
vt  0.789063 0.015686
vt  0.695313 0.015686
vt  0.789063 0.003922
vt  0.695313 0.003922
vt  0.695313 0.015686
vt  0.789063 0.015686
vt  0.695313 0.027451
vt  0.789063 0.027451
vt  0.789063 0.015686
vt  0.789063 0.003922
vt  0.890625 0.015686
vt  0.890625 0.003922
vt  0.789063 0.015686
vt  0.890625 0.015686
vt  0.789063 0.027451
vt  0.890625 0.027451
vt  0.992188 0.145098
vt  0.890625 0.145098
vt  0.992188 0.184314
vt  0.890625 0.184314
vt  0.789063 0.996078
vt  0.890625 0.996078
vt  0.789063 0.894118
vt  0.890625 0.894118
vt  0.789063 0.894118
vt  0.890625 0.894118
vt  0.789063 0.792157
vt  0.890625 0.792157
vt  0.789063 0.792157
vt  0.890625 0.792157
vt  0.789063 0.694118
vt  0.890625 0.694118
vt  0.789063 0.603922
vt  0.789063 0.619608
vt  0.890625 0.603922
vt  0.890625 0.619608
vt  0.296875 0.039216
vt  0.195313 0.145098
vt  0.390625 0.039216
vt  0.390625 0.145098
vt  0.593750 0.145098
vt  0.492188 0.145098
vt  0.593750 0.184314
vt  0.390625 0.184314
vt  0.695313 0.039216
vt  0.593750 0.145098
vt  0.789063 0.039216
vt  0.789063 0.145098
vt  0.890625 0.184314
vt  0.890625 0.145098
vt  0.789063 0.184314
vt  0.789063 0.145098
vt  0.000000 0.603922
vt  0.000000 0.619608
vt  0.195313 0.603922
vt  0.195313 0.619608
vt  0.195313 0.603922
vt  0.195313 0.619608
vt  0.398438 0.603922
vt  0.398438 0.619608
vt  0.398438 0.603922
vt  0.398438 0.619608
vt  0.593750 0.603922
vt  0.593750 0.619608
vt  0.593750 0.603922
vt  0.593750 0.619608
vt  0.789063 0.603922
vt  0.789063 0.619608
vt  0.890625 0.694118
vt  0.890625 0.619608
vt  0.789063 0.694118
vt  0.789063 0.619608
vt  0.890625 0.603922
vt  0.890625 0.619608
vt  0.992188 0.603922
vt  0.992188 0.619608
# 177 texture coordinates

vn  0.344191 -0.516286 -0.729301
vn  0.912386 -0.180747 -0.227512
vn  0.344191 -0.516286 -0.729301
vn  0.816751 -0.310987 -0.391423
vn  -0.006313 -0.518624 -0.805060
vn  -0.006313 -0.518624 -0.805060
vn  0.957514 0.000000 0.000000
vn  0.957514 0.000000 0.000000
vn  0.957514 0.000000 0.000000
vn  0.957514 0.000000 0.000000
vn  0.957514 0.000000 0.000000
vn  0.957514 0.000000 0.000000
vn  0.957514 0.000000 0.000000
vn  0.957514 0.000000 0.000000
vn  0.912386 -0.180747 -0.227512
vn  0.895083 0.000000 -0.340216
vn  0.885496 0.000000 -0.364066
vn  0.885496 0.000000 -0.364066
vn  0.885496 0.000000 -0.364066
vn  0.885496 0.000000 -0.364066
vn  0.388851 0.000000 -0.875208
vn  0.344191 -0.516286 -0.729301
vn  -0.006313 -0.518624 -0.805060
vn  -0.007482 0.000000 -0.957748
vn  0.344191 0.516052 -0.729301
vn  0.912386 0.180513 -0.227512
vn  0.388851 0.000000 -0.875208
vn  0.895083 0.000000 -0.340216
vn  -0.007482 0.000000 -0.957748
vn  -0.006313 0.518390 -0.805060
vn  0.957514 0.000000 0.000000
vn  0.957514 0.000000 0.000000
vn  0.957514 0.000000 0.000000
vn  0.957514 0.000000 0.000000
vn  0.957514 0.000000 0.000000
vn  0.912386 0.000000 -0.290411
vn  0.885496 0.000000 -0.364066
vn  0.344191 -0.516286 -0.729301
vn  0.816751 -0.310987 -0.391423
vn  -0.006313 -0.518624 -0.805060
vn  0.885496 0.000000 -0.364066
vn  0.885496 0.000000 -0.364066
vn  0.957514 0.000000 0.000000
vn  0.957514 0.000000 0.000000
vn  0.957514 0.000000 0.000000
vn  0.957514 0.000000 0.000000
vn  0.957514 0.000000 0.000000
vn  0.912386 0.180513 -0.227512
vn  0.883158 0.229850 -0.289709
vn  0.344191 0.516052 -0.729301
vn  0.344191 0.516052 -0.729301
vn  -0.006313 0.518390 -0.805060
vn  -0.006313 0.518390 -0.805060
vn  0.885496 0.000000 -0.364066
vn  0.885496 0.000000 -0.364066
vn  0.957514 0.000000 0.000000
vn  0.957514 0.000000 0.000000
vn  0.957514 0.000000 0.000000
vn  0.885496 0.000000 -0.364066
vn  0.885496 0.000000 -0.364066
vn  0.957514 0.000000 0.000000
vn  0.957514 0.000000 0.000000
vn  0.957514 0.000000 0.000000
vn  0.957514 0.000000 0.000000
vn  0.957514 0.000000 0.000000
vn  0.957514 0.000000 0.000000
vn  0.957514 0.000000 0.000000
vn  0.957514 0.000000 0.000000
vn  0.957514 0.000000 0.000000
vn  0.883158 0.229850 -0.289709
vn  0.344191 0.516052 -0.729301
vn  -0.006313 0.518390 -0.805060
vn  0.885496 0.000000 -0.364066
vn  0.885496 0.000000 -0.364066
# 74 vertex normals

g Object_0
s 1
f 45/1/49 46/2/48 33/3/35
f 65/4/70 26/5/26 55/6/58
f 33/7/35 46/8/48 34/9/36
f 1/11/1 2/10/3 3/12/4 4/13/2
f 2/15/3 1/14/1 5/16/6 6/17/5
f 7/19/7 8/18/9 9/20/10 10/21/8
f 11/23/11 7/22/7 10/24/8 12/25/12
f 13/27/13 11/26/11 12/28/12 14/29/14
f 15/31/15 16/30/17 17/32/18 18/33/16
f 69/35/19 13/34/13 14/36/14 68/37/20
f 19/39/21 20/38/22 15/40/15 18/41/16
f 20/43/22 19/42/21 21/44/24 22/45/23
f 23/47/25 24/46/27 25/48/28 26/49/26
f 24/51/27 23/50/25 27/52/30 28/53/29
f 29/55/31 30/54/32 8/56/9 7/57/7
f 31/59/33 29/58/31 7/60/7 11/61/11
f 32/63/34 31/62/33 11/64/11 13/65/13
f 33/67/35 34/66/36 16/68/17 15/69/15
f 70/71/37 32/70/34 13/72/13 69/73/19
f 20/75/22 35/74/38 36/76/39 15/77/15
f 35/79/38 20/78/22 22/80/23 37/81/40
f 72/83/41 39/82/43 40/84/44 71/85/42
f 42/87/45 43/86/46 30/88/32 29/89/31
f 44/91/47 42/90/45 29/92/31 31/93/33
f 40/95/44 44/94/47 31/96/33 32/97/34
f 71/99/42 40/98/44 32/100/34 70/101/37
f 45/103/49 47/102/50 48/104/51 46/105/48
f 48/107/51 47/106/50 49/108/53 50/109/52
f 74/111/54 53/110/56 54/112/57 73/113/55
f 55/115/58 38/114/59 41/116/60 4/117/2
f 56/119/61 57/118/63 58/120/64 59/121/62
f 60/123/65 61/122/66 43/124/46 42/125/45
f 62/127/67 63/126/68 57/128/63 56/129/61
f 64/131/69 60/130/65 42/132/45 44/133/47
f 54/135/57 53/134/56 63/136/68 62/137/67
f 39/139/43 64/138/69 44/140/47 40/141/44
f 35/143/38 47/142/50 45/144/49 36/145/39
f 47/147/50 35/146/38 37/148/40 49/149/53
f 48/151/51 1/150/1 4/152/2 46/153/48
f 1/155/1 48/154/51 50/156/52 5/157/6
f 2/159/3 66/158/71 65/160/70 3/161/4
f 66/163/71 2/162/3 6/164/5 67/165/72
f 65/167/70 66/166/71 23/168/25 26/169/26
f 23/171/25 66/170/71 67/172/72 27/173/30
f 26/175/26 25/174/28 52/176/74 51/177/73
f 59/179/62 61/178/66 60/180/65 56/181/61
f 56/183/61 60/182/65 64/184/69 62/185/67
f 62/187/67 64/186/69 39/188/43 54/189/57
f 72/191/41 38/190/59 51/192/73 73/193/55
f 15/195/15 36/194/39 45/196/49 33/197/35
f 46/199/48 4/198/2 41/200/60 34/201/36
f 4/203/2 3/202/4 65/204/70 55/205/58
f 26/207/26 51/206/73 38/208/59 55/209/58
f 68/211/20 17/210/18 16/212/17 69/213/19
f 69/215/19 16/214/17 34/216/36 70/217/37
f 70/219/37 34/218/36 41/220/60 71/221/42
f 71/223/42 41/222/60 38/224/59 72/225/41
f 73/227/55 54/226/57 39/228/43 72/229/41
f 73/231/55 51/230/73 52/232/74 74/233/54
# 59 faces

g
