# Wavefront OBJ exported by RE2MV
#
# object Object_0 to come ...
#
v  -8.140000 -5.480000 -3.560000
v  -8.140000 4.940000 -3.560000
v  -11.220000 -5.480000 -1.780000
v  -11.220000 4.940000 -1.780000
v  -11.220000 -5.480000 1.760000
v  -11.220000 4.940000 1.760000
v  -8.140000 -5.480000 3.540000
v  -8.140000 4.940000 3.540000
v  -5.040000 -5.480000 1.760000
v  -5.040000 4.940000 1.760000
v  -5.040000 -5.480000 -1.780000
v  -5.040000 4.940000 -1.780000
v  -6.600000 4.940000 -2.680000
v  -6.600000 4.940000 2.640000
v  -6.600000 -5.480000 2.640000
v  -6.600000 -5.480000 -2.680000
v  -5.040000 -2.860000 1.760000
v  -6.600000 2.840000 -2.680000
v  -6.600000 -2.860000 -2.680000
v  -5.040000 2.840000 1.760000
v  -5.040000 2.840000 -1.780000
v  -5.040000 -2.860000 -1.780000
v  -6.600000 -2.860000 2.640000
v  -6.600000 2.840000 2.640000
v  0.000000 -2.860000 1.760000
v  0.000000 -2.860000 -1.780000
v  0.000000 2.840000 -1.780000
v  0.000000 2.840000 1.760000
# 28 vertices

vt  0.414063 0.945098
vt  0.414063 0.945098
vt  0.406250 0.945098
vt  0.398438 0.988235
vt  0.289063 0.988235
vt  0.367188 0.988235
vt  0.367188 0.988235
vt  0.281250 0.988235
vt  0.390625 0.988235
vt  0.445313 0.945098
vt  0.437500 0.945098
vt  0.437500 0.945098
vt  0.101563 0.898039
vt  0.101563 0.921569
vt  0.140625 0.898039
vt  0.101563 0.964706
vt  0.140625 0.898039
vt  0.101563 0.921569
vt  0.039063 0.894118
vt  0.062500 0.894118
vt  0.039063 0.917647
vt  0.039063 0.964706
vt  0.039063 0.917647
vt  0.062500 0.894118
vt  0.140625 0.980392
vt  0.140625 0.898039
vt  0.187500 0.984314
vt  0.187500 0.898039
vt  0.187500 0.898039
vt  0.156250 0.894118
vt  0.187500 0.984314
vt  0.156250 0.984314
vt  0.015625 0.984314
vt  0.015625 0.964706
vt  0.054688 0.984314
vt  0.054688 0.964706
vt  0.156250 0.894118
vt  0.062500 0.894118
vt  0.156250 0.984314
vt  0.062500 0.984314
vt  0.101563 0.984314
vt  0.101563 0.964706
vt  0.140625 0.980392
vt  0.140625 0.898039
vt  0.015625 0.898039
vt  0.015625 0.917647
vt  0.039063 0.894118
vt  0.039063 0.917647
vt  0.054688 0.984314
vt  0.054688 0.964706
vt  0.101563 0.984314
vt  0.101563 0.964706
vt  0.101563 0.898039
vt  0.101563 0.921569
vt  0.054688 0.898039
vt  0.054688 0.921569
vt  0.398438 0.945098
vt  0.398438 0.988235
vt  0.289063 0.945098
vt  0.289063 0.988235
vt  0.054688 0.898039
vt  0.054688 0.921569
vt  0.015625 0.898039
vt  0.015625 0.917647
vt  0.414063 0.945098
vt  0.414063 0.992157
vt  0.437500 0.945098
vt  0.437500 0.992157
vt  0.039063 0.984314
vt  0.039063 0.964706
vt  0.015625 0.984314
vt  0.015625 0.964706
vt  0.390625 0.988235
vt  0.390625 0.941176
vt  0.281250 0.988235
vt  0.281250 0.945098
vt  0.367188 0.988235
vt  0.367188 0.988235
vt  0.289063 0.988235
vt  0.281250 0.988235
vt  0.437500 0.945098
vt  0.414063 0.945098
vt  0.437500 0.945098
vt  0.414063 0.945098
vt  0.039063 0.964706
vt  0.039063 0.984314
vt  0.062500 0.894118
vt  0.062500 0.984314
# 72 texture coordinates

vn  -0.829378 0.000000 0.478640
vn  -0.478874 0.000000 0.829144
vn  -0.829378 0.000000 -0.478874
vn  -0.829378 0.000000 0.478640
vn  0.829144 0.000000 -0.478874
vn  0.829144 0.000000 0.478640
vn  -0.478874 0.000000 -0.829378
vn  -0.829378 0.000000 -0.478874
vn  0.478640 0.000000 0.829144
vn  0.478640 0.000000 0.829144
vn  0.478640 0.000000 0.829144
vn  0.829144 0.000000 -0.478874
vn  0.478640 0.000000 -0.829378
vn  0.478640 0.000000 -0.829378
vn  0.829144 0.000000 0.478640
vn  0.478640 0.000000 0.829144
vn  0.478640 0.000000 0.829144
vn  0.478640 0.000000 0.829144
vn  0.478640 0.000000 0.829144
vn  0.829144 0.000000 0.478640
vn  0.478640 0.000000 0.829144
vn  0.478640 0.000000 0.829144
vn  0.829144 0.000000 0.478640
vn  0.829144 0.000000 0.478640
vn  0.829144 0.000000 -0.478874
vn  0.829144 0.000000 0.478640
vn  0.829144 0.000000 -0.478874
vn  0.478640 0.000000 -0.829378
vn  0.478640 0.000000 -0.829378
vn  0.829144 0.000000 -0.478874
vn  0.478640 0.000000 -0.829378
vn  0.478640 0.000000 -0.829378
vn  0.829144 0.000000 -0.478874
vn  0.000000 -0.957748 0.000000
vn  0.000000 0.957514 0.000000
vn  0.000000 0.957514 0.000000
vn  0.000000 -0.957748 0.000000
vn  0.000000 0.957514 0.000000
vn  0.000000 -0.957748 0.000000
vn  0.478640 0.000000 -0.829378
vn  0.478640 0.000000 -0.829378
vn  0.478640 0.000000 -0.829378
vn  0.478640 0.000000 0.829144
vn  0.478640 0.000000 0.829144
vn  0.478640 0.000000 0.829144
vn  0.478640 0.000000 0.829144
vn  0.478640 0.000000 0.829144
vn  0.478640 0.000000 -0.829378
vn  0.478640 0.000000 -0.829378
vn  0.478640 0.000000 -0.829378
vn  0.478640 0.000000 -0.829378
# 51 vertex normals

g Object_0
s 1
f 17/1/34 25/2/34 23/3/34
f 24/4/36 28/5/36 20/6/36
f 21/7/38 27/8/38 18/9/38
f 19/10/39 26/11/39 22/12/39
f 15/13/44 23/14/45 7/15/43
f 24/16/47 7/17/47 23/18/46
f 16/19/49 1/20/48 19/21/48
f 18/22/51 19/23/50 1/24/50
f 7/26/2 8/25/2 6/27/1 5/28/1
f 3/30/3 5/29/4 6/31/4 4/32/3
f 21/34/5 12/33/5 10/35/7 20/36/7
f 1/38/7 3/37/8 4/39/8 2/40/7
f 24/42/9 14/41/10 8/43/11 7/44/9
f 22/46/12 11/45/12 16/47/14 19/48/15
f 20/50/15 10/49/15 14/51/17 24/52/18
f 23/54/18 15/53/19 9/55/20 17/56/20
f 24/58/21 23/57/22 25/59/23 28/60/23
f 17/62/24 9/61/24 11/63/26 22/64/26
f 28/66/26 25/65/26 26/67/28 27/68/28
f 18/70/28 13/69/29 12/71/30 21/72/30
f 19/74/31 18/73/32 27/75/33 26/76/33
f 21/78/35 20/77/35 28/79/35 27/80/35
f 17/82/37 22/81/37 26/83/37 25/84/37
f 13/86/42 18/85/41 1/87/40 2/88/41
# 24 faces

g
