# Wavefront OBJ exported by RE2MV
#
# object Object_0 to come ...
#
v  1.740000 -3.260000 0.100000
v  36.119999 -3.260000 0.100000
v  1.740000 5.460000 0.100000
v  36.119999 5.460000 0.100000
v  1.740000 -3.260000 -0.120000
v  36.119999 -3.260000 -0.120000
v  1.740000 5.460000 -0.120000
v  36.119999 5.460000 -0.120000
v  8.620000 5.500000 0.100000
v  8.620000 36.040001 0.100000
v  1.740000 36.040001 0.100000
v  1.740000 5.500000 0.100000
v  8.620000 36.040001 -0.120000
v  8.620000 5.500000 -0.120000
v  1.740000 5.500000 -0.120000
v  1.740000 36.040001 -0.120000
v  15.500000 5.500000 0.100000
v  15.500000 36.040001 0.100000
v  15.500000 36.040001 -0.120000
v  15.500000 5.500000 -0.120000
v  22.379999 5.500000 0.100000
v  22.379999 36.040001 0.100000
v  22.379999 36.040001 -0.120000
v  22.379999 5.500000 -0.120000
v  29.240000 36.040001 0.100000
v  29.240000 5.500000 0.100000
v  36.119999 5.500000 0.100000
v  36.119999 36.040001 0.100000
v  29.240000 5.500000 -0.120000
v  29.240000 36.040001 -0.120000
v  36.119999 36.040001 -0.120000
v  36.119999 5.500000 -0.120000
v  8.620000 -29.219999 0.100000
v  8.620000 -3.380000 0.100000
v  1.740000 -3.380000 0.100000
v  1.740000 -29.219999 0.100000
v  8.620000 -3.380000 -0.120000
v  8.620000 -29.219999 -0.120000
v  1.740000 -29.219999 -0.120000
v  1.740000 -3.380000 -0.120000
v  15.500000 -29.219999 0.100000
v  15.500000 -3.380000 0.100000
v  15.500000 -3.380000 -0.120000
v  15.500000 -29.219999 -0.120000
v  22.379999 -29.219999 0.100000
v  22.379999 -3.380000 0.100000
v  22.379999 -3.380000 -0.120000
v  22.379999 -29.219999 -0.120000
v  29.240000 -3.380000 0.100000
v  29.240000 -29.219999 0.100000
v  36.119999 -29.219999 0.100000
v  36.119999 -3.380000 0.100000
v  29.240000 -29.219999 -0.120000
v  29.240000 -3.380000 -0.120000
v  36.119999 -3.380000 -0.120000
v  36.119999 -29.219999 -0.120000
v  3.440000 -31.520000 0.700000
v  34.459999 35.919998 0.700000
v  -0.040000 -28.160000 0.700000
v  1.000000 -30.820000 0.700000
v  3.420000 35.919998 0.700000
v  3.440000 -31.520000 -0.720000
v  1.000000 -30.820000 -0.720000
v  -0.040000 -28.160000 -0.720000
v  3.420000 -29.420000 0.700000
v  3.440000 38.020000 0.700000
v  1.000000 37.320000 0.700000
v  -0.040000 34.680000 0.700000
v  3.440000 38.020000 -0.720000
v  3.420000 35.919998 -0.720000
v  -0.040000 34.680000 -0.720000
v  1.000000 37.320000 -0.720000
v  34.459999 -29.420000 -0.720000
v  34.439999 -31.520000 0.700000
v  36.880001 -30.820000 0.700000
v  37.919998 -28.160000 0.700000
v  37.919998 -28.160000 -0.720000
v  36.880001 -30.820000 -0.720000
v  34.439999 -31.520000 -0.720000
v  34.459999 -29.420000 0.700000
v  34.439999 38.020000 -0.720000
v  34.459999 35.919998 -0.720000
v  34.439999 38.020000 0.700000
v  3.420000 -29.420000 -0.720000
v  37.919998 34.680000 0.700000
v  36.880001 37.320000 0.700000
v  37.919998 34.680000 -0.720000
v  36.880001 37.320000 -0.720000
v  36.139999 34.400002 0.700000
v  36.139999 -27.900000 -0.720000
v  36.139999 34.400002 -0.720000
v  36.139999 -27.900000 0.700000
v  1.740000 34.400002 -0.720000
v  1.740000 34.400002 0.700000
v  1.740000 -27.900000 0.700000
v  1.740000 -27.900000 -0.720000
# 96 vertices

vt  0.007813 0.568627
vt  0.015625 0.572549
vt  0.031250 0.568627
vt  0.000000 0.568627
vt  0.031250 0.568627
vt  0.015625 0.572549
vt  0.007813 0.513725
vt  0.031250 0.513725
vt  0.015625 0.509804
vt  0.000000 0.513725
vt  0.015625 0.509804
vt  0.031250 0.513725
vt  0.835938 0.568627
vt  0.812500 0.568627
vt  0.828125 0.572549
vt  0.835938 0.568627
vt  0.828125 0.572549
vt  0.812500 0.568627
vt  0.835938 0.513725
vt  0.828125 0.509804
vt  0.812500 0.513725
vt  0.835938 0.513725
vt  0.812500 0.513725
vt  0.828125 0.509804
vt  0.500000 0.572549
vt  0.500000 0.509804
vt  0.398438 0.572549
vt  0.398438 0.509804
vt  0.500000 0.572549
vt  0.500000 0.572549
vt  0.398438 0.572549
vt  0.398438 0.572549
vt  0.500000 0.509804
vt  0.500000 0.572549
vt  0.398438 0.509804
vt  0.398438 0.572549
vt  0.500000 0.509804
vt  0.500000 0.509804
vt  0.398438 0.509804
vt  0.398438 0.509804
vt  0.500000 0.572549
vt  0.500000 0.509804
vt  0.500000 0.572549
vt  0.500000 0.509804
vt  0.398438 0.572549
vt  0.398438 0.509804
vt  0.398438 0.572549
vt  0.398438 0.509804
vt  0.773438 1.000000
vt  0.773438 0.580392
vt  0.984375 1.000000
vt  0.984375 0.580392
vt  0.789063 0.580392
vt  0.789063 1.000000
vt  0.984375 0.580392
vt  0.984375 1.000000
vt  0.578125 1.000000
vt  0.578125 0.580392
vt  0.773438 1.000000
vt  0.773438 0.580392
vt  0.578125 0.580392
vt  0.578125 1.000000
vt  0.789063 0.580392
vt  0.789063 1.000000
vt  0.382813 1.000000
vt  0.382813 0.580392
vt  0.578125 1.000000
vt  0.578125 0.580392
vt  0.382813 0.580392
vt  0.382813 1.000000
vt  0.578125 0.580392
vt  0.578125 1.000000
vt  0.187500 0.580392
vt  0.187500 1.000000
vt  0.000000 0.580392
vt  0.000000 1.000000
vt  0.187500 1.000000
vt  0.187500 0.580392
vt  0.382813 1.000000
vt  0.382813 0.580392
vt  0.187500 1.000000
vt  0.187500 0.580392
vt  0.000000 1.000000
vt  0.000000 0.580392
vt  0.187500 0.580392
vt  0.187500 1.000000
vt  0.382813 0.580392
vt  0.382813 1.000000
vt  0.773438 1.000000
vt  0.773438 0.588235
vt  0.984375 1.000000
vt  0.984375 0.588235
vt  0.789063 0.588235
vt  0.789063 1.000000
vt  0.984375 0.588235
vt  0.984375 1.000000
vt  0.578125 1.000000
vt  0.578125 0.588235
vt  0.773438 1.000000
vt  0.773438 0.588235
vt  0.578125 0.588235
vt  0.578125 1.000000
vt  0.789063 0.588235
vt  0.789063 1.000000
vt  0.382813 1.000000
vt  0.382813 0.588235
vt  0.578125 1.000000
vt  0.578125 0.588235
vt  0.382813 0.588235
vt  0.382813 1.000000
vt  0.578125 0.588235
vt  0.578125 1.000000
vt  0.187500 0.588235
vt  0.187500 1.000000
vt  0.000000 0.588235
vt  0.000000 1.000000
vt  0.187500 1.000000
vt  0.187500 0.588235
vt  0.382813 1.000000
vt  0.382813 0.588235
vt  0.187500 1.000000
vt  0.187500 0.588235
vt  0.000000 1.000000
vt  0.000000 0.588235
vt  0.187500 0.588235
vt  0.187500 1.000000
vt  0.382813 0.588235
vt  0.382813 1.000000
vt  0.046875 0.572549
vt  0.796875 0.572549
vt  0.046875 0.572549
vt  0.796875 0.572549
vt  0.046875 0.568627
vt  0.046875 0.572549
vt  0.031250 0.568627
vt  0.015625 0.572549
vt  0.796875 0.505882
vt  0.796875 0.505882
vt  0.828125 0.509804
vt  0.828125 0.509804
vt  0.835938 0.513725
vt  0.835938 0.513725
vt  0.828125 0.509804
vt  0.828125 0.509804
vt  0.046875 0.572549
vt  0.046875 0.572549
vt  0.796875 0.572549
vt  0.796875 0.572549
vt  0.000000 0.568627
vt  0.007813 0.568627
vt  0.015625 0.572549
vt  0.015625 0.572549
vt  0.046875 0.505882
vt  0.046875 0.505882
vt  0.796875 0.505882
vt  0.796875 0.505882
vt  0.835938 0.568627
vt  0.835938 0.568627
vt  0.835938 0.513725
vt  0.835938 0.513725
vt  0.835938 0.568627
vt  0.835938 0.568627
vt  0.828125 0.572549
vt  0.828125 0.572549
vt  0.046875 0.505882
vt  0.046875 0.505882
vt  0.015625 0.509804
vt  0.015625 0.509804
vt  0.007813 0.568627
vt  0.000000 0.568627
vt  0.007813 0.513725
vt  0.000000 0.513725
vt  0.007813 0.513725
vt  0.000000 0.513725
vt  0.015625 0.509804
vt  0.015625 0.509804
vt  0.046875 0.572549
vt  0.046875 0.572549
vt  0.015625 0.572549
vt  0.015625 0.572549
vt  0.796875 0.572549
vt  0.796875 0.572549
vt  0.828125 0.572549
vt  0.828125 0.572549
vt  0.046875 0.572549
vt  0.031250 0.568627
vt  0.046875 0.572549
vt  0.015625 0.572549
vt  0.046875 0.568627
vt  0.789063 0.568627
vt  0.046875 0.572549
vt  0.796875 0.572549
vt  0.000000 0.513725
vt  0.000000 0.568627
vt  0.031250 0.513725
vt  0.031250 0.568627
vt  0.007813 0.568627
vt  0.007813 0.513725
vt  0.031250 0.568627
vt  0.031250 0.513725
vt  0.046875 0.509804
vt  0.046875 0.505882
vt  0.031250 0.513725
vt  0.015625 0.509804
vt  0.046875 0.509804
vt  0.031250 0.513725
vt  0.046875 0.505882
vt  0.015625 0.509804
vt  0.796875 0.505882
vt  0.789063 0.509804
vt  0.046875 0.505882
vt  0.046875 0.509804
vt  0.046875 0.509804
vt  0.796875 0.509804
vt  0.046875 0.505882
vt  0.796875 0.505882
vt  0.789063 0.568627
vt  0.812500 0.568627
vt  0.796875 0.572549
vt  0.828125 0.572549
vt  0.796875 0.572549
vt  0.828125 0.572549
vt  0.796875 0.572549
vt  0.812500 0.568627
vt  0.835938 0.513725
vt  0.835938 0.568627
vt  0.812500 0.513725
vt  0.812500 0.568627
vt  0.835938 0.568627
vt  0.835938 0.513725
vt  0.812500 0.568627
vt  0.812500 0.513725
vt  0.796875 0.505882
vt  0.828125 0.509804
vt  0.789063 0.509804
vt  0.812500 0.513725
vt  0.796875 0.509804
vt  0.812500 0.513725
vt  0.796875 0.505882
vt  0.828125 0.509804
vt  0.687500 0.560784
vt  0.703125 0.560784
vt  0.687500 0.560784
vt  0.703125 0.560784
vt  0.703125 0.521569
vt  0.703125 0.560784
vt  0.687500 0.521569
vt  0.687500 0.560784
vt  0.703125 0.521569
vt  0.703125 0.521569
vt  0.687500 0.521569
vt  0.687500 0.521569
vt  0.703125 0.521569
vt  0.687500 0.521569
vt  0.703125 0.521569
vt  0.687500 0.521569
vt  0.703125 0.521569
vt  0.687500 0.521569
vt  0.703125 0.521569
vt  0.687500 0.521569
vt  0.687500 0.521569
vt  0.687500 0.560784
vt  0.703125 0.521569
vt  0.703125 0.560784
vt  0.687500 0.560784
vt  0.687500 0.560784
vt  0.703125 0.560784
vt  0.703125 0.560784
vt  0.687500 0.560784
vt  0.687500 0.560784
vt  0.703125 0.560784
vt  0.703125 0.560784
# 210 texture coordinates

vn  0.000000 0.000000 0.957514
vn  0.957514 0.000000 0.000000
vn  0.000000 0.000000 -0.957748
vn  -0.957748 0.000000 0.000000
vn  0.000000 -0.957748 0.000000
vn  0.000000 0.957514 0.000000
vn  0.000000 0.000000 0.957514
vn  0.000000 0.000000 -0.957748
vn  0.000000 0.000000 0.957514
vn  0.000000 0.000000 -0.957748
vn  0.000000 0.000000 0.957514
vn  0.000000 0.000000 -0.957748
vn  0.000000 0.000000 0.957514
vn  0.000000 0.000000 0.957514
vn  0.000000 0.000000 -0.957748
vn  0.000000 0.000000 -0.957748
vn  0.000000 0.000000 0.957514
vn  0.000000 0.000000 -0.957748
vn  0.000000 0.000000 0.957514
vn  0.000000 0.000000 -0.957748
vn  0.000000 0.000000 0.957514
vn  0.000000 0.000000 -0.957748
vn  0.000000 0.000000 0.957514
vn  0.000000 0.000000 0.957514
vn  0.000000 0.000000 -0.957748
vn  0.000000 0.000000 -0.957748
vn  0.000000 0.000000 0.957514
vn  0.000000 0.000000 -0.957748
vn  -0.943017 -0.166717 0.000000
vn  -0.714803 -0.637641 0.000000
vn  -0.134216 -0.948395 0.000000
vn  -0.714803 -0.637641 0.000000
vn  0.942783 0.166484 0.000000
vn  0.942783 -0.166717 0.000000
vn  0.133982 0.948161 0.000000
vn  0.714570 0.637407 0.000000
vn  -0.943017 0.166484 0.000000
vn  -0.943017 -0.166717 0.000000
vn  0.133982 -0.948395 0.000000
vn  -0.134216 -0.948395 0.000000
vn  0.133982 -0.948395 0.000000
vn  0.714570 -0.637641 0.000000
vn  -0.943017 0.166484 0.000000
vn  -0.714803 0.637407 0.000000
vn  0.133982 0.948161 0.000000
vn  -0.134216 0.948161 0.000000
vn  -0.134216 0.948161 0.000000
vn  -0.714803 0.637407 0.000000
vn  0.942783 0.166484 0.000000
vn  0.714570 0.637407 0.000000
vn  0.942783 -0.166717 0.000000
vn  0.714570 -0.637641 0.000000
vn  0.000000 0.000000 0.957514
vn  0.000000 0.000000 -0.957748
vn  0.000000 0.000000 -0.957748
vn  0.000000 0.000000 0.957514
vn  0.000000 0.000000 0.957514
vn  0.000000 0.000000 -0.957748
vn  0.000000 0.000000 -0.957748
vn  0.000000 0.000000 0.957514
vn  0.000000 0.000000 0.957514
vn  0.000000 0.000000 -0.957748
vn  0.000000 0.000000 -0.957748
vn  0.000000 0.000000 0.957514
vn  0.000000 0.000000 -0.957748
vn  0.000000 0.000000 0.957514
vn  0.000000 0.000000 -0.957748
vn  0.000000 0.000000 0.957514
vn  0.000000 0.000000 -0.957748
vn  0.000000 0.000000 0.957514
vn  0.000000 0.000000 -0.957748
vn  0.000000 0.000000 0.957514
vn  0.000000 0.000000 -0.957748
vn  0.000000 0.000000 0.957514
vn  -0.645124 -0.708023 0.000000
vn  -0.378563 -0.879650 0.000000
vn  -0.957748 0.000000 0.000000
vn  -0.645124 0.707789 0.000000
vn  -0.378563 0.879416 0.000000
vn  -0.378563 0.879416 0.000000
vn  0.378329 0.879416 0.000000
vn  0.378329 0.879416 0.000000
vn  0.644890 0.707789 0.000000
vn  0.957514 0.000000 0.000000
vn  0.378329 -0.879650 0.000000
vn  0.644890 -0.708023 0.000000
vn  -0.378563 -0.879650 0.000000
vn  0.378329 -0.879650 0.000000
# 88 vertex normals

g Object_0
s 1
f 81/1/55 88/2/55 82/3/55
f 83/4/56 58/5/56 86/6/56
f 69/7/59 70/8/59 72/9/59
f 66/10/60 67/11/60 61/12/60
f 79/13/67 73/14/67 78/15/67
f 74/16/68 75/17/68 80/18/68
f 62/19/71 63/20/71 84/21/71
f 57/22/72 65/23/72 60/24/72
f 1/26/1 2/25/1 4/27/1 3/28/1
f 2/30/2 6/29/2 8/31/2 4/32/2
f 6/34/3 5/33/3 7/35/3 8/36/3
f 5/38/4 1/37/4 3/39/4 7/40/4
f 5/42/5 6/41/5 2/43/5 1/44/5
f 3/46/6 4/45/6 8/47/6 7/48/6
f 9/50/7 10/49/7 11/51/7 12/52/7
f 13/54/8 14/53/8 15/55/8 16/56/8
f 17/58/9 18/57/9 10/59/9 9/60/9
f 19/62/10 20/61/10 14/63/10 13/64/10
f 21/66/11 22/65/11 18/67/11 17/68/11
f 23/70/12 24/69/12 20/71/12 19/72/12
f 25/74/13 26/73/13 27/75/13 28/76/13
f 26/78/14 25/77/14 22/79/14 21/80/14
f 29/82/15 30/81/15 31/83/15 32/84/15
f 30/86/16 29/85/16 24/87/16 23/88/16
f 33/90/17 34/89/17 35/91/17 36/92/17
f 37/94/18 38/93/18 39/95/18 40/96/18
f 41/98/19 42/97/19 34/99/19 33/100/19
f 43/102/20 44/101/20 38/103/20 37/104/20
f 45/106/21 46/105/21 42/107/21 41/108/21
f 47/110/22 48/109/22 44/111/22 43/112/22
f 49/114/23 50/113/23 51/115/23 52/116/23
f 50/118/24 49/117/24 46/119/24 45/120/24
f 53/122/25 54/121/25 55/123/25 56/124/25
f 54/126/26 53/125/26 48/127/26 47/128/26
f 76/130/27 85/129/27 89/131/27 92/132/27
f 87/134/28 91/133/28 82/135/28 88/136/28
f 59/138/29 64/137/29 63/139/31 60/140/31
f 62/142/31 57/141/31 60/143/33 63/144/33
f 87/146/33 85/145/33 76/147/35 77/148/35
f 81/150/35 83/149/35 86/151/37 88/152/37
f 68/154/37 71/153/37 64/155/39 59/156/39
f 79/158/39 74/157/39 57/159/41 62/160/41
f 74/162/41 79/161/41 78/163/43 75/164/43
f 71/166/43 68/165/43 67/167/45 72/168/45
f 83/170/45 81/169/45 69/171/47 66/172/47
f 66/174/47 69/173/47 72/175/49 67/176/49
f 85/178/49 87/177/49 88/179/51 86/180/51
f 77/182/51 76/181/51 75/183/53 78/184/53
f 58/186/53 89/185/53 85/187/53 86/188/53
f 90/190/54 91/189/54 87/191/54 77/192/54
f 83/194/57 66/193/57 61/195/57 58/196/57
f 69/198/58 81/197/58 82/199/58 70/200/58
f 68/202/61 94/201/61 61/203/61 67/204/61
f 70/206/62 93/205/62 71/207/62 72/208/62
f 96/210/63 64/209/63 71/211/63 93/212/63
f 95/214/64 94/213/64 68/215/64 59/216/64
f 73/218/65 90/217/65 77/219/65 78/220/65
f 75/222/66 76/221/66 92/223/66 80/224/66
f 79/226/69 62/225/69 84/227/69 73/228/69
f 57/230/70 74/229/70 80/231/70 65/232/70
f 63/234/73 64/233/73 96/235/73 84/236/73
f 65/238/74 95/237/74 59/239/74 60/240/74
f 91/242/75 89/241/75 58/243/77 82/244/77
f 91/246/77 90/245/77 92/247/77 89/248/77
f 90/250/78 73/249/79 80/251/79 92/252/78
f 80/254/80 73/253/80 84/255/82 65/256/82
f 65/258/82 84/257/82 96/259/84 95/260/84
f 94/262/84 95/261/84 96/263/84 93/264/84
f 61/266/85 94/265/86 93/267/86 70/268/85
f 58/270/87 61/269/88 70/271/88 82/272/87
# 70 faces

g
