# Wavefront OBJ exported by RE2MV
#
# object Object_0 to come ...
#
v  -43.200001 12.220000 0.880000
v  -43.200001 12.220000 0.000000
v  -43.200001 0.000000 0.000000
v  -43.200001 0.000000 0.880000
v  -34.560001 0.000000 0.000000
v  -34.560001 0.000000 0.880000
v  -34.560001 12.220000 0.000000
v  -43.200001 24.459999 0.880000
v  -43.200001 24.459999 0.000000
v  -34.560001 24.459999 0.000000
v  -43.200001 36.700001 0.880000
v  -43.200001 36.700001 0.000000
v  -34.560001 36.700001 0.000000
v  -43.200001 48.939999 0.000000
v  -43.200001 48.939999 0.880000
v  -43.200001 61.180000 0.880000
v  -43.200001 61.180000 0.000000
v  -34.560001 61.180000 0.000000
v  -34.560001 48.939999 0.000000
v  -25.920000 0.000000 0.000000
v  -25.920000 0.000000 0.880000
v  -25.920000 12.220000 0.000000
v  -25.920000 24.459999 0.000000
v  -25.920000 36.700001 0.000000
v  -25.920000 61.180000 0.000000
v  -25.920000 48.939999 0.000000
v  -17.280001 0.000000 0.000000
v  -17.280001 0.000000 0.880000
v  -17.280001 12.220000 0.000000
v  -17.280001 24.459999 0.000000
v  -17.280001 36.700001 0.000000
v  -17.280001 61.180000 0.000000
v  -17.280001 48.939999 0.000000
v  -8.640000 0.000000 0.880000
v  -8.640000 0.000000 0.000000
v  0.000000 0.000000 0.000000
v  0.000000 0.000000 0.880000
v  -8.640000 12.220000 0.000000
v  0.000000 12.220000 0.000000
v  0.000000 12.220000 0.880000
v  -8.640000 24.459999 0.000000
v  0.000000 24.459999 0.000000
v  0.000000 24.459999 0.880000
v  -8.640000 36.700001 0.000000
v  0.000000 36.700001 0.000000
v  0.000000 36.700001 0.880000
v  -8.640000 48.939999 0.000000
v  -8.640000 61.180000 0.000000
v  0.000000 61.180000 0.000000
v  0.000000 48.939999 0.000000
v  0.000000 48.939999 0.880000
v  0.000000 61.180000 0.880000
# 52 vertices

vt  0.984375 0.407843
vt  0.984375 0.407843
vt  0.984375 0.258824
vt  0.984375 0.258824
vt  0.789063 0.258824
vt  0.789063 0.258824
vt  0.984375 0.258824
vt  0.984375 0.258824
vt  0.789063 0.258824
vt  0.789063 0.407843
vt  0.984375 0.258824
vt  0.984375 0.407843
vt  0.984375 0.552941
vt  0.984375 0.556863
vt  0.984375 0.407843
vt  0.984375 0.407843
vt  0.789063 0.407843
vt  0.789063 0.552941
vt  0.984375 0.407843
vt  0.984375 0.552941
vt  0.984375 0.701961
vt  0.984375 0.701961
vt  0.984375 0.552941
vt  0.984375 0.556863
vt  0.789063 0.552941
vt  0.789063 0.701961
vt  0.984375 0.552941
vt  0.984375 0.701961
vt  0.984375 0.850980
vt  0.984375 0.850980
vt  0.984375 1.000000
vt  0.984375 1.000000
vt  0.984375 0.850980
vt  0.984375 0.850980
vt  0.984375 0.701961
vt  0.984375 0.701961
vt  0.789063 0.850980
vt  0.789063 1.000000
vt  0.984375 0.850980
vt  0.984375 1.000000
vt  0.789063 0.701961
vt  0.789063 0.850980
vt  0.984375 0.701961
vt  0.984375 0.850980
vt  0.593750 0.258824
vt  0.593750 0.258824
vt  0.789063 0.258824
vt  0.789063 0.258824
vt  0.593750 0.258824
vt  0.593750 0.407843
vt  0.789063 0.258824
vt  0.789063 0.407843
vt  0.593750 0.407843
vt  0.593750 0.552941
vt  0.789063 0.407843
vt  0.789063 0.552941
vt  0.593750 0.552941
vt  0.593750 0.701961
vt  0.789063 0.552941
vt  0.789063 0.701961
vt  0.593750 0.850980
vt  0.593750 1.000000
vt  0.789063 0.850980
vt  0.789063 1.000000
vt  0.593750 0.701961
vt  0.593750 0.850980
vt  0.789063 0.701961
vt  0.789063 0.850980
vt  0.398438 0.258824
vt  0.398438 0.258824
vt  0.593750 0.258824
vt  0.593750 0.258824
vt  0.398438 0.258824
vt  0.398438 0.407843
vt  0.593750 0.258824
vt  0.593750 0.407843
vt  0.398438 0.407843
vt  0.398438 0.552941
vt  0.593750 0.407843
vt  0.593750 0.552941
vt  0.398438 0.552941
vt  0.398438 0.701961
vt  0.593750 0.552941
vt  0.593750 0.701961
vt  0.398438 0.850980
vt  0.398438 1.000000
vt  0.593750 0.850980
vt  0.593750 1.000000
vt  0.398438 0.701961
vt  0.398438 0.850980
vt  0.593750 0.701961
vt  0.593750 0.850980
vt  0.203125 0.254902
vt  0.203125 0.258824
vt  0.007813 0.254902
vt  0.000000 0.258824
vt  0.203125 0.258824
vt  0.203125 0.254902
vt  0.398438 0.258824
vt  0.398438 0.258824
vt  0.203125 0.407843
vt  0.203125 0.254902
vt  0.000000 0.403922
vt  0.007813 0.254902
vt  0.203125 0.254902
vt  0.203125 0.407843
vt  0.398438 0.258824
vt  0.398438 0.407843
vt  0.000000 0.407843
vt  0.000000 0.403922
vt  0.000000 0.258824
vt  0.007813 0.254902
vt  0.203125 0.552941
vt  0.203125 0.407843
vt  0.000000 0.552941
vt  0.000000 0.403922
vt  0.203125 0.407843
vt  0.203125 0.552941
vt  0.398438 0.407843
vt  0.398438 0.552941
vt  0.000000 0.556863
vt  0.000000 0.552941
vt  0.000000 0.407843
vt  0.000000 0.403922
vt  0.203125 0.701961
vt  0.203125 0.552941
vt  0.000000 0.701961
vt  0.000000 0.552941
vt  0.203125 0.552941
vt  0.203125 0.701961
vt  0.398438 0.552941
vt  0.398438 0.701961
vt  0.000000 0.701961
vt  0.000000 0.701961
vt  0.000000 0.556863
vt  0.000000 0.552941
vt  0.203125 1.000000
vt  0.203125 0.850980
vt  0.000000 1.000000
vt  0.000000 0.850980
vt  0.203125 0.850980
vt  0.203125 1.000000
vt  0.398438 0.850980
vt  0.398438 1.000000
vt  0.203125 0.850980
vt  0.203125 0.701961
vt  0.000000 0.850980
vt  0.000000 0.701961
vt  0.203125 0.701961
vt  0.203125 0.850980
vt  0.398438 0.701961
vt  0.398438 0.850980
vt  0.000000 0.850980
vt  0.000000 0.850980
vt  0.000000 1.000000
vt  0.000000 1.000000
vt  0.000000 0.850980
vt  0.000000 0.850980
vt  0.000000 0.701961
vt  0.000000 0.701961
# 120 texture coordinates

vn  -0.957748 0.000000 0.000000
vn  0.000000 -0.957748 0.000000
vn  0.000000 0.000000 -0.957748
vn  -0.957748 0.000000 0.000000
vn  0.000000 0.000000 -0.957748
vn  -0.957748 0.000000 0.000000
vn  0.000000 0.000000 -0.957748
vn  -0.957748 0.000000 0.000000
vn  -0.957748 0.000000 0.000000
vn  0.000000 0.000000 -0.957748
vn  0.000000 0.000000 -0.957748
vn  0.000000 -0.957748 0.000000
vn  0.000000 0.000000 -0.957748
vn  0.000000 0.000000 -0.957748
vn  0.000000 0.000000 -0.957748
vn  0.000000 0.000000 -0.957748
vn  0.000000 0.000000 -0.957748
vn  0.000000 -0.957748 0.000000
vn  0.000000 0.000000 -0.957748
vn  0.000000 0.000000 -0.957748
vn  0.000000 0.000000 -0.957748
vn  0.000000 0.000000 -0.957748
vn  0.000000 0.000000 -0.957748
vn  0.000000 -0.957748 0.000000
vn  0.000000 -0.957748 0.000000
vn  0.000000 0.000000 -0.957748
vn  0.000000 0.000000 -0.957748
vn  0.957514 0.000000 0.000000
vn  0.000000 0.000000 -0.957748
vn  0.000000 0.000000 -0.957748
vn  0.957514 0.000000 0.000000
vn  0.000000 0.000000 -0.957748
vn  0.000000 0.000000 -0.957748
vn  0.957514 0.000000 0.000000
vn  0.000000 0.000000 -0.957748
vn  0.000000 0.000000 -0.957748
vn  0.000000 0.000000 -0.957748
vn  0.000000 0.000000 -0.957748
vn  0.957514 0.000000 0.000000
vn  0.957514 0.000000 0.000000
# 40 vertex normals

g Object_0
s 1
f 1/2/1 2/1/1 3/3/1 4/4/1
f 5/6/2 6/5/2 4/7/2 3/8/2
f 7/10/3 5/9/3 3/11/3 2/12/3
f 8/14/4 9/13/4 2/15/4 1/16/4
f 10/18/5 7/17/5 2/19/5 9/20/5
f 11/22/6 12/21/6 9/23/6 8/24/6
f 13/26/7 10/25/7 9/27/7 12/28/7
f 14/30/8 15/29/8 16/31/8 17/32/8
f 15/34/9 14/33/9 12/35/9 11/36/9
f 18/38/10 19/37/10 14/39/10 17/40/10
f 19/42/11 13/41/11 12/43/11 14/44/11
f 20/46/12 21/45/12 6/47/12 5/48/12
f 22/50/13 20/49/13 5/51/13 7/52/13
f 23/54/14 22/53/14 7/55/14 10/56/14
f 24/58/15 23/57/15 10/59/15 13/60/15
f 25/62/16 26/61/16 19/63/16 18/64/16
f 26/66/17 24/65/17 13/67/17 19/68/17
f 27/70/18 28/69/18 21/71/18 20/72/18
f 29/74/19 27/73/19 20/75/19 22/76/19
f 30/78/20 29/77/20 22/79/20 23/80/20
f 31/82/21 30/81/21 23/83/21 24/84/21
f 32/86/22 33/85/22 26/87/22 25/88/22
f 33/90/23 31/89/23 24/91/23 26/92/23
f 34/94/24 35/93/24 36/95/24 37/96/24
f 35/98/25 34/97/25 28/99/25 27/100/25
f 35/102/26 38/101/26 39/103/26 36/104/26
f 38/106/27 35/105/27 27/107/27 29/108/27
f 39/110/28 40/109/28 37/111/28 36/112/28
f 38/114/29 41/113/29 42/115/29 39/116/29
f 41/118/30 38/117/30 29/119/30 30/120/30
f 42/122/31 43/121/31 40/123/31 39/124/31
f 41/126/32 44/125/32 45/127/32 42/128/32
f 44/130/33 41/129/33 30/131/33 31/132/33
f 45/134/34 46/133/34 43/135/34 42/136/34
f 47/138/35 48/137/35 49/139/35 50/140/35
f 48/142/36 47/141/36 33/143/36 32/144/36
f 44/146/37 47/145/37 50/147/37 45/148/37
f 47/150/38 44/149/38 31/151/38 33/152/38
f 51/154/39 50/153/39 49/155/39 52/156/39
f 50/158/40 51/157/40 46/159/40 45/160/40
# 40 faces

g
